RecursiveSans-StrictRegular.ufo
<glyph name="exclam" format="1">
  <advance width="350"/>
  <unicode hex="0021"/>
  <outline>
    <contour>
      <point x="208" y="256" type="line"/>
      <point x="214" y="338"/>
      <point x="221" y="420"/>
      <point x="227" y="502" type="curve"/>
      <point x="227" y="689" type="line" smooth="yes"/>
      <point x="227" y="696"/>
      <point x="223" y="700"/>
      <point x="217" y="700" type="curve" smooth="yes"/>
      <point x="181" y="700"/>
      <point x="149" y="700"/>
      <point x="123" y="700" type="curve"/>
      <point x="123" y="662"/>
      <point x="123" y="627"/>
      <point x="123" y="590" type="curve" smooth="yes"/>
      <point x="123" y="502" type="line"/>
      <point x="140" y="268"/>
      <point x="142" y="263"/>
      <point x="146" y="259" type="curve" smooth="yes"/>
      <point x="148" y="257"/>
      <point x="150" y="256"/>
      <point x="154" y="256" type="curve"/>
    </contour>
    <contour>
      <point x="249" y="-7" type="curve"/>
      <point x="249" y="127" type="line" smooth="yes"/>
      <point x="249" y="133"/>
      <point x="244" y="138"/>
      <point x="238" y="138" type="curve" smooth="yes"/>
      <point x="198" y="138"/>
      <point x="141" y="138"/>
      <point x="101" y="138" type="curve"/>
      <point x="101" y="4" type="line" smooth="yes"/>
      <point x="101" y="-2"/>
      <point x="106" y="-7"/>
      <point x="112" y="-7" type="curve" smooth="yes"/>
      <point x="152" y="-7"/>
      <point x="209" y="-7"/>
    </contour>
  </outline>
</glyph>
<glyph name="percent" format="1">
  <advance width="600"/>
  <unicode hex="0025"/>
  <outline>
    <contour>
      <point x="174" y="648" type="curve"/>
      <point x="231" y="648"/>
      <point x="257" y="615"/>
      <point x="257" y="558" type="curve" smooth="yes"/>
      <point x="257" y="513" type="line" smooth="yes"/>
      <point x="257" y="454"/>
      <point x="230" y="419"/>
      <point x="176" y="419" type="curve" smooth="yes"/>
      <point x="136" y="419"/>
      <point x="118" y="423"/>
      <point x="92" y="437" type="curve"/>
      <point x="73" y="397"/>
      <point x="119" y="357"/>
      <point x="172" y="357" type="curve" smooth="yes"/>
      <point x="267" y="357"/>
      <point x="324" y="418"/>
      <point x="324" y="511" type="curve" smooth="yes"/>
      <point x="324" y="559" type="line" smooth="yes"/>
      <point x="324" y="651"/>
      <point x="270" y="710"/>
      <point x="177" y="710" type="curve" smooth="yes"/>
      <point x="163" y="710"/>
      <point x="161" y="696"/>
    </contour>
    <contour>
      <point x="176" y="419" type="curve"/>
      <point x="119" y="419"/>
      <point x="92" y="452"/>
      <point x="92" y="510" type="curve" smooth="yes"/>
      <point x="92" y="554" type="line" smooth="yes"/>
      <point x="92" y="613"/>
      <point x="120" y="648"/>
      <point x="174" y="648" type="curve" smooth="yes"/>
      <point x="213" y="648"/>
      <point x="232" y="644"/>
      <point x="258" y="630" type="curve"/>
      <point x="277" y="670"/>
      <point x="231" y="710"/>
      <point x="177" y="710" type="curve" smooth="yes"/>
      <point x="83" y="710"/>
      <point x="26" y="649"/>
      <point x="26" y="556" type="curve" smooth="yes"/>
      <point x="26" y="509" type="line" smooth="yes"/>
      <point x="26" y="417"/>
      <point x="80" y="357"/>
      <point x="172" y="357" type="curve" smooth="yes"/>
      <point x="187" y="357"/>
      <point x="189" y="371"/>
    </contour>
    <contour>
      <point x="424" y="281" type="curve"/>
      <point x="481" y="281"/>
      <point x="508" y="248"/>
      <point x="508" y="191" type="curve" smooth="yes"/>
      <point x="508" y="146" type="line" smooth="yes"/>
      <point x="508" y="87"/>
      <point x="480" y="52"/>
      <point x="426" y="52" type="curve" smooth="yes"/>
      <point x="387" y="52"/>
      <point x="368" y="56"/>
      <point x="342" y="70" type="curve"/>
      <point x="323" y="30"/>
      <point x="369" y="-10"/>
      <point x="423" y="-10" type="curve" smooth="yes"/>
      <point x="517" y="-10"/>
      <point x="574" y="51"/>
      <point x="574" y="144" type="curve" smooth="yes"/>
      <point x="574" y="191" type="line" smooth="yes"/>
      <point x="574" y="283"/>
      <point x="520" y="343"/>
      <point x="428" y="343" type="curve" smooth="yes"/>
      <point x="413" y="343"/>
      <point x="411" y="329"/>
    </contour>
    <contour>
      <point x="426" y="52" type="curve"/>
      <point x="369" y="52"/>
      <point x="343" y="85"/>
      <point x="343" y="142" type="curve" smooth="yes"/>
      <point x="343" y="187" type="line" smooth="yes"/>
      <point x="343" y="246"/>
      <point x="370" y="281"/>
      <point x="424" y="281" type="curve" smooth="yes"/>
      <point x="464" y="281"/>
      <point x="482" y="277"/>
      <point x="508" y="263" type="curve"/>
      <point x="527" y="303"/>
      <point x="481" y="343"/>
      <point x="428" y="343" type="curve" smooth="yes"/>
      <point x="333" y="343"/>
      <point x="276" y="282"/>
      <point x="276" y="189" type="curve" smooth="yes"/>
      <point x="276" y="141" type="line" smooth="yes"/>
      <point x="276" y="49"/>
      <point x="330" y="-10"/>
      <point x="423" y="-10" type="curve" smooth="yes"/>
      <point x="437" y="-10"/>
      <point x="439" y="4"/>
    </contour>
    <contour>
      <point x="367" y="405" type="curve"/>
      <point x="384" y="405"/>
      <point x="403" y="405"/>
      <point x="426" y="405" type="curve" smooth="yes"/>
      <point x="431" y="405"/>
      <point x="433" y="406"/>
      <point x="436" y="412" type="curve" smooth="yes"/>
      <point x="482" y="507"/>
      <point x="529" y="602"/>
      <point x="575" y="697" type="curve" smooth="yes"/>
      <point x="579" y="705"/>
      <point x="575" y="710"/>
      <point x="567" y="710" type="curve" smooth="yes"/>
      <point x="538" y="710"/>
      <point x="514" y="710"/>
      <point x="482" y="710" type="curve"/>
      <point x="444" y="608"/>
      <point x="405" y="507"/>
    </contour>
    <contour>
      <point x="233" y="296" type="curve"/>
      <point x="216" y="296"/>
      <point x="197" y="296"/>
      <point x="174" y="296" type="curve" smooth="yes"/>
      <point x="169" y="296"/>
      <point x="167" y="295"/>
      <point x="164" y="289" type="curve" smooth="yes"/>
      <point x="118" y="194"/>
      <point x="71" y="99"/>
      <point x="25" y="4" type="curve" smooth="yes"/>
      <point x="21" y="-4"/>
      <point x="25" y="-9"/>
      <point x="33" y="-9" type="curve" smooth="yes"/>
      <point x="62" y="-9"/>
      <point x="86" y="-9"/>
      <point x="118" y="-9" type="curve"/>
      <point x="156" y="93"/>
      <point x="195" y="194"/>
    </contour>
  </outline>
</glyph>
<glyph name="quotesingle" format="1">
  <advance width="250"/>
  <unicode hex="0027"/>
  <outline>
    <contour>
      <point x="167" y="450" type="curve"/>
      <point x="190" y="737" type="line" smooth="yes"/>
      <point x="191" y="746"/>
      <point x="186" y="750"/>
      <point x="180" y="750" type="curve" smooth="yes"/>
      <point x="144" y="750"/>
      <point x="104" y="750"/>
      <point x="59" y="750" type="curve"/>
      <point x="62" y="714"/>
      <point x="64" y="683"/>
      <point x="67" y="648" type="curve" smooth="yes"/>
      <point x="82" y="461" type="line" smooth="yes"/>
      <point x="83" y="454"/>
      <point x="88" y="450"/>
      <point x="94" y="450" type="curve" smooth="yes"/>
      <point x="119" y="450"/>
      <point x="143" y="450"/>
    </contour>
  </outline>
</glyph>
<glyph name="parenleft" format="1">
  <advance width="400"/>
  <unicode hex="0028"/>
  <outline>
    <contour>
      <point x="289" y="749" type="curve" smooth="yes"/>
      <point x="171" y="630"/>
      <point x="115" y="479"/>
      <point x="115" y="309" type="curve" smooth="yes"/>
      <point x="115" y="302" type="line" smooth="yes"/>
      <point x="115" y="132"/>
      <point x="171" y="-19"/>
      <point x="289" y="-138" type="curve" smooth="yes"/>
      <point x="295" y="-144"/>
      <point x="302" y="-146"/>
      <point x="309" y="-146" type="curve" smooth="yes"/>
      <point x="337" y="-146"/>
      <point x="359" y="-146"/>
      <point x="388" y="-146" type="curve"/>
      <point x="388" y="-131" type="line"/>
      <point x="261" y="-13"/>
      <point x="198" y="136"/>
      <point x="198" y="302" type="curve" smooth="yes"/>
      <point x="198" y="309" type="line" smooth="yes"/>
      <point x="198" y="475"/>
      <point x="261" y="624"/>
      <point x="388" y="742" type="curve"/>
      <point x="388" y="757" type="line"/>
      <point x="359" y="757"/>
      <point x="337" y="757"/>
      <point x="309" y="757" type="curve" smooth="yes"/>
      <point x="302" y="757"/>
      <point x="295" y="755"/>
    </contour>
  </outline>
</glyph>
<glyph name="parenright" format="1">
  <advance width="400"/>
  <unicode hex="0029"/>
  <outline>
    <contour>
      <point x="111" y="-138" type="curve" smooth="yes"/>
      <point x="229" y="-19"/>
      <point x="285" y="132"/>
      <point x="285" y="302" type="curve" smooth="yes"/>
      <point x="285" y="309" type="line" smooth="yes"/>
      <point x="285" y="479"/>
      <point x="229" y="630"/>
      <point x="111" y="749" type="curve" smooth="yes"/>
      <point x="105" y="755"/>
      <point x="98" y="757"/>
      <point x="91" y="757" type="curve" smooth="yes"/>
      <point x="63" y="757"/>
      <point x="41" y="757"/>
      <point x="12" y="757" type="curve"/>
      <point x="12" y="742" type="line"/>
      <point x="139" y="624"/>
      <point x="202" y="475"/>
      <point x="202" y="309" type="curve" smooth="yes"/>
      <point x="202" y="302" type="line" smooth="yes"/>
      <point x="202" y="136"/>
      <point x="139" y="-13"/>
      <point x="12" y="-131" type="curve"/>
      <point x="12" y="-146" type="line"/>
      <point x="41" y="-146"/>
      <point x="63" y="-146"/>
      <point x="91" y="-146" type="curve" smooth="yes"/>
      <point x="98" y="-146"/>
      <point x="105" y="-144"/>
    </contour>
  </outline>
</glyph>
<glyph name="asterisk" format="1">
  <advance width="500"/>
  <unicode hex="002A"/>
  <outline>
    <contour>
      <point x="213" y="769" type="curve"/>
      <point x="215" y="744"/>
      <point x="219" y="721"/>
      <point x="222" y="697" type="curve" smooth="yes"/>
      <point x="237" y="562" type="line"/>
      <point x="214" y="363" type="line" smooth="yes"/>
      <point x="214" y="358"/>
      <point x="216" y="355"/>
      <point x="221" y="355" type="curve"/>
      <point x="243" y="355"/>
      <point x="265" y="355"/>
      <point x="287" y="355" type="curve"/>
      <point x="285" y="378"/>
      <point x="281" y="402"/>
      <point x="278" y="426" type="curve" smooth="yes"/>
      <point x="263" y="562" type="line"/>
      <point x="286" y="761" type="line" smooth="yes"/>
      <point x="287" y="766"/>
      <point x="285" y="769"/>
      <point x="279" y="769" type="curve" smooth="yes"/>
      <point x="257" y="769"/>
      <point x="235" y="769"/>
    </contour>
    <contour>
      <point x="410" y="697" type="curve"/>
      <point x="244" y="572" type="line"/>
      <point x="59" y="494" type="line" smooth="yes"/>
      <point x="55" y="491"/>
      <point x="53" y="487"/>
      <point x="56" y="482" type="curve"/>
      <point x="68" y="462"/>
      <point x="79" y="444"/>
      <point x="90" y="425" type="curve"/>
      <point x="257" y="550" type="line"/>
      <point x="441" y="629" type="line" smooth="yes"/>
      <point x="445" y="631"/>
      <point x="447" y="635"/>
      <point x="443" y="640" type="curve" smooth="yes"/>
      <point x="433" y="659"/>
      <point x="421" y="677"/>
    </contour>
    <contour>
      <point x="448" y="490" type="curve"/>
      <point x="257" y="573" type="line"/>
      <point x="96" y="693" type="line" smooth="yes"/>
      <point x="92" y="695"/>
      <point x="88" y="694"/>
      <point x="85" y="690" type="curve"/>
      <point x="74" y="670"/>
      <point x="63" y="652"/>
      <point x="52" y="632" type="curve"/>
      <point x="244" y="550" type="line"/>
      <point x="404" y="430" type="line" smooth="yes"/>
      <point x="409" y="427"/>
      <point x="413" y="428"/>
      <point x="415" y="433" type="curve"/>
      <point x="426" y="452"/>
      <point x="438" y="471"/>
    </contour>
  </outline>
</glyph>
<glyph name="plus" format="1">
  <advance width="600"/>
  <unicode hex="002B"/>
  <outline>
    <contour>
      <point x="71" y="340" type="line"/>
      <point x="71" y="317"/>
      <point x="71" y="294"/>
      <point x="71" y="271" type="curve" smooth="yes"/>
      <point x="71" y="268"/>
      <point x="72" y="265"/>
      <point x="74" y="263" type="curve" smooth="yes"/>
      <point x="76" y="261"/>
      <point x="79" y="260"/>
      <point x="82" y="260" type="curve"/>
      <point x="529" y="260" type="line"/>
      <point x="529" y="283"/>
      <point x="529" y="306"/>
      <point x="529" y="329" type="curve" smooth="yes"/>
      <point x="529" y="335"/>
      <point x="524" y="340"/>
      <point x="518" y="340" type="curve"/>
    </contour>
    <contour>
      <point x="341" y="71" type="curve"/>
      <point x="341" y="519" type="line" smooth="yes"/>
      <point x="341" y="522"/>
      <point x="340" y="525"/>
      <point x="338" y="527" type="curve" smooth="yes"/>
      <point x="336" y="529"/>
      <point x="333" y="530"/>
      <point x="330" y="530" type="curve" smooth="yes"/>
      <point x="307" y="530"/>
      <point x="285" y="530"/>
      <point x="259" y="530" type="curve"/>
      <point x="259" y="510"/>
      <point x="259" y="475"/>
      <point x="259" y="430" type="curve" smooth="yes"/>
      <point x="259" y="82" type="line" smooth="yes"/>
      <point x="259" y="76"/>
      <point x="264" y="71"/>
      <point x="270" y="71" type="curve" smooth="yes"/>
      <point x="295" y="71"/>
      <point x="316" y="71"/>
    </contour>
  </outline>
</glyph>
<glyph name="comma" format="1">
  <advance width="350"/>
  <unicode hex="002C"/>
  <outline>
    <contour>
      <point x="146" y="-190" type="curve" smooth="yes"/>
      <point x="151" y="-190"/>
      <point x="154" y="-189"/>
      <point x="156" y="-183" type="curve"/>
      <point x="197" y="-85"/>
      <point x="240" y="20"/>
      <point x="278" y="110" type="curve"/>
      <point x="281" y="118"/>
      <point x="278" y="123"/>
      <point x="270" y="123" type="curve" smooth="yes"/>
      <point x="224" y="123"/>
      <point x="197" y="123"/>
      <point x="143" y="123" type="curve"/>
      <point x="119" y="19"/>
      <point x="95" y="-86"/>
      <point x="71" y="-190" type="curve"/>
      <point x="91" y="-190"/>
      <point x="113" y="-190"/>
    </contour>
  </outline>
</glyph>
<glyph name="hyphen" format="1">
  <advance width="600"/>
  <unicode hex="002D"/>
  <outline>
    <contour>
      <point x="121" y="339" type="line"/>
      <point x="121" y="316"/>
      <point x="121" y="295"/>
      <point x="121" y="271" type="curve" smooth="yes"/>
      <point x="121" y="268"/>
      <point x="122" y="265"/>
      <point x="124" y="263" type="curve" smooth="yes"/>
      <point x="126" y="261"/>
      <point x="129" y="260"/>
      <point x="132" y="260" type="curve"/>
      <point x="479" y="260" type="line"/>
      <point x="479" y="284"/>
      <point x="479" y="305"/>
      <point x="479" y="328" type="curve" smooth="yes"/>
      <point x="479" y="334"/>
      <point x="474" y="339"/>
      <point x="468" y="339" type="curve"/>
    </contour>
  </outline>
</glyph>
<glyph name="period" format="1">
  <advance width="300"/>
  <unicode hex="002E"/>
  <outline>
    <contour>
      <point x="224" y="-7" type="curve"/>
      <point x="224" y="127" type="line" smooth="yes"/>
      <point x="224" y="133"/>
      <point x="219" y="138"/>
      <point x="213" y="138" type="curve" smooth="yes"/>
      <point x="173" y="138"/>
      <point x="116" y="138"/>
      <point x="76" y="138" type="curve"/>
      <point x="76" y="4" type="line" smooth="yes"/>
      <point x="76" y="-2"/>
      <point x="81" y="-7"/>
      <point x="87" y="-7" type="curve" smooth="yes"/>
      <point x="127" y="-7"/>
      <point x="184" y="-7"/>
    </contour>
  </outline>
</glyph>
<glyph name="zero" format="1">
  <advance width="600"/>
  <unicode hex="0030"/>
  <outline>
    <contour>
      <point x="300" y="720" type="curve" smooth="yes"/>
      <point x="162" y="720"/>
      <point x="67" y="617"/>
      <point x="67" y="445" type="curve" smooth="yes"/>
      <point x="67" y="255" type="line" smooth="yes"/>
      <point x="67" y="89"/>
      <point x="158" y="-20"/>
      <point x="300" y="-20" type="curve"/>
      <point x="312" y="-20"/>
      <point x="318" y="-10"/>
      <point x="300" y="56" type="curve"/>
      <point x="209" y="56"/>
      <point x="148" y="118"/>
      <point x="148" y="255" type="curve" smooth="yes"/>
      <point x="148" y="445" type="line" smooth="yes"/>
      <point x="148" y="583"/>
      <point x="209" y="644"/>
      <point x="300" y="644" type="curve" smooth="yes"/>
      <point x="339" y="644"/>
      <point x="372" y="644"/>
      <point x="401" y="644" type="curve"/>
      <point x="401" y="687"/>
      <point x="371" y="720"/>
    </contour>
    <contour>
      <point x="300" y="-20" type="curve" smooth="yes"/>
      <point x="438" y="-20"/>
      <point x="533" y="83"/>
      <point x="533" y="255" type="curve" smooth="yes"/>
      <point x="533" y="445" type="line" smooth="yes"/>
      <point x="533" y="611"/>
      <point x="442" y="720"/>
      <point x="300" y="720" type="curve"/>
      <point x="288" y="720"/>
      <point x="282" y="710"/>
      <point x="300" y="644" type="curve"/>
      <point x="390" y="644"/>
      <point x="452" y="583"/>
      <point x="452" y="445" type="curve" smooth="yes"/>
      <point x="452" y="255" type="line" smooth="yes"/>
      <point x="452" y="119"/>
      <point x="391" y="56"/>
      <point x="296" y="56" type="curve" smooth="yes"/>
      <point x="252" y="56"/>
      <point x="228" y="56"/>
      <point x="199" y="56" type="curve"/>
      <point x="199" y="13"/>
      <point x="229" y="-20"/>
    </contour>
  </outline>
</glyph>
<glyph name="one" format="1">
  <advance width="600"/>
  <unicode hex="0031"/>
  <outline>
    <contour>
      <point x="376" y="19" type="curve"/>
      <point x="376" y="247"/>
      <point x="376" y="474"/>
      <point x="376" y="699" type="curve" smooth="yes"/>
      <point x="376" y="706"/>
      <point x="371" y="710"/>
      <point x="365" y="710" type="curve" smooth="yes"/>
      <point x="294" y="710" type="line"/>
      <point x="294" y="493"/>
      <point x="294" y="271"/>
      <point x="294" y="52" type="curve" smooth="yes"/>
      <point x="294" y="26"/>
      <point x="327" y="19"/>
    </contour>
    <contour>
      <point x="87" y="77" type="line"/>
      <point x="87" y="55"/>
      <point x="87" y="35"/>
      <point x="87" y="11" type="curve" smooth="yes"/>
      <point x="87" y="8"/>
      <point x="88" y="5"/>
      <point x="90" y="3" type="curve" smooth="yes"/>
      <point x="92" y="1"/>
      <point x="95" y="0"/>
      <point x="98" y="0" type="curve" smooth="yes"/>
      <point x="543" y="0" type="line"/>
      <point x="543" y="20"/>
      <point x="543" y="42"/>
      <point x="543" y="66" type="curve" smooth="yes"/>
      <point x="543" y="72"/>
      <point x="539" y="77"/>
      <point x="532" y="77" type="curve" smooth="yes"/>
    </contour>
    <contour>
      <point x="105" y="463" type="curve" smooth="yes"/>
      <point x="115" y="463"/>
      <point x="120" y="465"/>
      <point x="314" y="635" type="curve" smooth="yes"/>
      <point x="333" y="650"/>
      <point x="349" y="664"/>
      <point x="349" y="671" type="curve" smooth="yes"/>
      <point x="349" y="689"/>
      <point x="340" y="710"/>
      <point x="301" y="710" type="curve"/>
      <point x="283" y="710" type="line"/>
      <point x="252" y="683"/>
      <point x="222" y="656"/>
      <point x="192" y="630" type="curve"/>
      <point x="161" y="603"/>
      <point x="130" y="576"/>
      <point x="99" y="548" type="curve"/>
      <point x="99" y="472" type="line" smooth="yes"/>
      <point x="99" y="465"/>
      <point x="101" y="463"/>
    </contour>
  </outline>
</glyph>
<glyph name="two" format="1">
  <advance width="600"/>
  <unicode hex="0032"/>
  <outline>
    <contour>
      <point x="440" y="613" type="curve"/>
      <point x="440" y="580"/>
      <point x="440" y="568"/>
      <point x="440" y="530" type="curve" smooth="yes"/>
      <point x="440" y="476"/>
      <point x="415" y="446"/>
      <point x="285" y="359" type="curve" smooth="yes"/>
      <point x="131" y="255"/>
      <point x="67" y="185"/>
      <point x="67" y="61" type="curve" smooth="yes"/>
      <point x="67" y="50"/>
      <point x="85" y="47"/>
      <point x="149" y="47" type="curve"/>
      <point x="149" y="155"/>
      <point x="175" y="188"/>
      <point x="330" y="295" type="curve" smooth="yes"/>
      <point x="462" y="384"/>
      <point x="521" y="436"/>
      <point x="521" y="525" type="curve" smooth="yes"/>
      <point x="521" y="556" type="line" smooth="yes"/>
      <point x="521" y="585"/>
      <point x="499" y="613"/>
    </contour>
    <contour>
      <point x="536" y="0" type="line"/>
      <point x="536" y="20"/>
      <point x="536" y="42"/>
      <point x="536" y="66" type="curve" smooth="yes"/>
      <point x="536" y="72"/>
      <point x="532" y="77"/>
      <point x="525" y="77" type="curve" smooth="yes"/>
      <point x="135" y="77" type="line" smooth="yes"/>
      <point x="112" y="77"/>
      <point x="89" y="74"/>
      <point x="67" y="61" type="curve"/>
      <point x="67" y="45"/>
      <point x="67" y="35"/>
      <point x="67" y="11" type="curve" smooth="yes"/>
      <point x="67" y="4"/>
      <point x="71" y="0"/>
      <point x="78" y="0" type="curve" smooth="yes"/>
    </contour>
    <contour>
      <point x="300" y="720" type="curve" smooth="yes"/>
      <point x="200" y="720"/>
      <point x="121" y="687"/>
      <point x="88" y="654" type="curve" smooth="yes"/>
      <point x="86" y="651"/>
      <point x="85" y="649"/>
      <point x="85" y="645" type="curve" smooth="yes"/>
      <point x="85" y="611"/>
      <point x="85" y="590"/>
      <point x="85" y="570" type="curve"/>
      <point x="99" y="570" type="line"/>
      <point x="159" y="621"/>
      <point x="217" y="641"/>
      <point x="299" y="641" type="curve" smooth="yes"/>
      <point x="391" y="641"/>
      <point x="440" y="616"/>
      <point x="440" y="548" type="curve" smooth="yes"/>
      <point x="440" y="521"/>
      <point x="440" y="503"/>
      <point x="440" y="479" type="curve"/>
      <point x="493" y="480"/>
      <point x="521" y="512"/>
      <point x="521" y="556" type="curve" smooth="yes"/>
      <point x="521" y="656"/>
      <point x="437" y="720"/>
    </contour>
  </outline>
</glyph>
<glyph name="three" format="1">
  <advance width="600"/>
  <unicode hex="0033"/>
  <outline>
    <contour>
      <point x="285" y="641" type="curve" smooth="yes"/>
      <point x="392" y="641"/>
      <point x="442" y="593"/>
      <point x="442" y="530" type="curve" smooth="yes"/>
      <point x="442" y="507"/>
      <point x="442" y="485"/>
      <point x="442" y="464" type="curve"/>
      <point x="485" y="464"/>
      <point x="522" y="490"/>
      <point x="522" y="531" type="curve" smooth="yes"/>
      <point x="522" y="555" type="line" smooth="yes"/>
      <point x="522" y="643"/>
      <point x="437" y="720"/>
      <point x="287" y="720" type="curve" smooth="yes"/>
      <point x="193" y="720"/>
      <point x="113" y="693"/>
      <point x="85" y="665" type="curve" smooth="yes"/>
      <point x="83" y="663"/>
      <point x="83" y="661"/>
      <point x="83" y="657" type="curve" smooth="yes"/>
      <point x="83" y="626"/>
      <point x="83" y="601"/>
      <point x="83" y="585" type="curve"/>
      <point x="96" y="585" type="line"/>
      <point x="155" y="625"/>
      <point x="203" y="641"/>
    </contour>
    <contour>
      <point x="177" y="339" type="curve" smooth="yes"/>
      <point x="391" y="339"/>
      <point x="522" y="405"/>
      <point x="522" y="531" type="curve" smooth="yes"/>
      <point x="522" y="561"/>
      <point x="482" y="589"/>
      <point x="439" y="589" type="curve"/>
      <point x="439" y="564"/>
      <point x="439" y="542"/>
      <point x="439" y="521" type="curve" smooth="yes"/>
      <point x="439" y="448"/>
      <point x="368" y="394"/>
      <point x="166" y="394" type="curve"/>
      <point x="166" y="381"/>
      <point x="166" y="363"/>
      <point x="166" y="350" type="curve" smooth="yes"/>
      <point x="166" y="344"/>
      <point x="170" y="339"/>
    </contour>
    <contour>
      <point x="177" y="318" type="curve" smooth="yes"/>
      <point x="357" y="318"/>
      <point x="448" y="277"/>
      <point x="448" y="183" type="curve" smooth="yes"/>
      <point x="448" y="161"/>
      <point x="448" y="144"/>
      <point x="448" y="117" type="curve"/>
      <point x="494" y="117"/>
      <point x="532" y="147"/>
      <point x="532" y="187" type="curve" smooth="yes"/>
      <point x="532" y="307"/>
      <point x="408" y="374"/>
      <point x="166" y="374" type="curve"/>
      <point x="166" y="360"/>
      <point x="166" y="344"/>
      <point x="166" y="329" type="curve" smooth="yes"/>
      <point x="166" y="322"/>
      <point x="170" y="318"/>
    </contour>
    <contour>
      <point x="278" y="59" type="curve" smooth="yes"/>
      <point x="193" y="59"/>
      <point x="145" y="75"/>
      <point x="83" y="119" type="curve"/>
      <point x="69" y="119" type="line"/>
      <point x="69" y="100"/>
      <point x="69" y="75"/>
      <point x="69" y="43" type="curve" smooth="yes"/>
      <point x="69" y="39"/>
      <point x="70" y="37"/>
      <point x="72" y="35" type="curve" smooth="yes"/>
      <point x="101" y="6"/>
      <point x="183" y="-20"/>
      <point x="280" y="-20" type="curve" smooth="yes"/>
      <point x="442" y="-20"/>
      <point x="532" y="61"/>
      <point x="532" y="161" type="curve" smooth="yes"/>
      <point x="532" y="187" type="line" smooth="yes"/>
      <point x="532" y="221"/>
      <point x="491" y="250"/>
      <point x="451" y="250" type="curve"/>
      <point x="451" y="222"/>
      <point x="451" y="202"/>
      <point x="451" y="181" type="curve" smooth="yes"/>
      <point x="451" y="113"/>
      <point x="396" y="59"/>
    </contour>
  </outline>
</glyph>
<glyph name="four" format="1">
  <advance width="600"/>
  <unicode hex="0034"/>
  <outline>
    <contour>
      <point x="123" y="197" type="curve"/>
      <point x="231" y="361"/>
      <point x="339" y="525"/>
      <point x="447" y="689" type="curve"/>
      <point x="447" y="700" type="line"/>
      <point x="406" y="700"/>
      <point x="377" y="700"/>
      <point x="367" y="700" type="curve" smooth="yes"/>
      <point x="361" y="700"/>
      <point x="354" y="700"/>
      <point x="349" y="691" type="curve" smooth="yes"/>
      <point x="204" y="467"/>
      <point x="50" y="227"/>
      <point x="50" y="223" type="curve" smooth="yes"/>
      <point x="50" y="204"/>
      <point x="95" y="197"/>
    </contour>
    <contour>
      <point x="560" y="153" type="line"/>
      <point x="560" y="175"/>
      <point x="560" y="196"/>
      <point x="560" y="218" type="curve" smooth="yes"/>
      <point x="560" y="224"/>
      <point x="555" y="229"/>
      <point x="549" y="229" type="curve" smooth="yes"/>
      <point x="395" y="229" type="line"/>
      <point x="313" y="229"/>
      <point x="177" y="226"/>
      <point x="50" y="223" type="curve"/>
      <point x="50" y="164" type="line" smooth="yes"/>
      <point x="50" y="161"/>
      <point x="51" y="158"/>
      <point x="53" y="156" type="curve" smooth="yes"/>
      <point x="55" y="154"/>
      <point x="58" y="153"/>
      <point x="61" y="153" type="curve" smooth="yes"/>
    </contour>
    <contour>
      <point x="479" y="0" type="curve"/>
      <point x="479" y="31"/>
      <point x="479" y="65"/>
      <point x="479" y="99" type="curve" smooth="yes"/>
      <point x="479" y="368" type="line" smooth="yes"/>
      <point x="479" y="375"/>
      <point x="475" y="379"/>
      <point x="468" y="379" type="curve" smooth="yes"/>
      <point x="408" y="379" type="line"/>
      <point x="405" y="326"/>
      <point x="402" y="274"/>
      <point x="398" y="220" type="curve"/>
      <point x="398" y="11" type="line" smooth="yes"/>
      <point x="398" y="5"/>
      <point x="403" y="0"/>
      <point x="409" y="0" type="curve" smooth="yes"/>
      <point x="432" y="0"/>
      <point x="456" y="0"/>
    </contour>
  </outline>
</glyph>
<glyph name="five" format="1">
  <advance width="600"/>
  <unicode hex="0035"/>
  <outline>
    <contour>
      <point x="160" y="700" type="line"/>
      <point x="160" y="678"/>
      <point x="160" y="657"/>
      <point x="160" y="635" type="curve" smooth="yes"/>
      <point x="160" y="632"/>
      <point x="161" y="629"/>
      <point x="163" y="627" type="curve" smooth="yes"/>
      <point x="165" y="625"/>
      <point x="168" y="624"/>
      <point x="171" y="624" type="curve" smooth="yes"/>
      <point x="506" y="624" type="line"/>
      <point x="506" y="641"/>
      <point x="506" y="664"/>
      <point x="506" y="689" type="curve" smooth="yes"/>
      <point x="506" y="695"/>
      <point x="501" y="700"/>
      <point x="495" y="700" type="curve" smooth="yes"/>
    </contour>
    <contour>
      <point x="162" y="327" type="line"/>
      <point x="215" y="677" type="line" smooth="yes"/>
      <point x="218" y="692"/>
      <point x="206" y="700"/>
      <point x="174" y="700" type="curve" smooth="yes"/>
      <point x="138" y="700" type="line"/>
      <point x="84" y="343" type="line" smooth="yes"/>
      <point x="82" y="332"/>
      <point x="86" y="327"/>
      <point x="94" y="327" type="curve" smooth="yes"/>
    </contour>
    <contour>
      <point x="135" y="377" type="curve"/>
      <point x="126" y="352"/>
      <point x="138" y="327"/>
      <point x="162" y="327" type="curve"/>
      <point x="200" y="344"/>
      <point x="242" y="354"/>
      <point x="293" y="354" type="curve" smooth="yes"/>
      <point x="411" y="354"/>
      <point x="451" y="310"/>
      <point x="451" y="229" type="curve" smooth="yes"/>
      <point x="451" y="215"/>
      <point x="451" y="194"/>
      <point x="451" y="178" type="curve"/>
      <point x="481" y="178"/>
      <point x="532" y="210"/>
      <point x="532" y="241" type="curve" smooth="yes"/>
      <point x="532" y="357"/>
      <point x="449" y="426"/>
      <point x="315" y="426" type="curve" smooth="yes"/>
      <point x="238" y="426"/>
      <point x="195" y="410"/>
    </contour>
    <contour>
      <point x="286" y="-20" type="curve" smooth="yes"/>
      <point x="440" y="-20"/>
      <point x="532" y="69"/>
      <point x="532" y="188" type="curve" smooth="yes"/>
      <point x="532" y="241" type="line" smooth="yes"/>
      <point x="532" y="276"/>
      <point x="491" y="317"/>
      <point x="451" y="310" type="curve"/>
      <point x="451" y="285"/>
      <point x="451" y="262"/>
      <point x="451" y="230" type="curve" smooth="yes"/>
      <point x="451" y="197" type="line" smooth="yes"/>
      <point x="451" y="112"/>
      <point x="394" y="59"/>
      <point x="284" y="59" type="curve" smooth="yes"/>
      <point x="198" y="59"/>
      <point x="149" y="75"/>
      <point x="90" y="119" type="curve"/>
      <point x="76" y="119" type="line"/>
      <point x="76" y="100"/>
      <point x="76" y="75"/>
      <point x="76" y="43" type="curve" smooth="yes"/>
      <point x="76" y="39"/>
      <point x="76" y="37"/>
      <point x="78" y="35" type="curve" smooth="yes"/>
      <point x="109" y="4"/>
      <point x="192" y="-20"/>
    </contour>
  </outline>
</glyph>
<glyph name="six" format="1">
  <advance width="600"/>
  <unicode hex="0036"/>
  <outline>
    <contour>
      <point x="215" y="54" type="curve"/>
      <point x="215" y="3"/>
      <point x="242" y="-20"/>
      <point x="307" y="-20" type="curve"/>
      <point x="443" y="-20"/>
      <point x="536" y="66"/>
      <point x="536" y="185" type="curve" smooth="yes"/>
      <point x="536" y="247" type="line" smooth="yes"/>
      <point x="536" y="287"/>
      <point x="499" y="315"/>
      <point x="456" y="315" type="curve"/>
      <point x="456" y="291"/>
      <point x="456" y="269"/>
      <point x="456" y="240" type="curve" smooth="yes"/>
      <point x="456" y="191" type="line" smooth="yes"/>
      <point x="456" y="108"/>
      <point x="399" y="54"/>
      <point x="301" y="54" type="curve" smooth="yes"/>
      <point x="256" y="54"/>
      <point x="239" y="54"/>
    </contour>
    <contour>
      <point x="242" y="641" type="curve"/>
      <point x="270" y="641"/>
      <point x="293" y="641"/>
      <point x="332" y="641" type="curve" smooth="yes"/>
      <point x="403" y="641"/>
      <point x="441" y="627"/>
      <point x="493" y="592" type="curve"/>
      <point x="507" y="592" type="line"/>
      <point x="507" y="610"/>
      <point x="507" y="634"/>
      <point x="507" y="666" type="curve" smooth="yes"/>
      <point x="507" y="669"/>
      <point x="506" y="671"/>
      <point x="504" y="673" type="curve" smooth="yes"/>
      <point x="480" y="697"/>
      <point x="416" y="720"/>
      <point x="339" y="720" type="curve" smooth="yes"/>
      <point x="264" y="720"/>
      <point x="242" y="681"/>
    </contour>
    <contour>
      <point x="67" y="418" type="curve" smooth="yes"/>
      <point x="67" y="271" type="line" smooth="yes"/>
      <point x="67" y="72"/>
      <point x="144" y="-20"/>
      <point x="307" y="-20" type="curve" smooth="yes"/>
      <point x="317" y="-20"/>
      <point x="322" y="-2"/>
      <point x="301" y="54" type="curve"/>
      <point x="195" y="54"/>
      <point x="150" y="115"/>
      <point x="150" y="270" type="curve" smooth="yes"/>
      <point x="150" y="421" type="line" smooth="yes"/>
      <point x="150" y="570"/>
      <point x="210" y="641"/>
      <point x="332" y="641" type="curve"/>
      <point x="357" y="707"/>
      <point x="355" y="720"/>
      <point x="339" y="720" type="curve" smooth="yes"/>
      <point x="188" y="720"/>
      <point x="67" y="630"/>
    </contour>
    <contour>
      <point x="326" y="429" type="curve" smooth="yes"/>
      <point x="250" y="429"/>
      <point x="184" y="401"/>
      <point x="150" y="367" type="curve" smooth="yes"/>
      <point x="142" y="359"/>
      <point x="137" y="339"/>
      <point x="137" y="290" type="curve"/>
      <point x="190" y="335"/>
      <point x="244" y="355"/>
      <point x="309" y="355" type="curve" smooth="yes"/>
      <point x="408" y="355"/>
      <point x="456" y="316"/>
      <point x="456" y="240" type="curve" smooth="yes"/>
      <point x="456" y="230"/>
      <point x="456" y="215"/>
      <point x="456" y="208" type="curve"/>
      <point x="521" y="210"/>
      <point x="536" y="231"/>
      <point x="536" y="247" type="curve" smooth="yes"/>
      <point x="536" y="363"/>
      <point x="455" y="429"/>
    </contour>
  </outline>
</glyph>
<glyph name="seven" format="1">
  <advance width="600"/>
  <unicode hex="0037"/>
  <outline>
    <contour>
      <point x="477" y="623" type="line" smooth="yes"/>
      <point x="500" y="623"/>
      <point x="521" y="625"/>
      <point x="543" y="628" type="curve"/>
      <point x="543" y="689" type="line"/>
      <point x="543" y="695"/>
      <point x="538" y="700"/>
      <point x="532" y="700" type="curve"/>
      <point x="71" y="700" type="line"/>
      <point x="71" y="663" type="line" smooth="yes"/>
      <point x="71" y="636"/>
      <point x="82" y="623"/>
      <point x="98" y="623" type="curve" smooth="yes"/>
    </contour>
    <contour>
      <point x="293" y="0" type="line"/>
      <point x="449" y="386"/>
      <point x="543" y="619"/>
      <point x="543" y="628" type="curve" smooth="yes"/>
      <point x="543" y="653"/>
      <point x="520" y="657"/>
      <point x="469" y="656" type="curve"/>
      <point x="316" y="281"/>
      <point x="210" y="18"/>
      <point x="210" y="11" type="curve" smooth="yes"/>
      <point x="210" y="4"/>
      <point x="214" y="0"/>
      <point x="221" y="0" type="curve" smooth="yes"/>
    </contour>
    <contour>
      <point x="152" y="491" type="curve"/>
      <point x="152" y="545"/>
      <point x="152" y="618"/>
      <point x="152" y="673" type="curve"/>
      <point x="152" y="693"/>
      <point x="132" y="700"/>
      <point x="82" y="700" type="curve" smooth="yes"/>
      <point x="71" y="700" type="line"/>
      <point x="71" y="641"/>
      <point x="71" y="561"/>
      <point x="71" y="502" type="curve"/>
      <point x="71" y="496"/>
      <point x="76" y="491"/>
      <point x="82" y="491" type="curve" smooth="yes"/>
      <point x="105" y="491"/>
      <point x="129" y="491"/>
    </contour>
  </outline>
</glyph>
<glyph name="eight" format="1">
  <advance width="600"/>
  <unicode hex="0038"/>
  <outline>
    <contour>
      <point x="368" y="358" type="curve" smooth="yes"/>
      <point x="269" y="394" type="line" smooth="yes"/>
      <point x="189" y="423"/>
      <point x="154" y="460"/>
      <point x="154" y="514" type="curve" smooth="yes"/>
      <point x="154" y="534"/>
      <point x="154" y="551"/>
      <point x="154" y="577" type="curve"/>
      <point x="113" y="577"/>
      <point x="75" y="549"/>
      <point x="75" y="511" type="curve" smooth="yes"/>
      <point x="75" y="427"/>
      <point x="129" y="370"/>
      <point x="251" y="324" type="curve" smooth="yes"/>
      <point x="348" y="288" type="line" smooth="yes"/>
      <point x="430" y="257"/>
      <point x="462" y="227"/>
      <point x="462" y="175" type="curve" smooth="yes"/>
      <point x="462" y="134"/>
      <point x="461" y="119"/>
      <point x="460" y="106" type="curve"/>
      <point x="499" y="110"/>
      <point x="540" y="149"/>
      <point x="540" y="184" type="curve"/>
      <point x="540" y="261"/>
      <point x="484" y="315"/>
    </contour>
    <contour>
      <point x="300" y="-20" type="curve" smooth="yes"/>
      <point x="446" y="-20"/>
      <point x="540" y="53"/>
      <point x="540" y="154" type="curve" smooth="yes"/>
      <point x="540" y="184" type="line" smooth="yes"/>
      <point x="540" y="212"/>
      <point x="507" y="230"/>
      <point x="462" y="233" type="curve"/>
      <point x="462" y="224"/>
      <point x="462" y="202"/>
      <point x="462" y="164" type="curve" smooth="yes"/>
      <point x="462" y="96"/>
      <point x="404" y="55"/>
      <point x="300" y="55" type="curve" smooth="yes"/>
      <point x="253" y="55"/>
      <point x="227" y="55"/>
      <point x="204" y="55" type="curve"/>
      <point x="204" y="17"/>
      <point x="249" y="-20"/>
    </contour>
    <contour>
      <point x="302" y="720" type="curve" smooth="yes"/>
      <point x="168" y="720"/>
      <point x="75" y="642"/>
      <point x="75" y="538" type="curve" smooth="yes"/>
      <point x="75" y="511" type="line" smooth="yes"/>
      <point x="75" y="474"/>
      <point x="100" y="452"/>
      <point x="154" y="452" type="curve"/>
      <point x="154" y="475"/>
      <point x="154" y="496"/>
      <point x="154" y="527" type="curve" smooth="yes"/>
      <point x="154" y="593"/>
      <point x="213" y="645"/>
      <point x="299" y="645" type="curve" smooth="yes"/>
      <point x="345" y="645"/>
      <point x="375" y="645"/>
      <point x="399" y="645" type="curve"/>
      <point x="399" y="690"/>
      <point x="358" y="720"/>
    </contour>
    <contour>
      <point x="348" y="341" type="curve" smooth="yes"/>
      <point x="430" y="341"/>
      <point x="526" y="431"/>
      <point x="526" y="514" type="curve" smooth="yes"/>
      <point x="526" y="541" type="line" smooth="yes"/>
      <point x="526" y="646"/>
      <point x="437" y="720"/>
      <point x="302" y="720" type="curve" smooth="yes"/>
      <point x="283" y="720"/>
      <point x="281" y="708"/>
      <point x="299" y="645" type="curve"/>
      <point x="401" y="645"/>
      <point x="447" y="606"/>
      <point x="447" y="531" type="curve" smooth="yes"/>
      <point x="447" y="519" type="line" smooth="yes"/>
      <point x="447" y="457"/>
      <point x="396" y="400"/>
      <point x="290" y="366" type="curve"/>
      <point x="301" y="351"/>
      <point x="323" y="341"/>
    </contour>
    <contour>
      <point x="300" y="55" type="curve"/>
      <point x="200" y="55"/>
      <point x="138" y="98"/>
      <point x="138" y="165" type="curve" smooth="yes"/>
      <point x="138" y="177" type="line" smooth="yes"/>
      <point x="138" y="242"/>
      <point x="197" y="301"/>
      <point x="304" y="320" type="curve"/>
      <point x="292" y="338"/>
      <point x="275" y="351"/>
      <point x="248" y="351" type="curve" smooth="yes"/>
      <point x="154" y="351"/>
      <point x="60" y="273"/>
      <point x="60" y="182" type="curve" smooth="yes"/>
      <point x="60" y="152" type="line" smooth="yes"/>
      <point x="60" y="50"/>
      <point x="158" y="-20"/>
      <point x="300" y="-20" type="curve" smooth="yes"/>
      <point x="317" y="-20"/>
      <point x="325" y="3"/>
    </contour>
  </outline>
</glyph>
<glyph name="nine" format="1">
  <advance width="600"/>
  <unicode hex="0039"/>
  <outline>
    <contour>
      <point x="387" y="646" type="curve"/>
      <point x="387" y="691"/>
      <point x="364" y="720"/>
      <point x="293" y="720" type="curve"/>
      <point x="160" y="720"/>
      <point x="67" y="635"/>
      <point x="67" y="515" type="curve" smooth="yes"/>
      <point x="67" y="443" type="line" smooth="yes"/>
      <point x="67" y="408"/>
      <point x="102" y="382"/>
      <point x="147" y="382" type="curve"/>
      <point x="147" y="404"/>
      <point x="147" y="422"/>
      <point x="147" y="449" type="curve" smooth="yes"/>
      <point x="147" y="509" type="line" smooth="yes"/>
      <point x="147" y="593"/>
      <point x="204" y="646"/>
      <point x="300" y="646" type="curve" smooth="yes"/>
      <point x="345" y="646"/>
      <point x="362" y="646"/>
    </contour>
    <contour>
      <point x="360" y="59" type="curve"/>
      <point x="332" y="59"/>
      <point x="310" y="59"/>
      <point x="269" y="59" type="curve" smooth="yes"/>
      <point x="199" y="59"/>
      <point x="160" y="71"/>
      <point x="103" y="108" type="curve"/>
      <point x="89" y="108" type="line"/>
      <point x="89" y="90"/>
      <point x="89" y="66"/>
      <point x="89" y="34" type="curve" smooth="yes"/>
      <point x="89" y="30"/>
      <point x="90" y="29"/>
      <point x="92" y="27" type="curve" smooth="yes"/>
      <point x="118" y="1"/>
      <point x="191" y="-20"/>
      <point x="268" y="-20" type="curve" smooth="yes"/>
      <point x="331" y="-20"/>
      <point x="360" y="9"/>
    </contour>
    <contour>
      <point x="536" y="278" type="curve" smooth="yes"/>
      <point x="536" y="436" type="line" smooth="yes"/>
      <point x="536" y="629"/>
      <point x="459" y="720"/>
      <point x="293" y="720" type="curve" smooth="yes"/>
      <point x="281" y="720"/>
      <point x="281" y="692"/>
      <point x="300" y="646" type="curve"/>
      <point x="408" y="646"/>
      <point x="453" y="587"/>
      <point x="453" y="437" type="curve" smooth="yes"/>
      <point x="453" y="276" type="line" smooth="yes"/>
      <point x="453" y="131"/>
      <point x="393" y="59"/>
      <point x="269" y="59" type="curve"/>
      <point x="252" y="14"/>
      <point x="252" y="-20"/>
      <point x="268" y="-20" type="curve" smooth="yes"/>
      <point x="440" y="-20"/>
      <point x="536" y="86"/>
    </contour>
    <contour>
      <point x="277" y="261" type="curve" smooth="yes"/>
      <point x="351" y="261"/>
      <point x="418" y="288"/>
      <point x="453" y="323" type="curve" smooth="yes"/>
      <point x="462" y="332"/>
      <point x="466" y="353"/>
      <point x="466" y="400" type="curve"/>
      <point x="412" y="355"/>
      <point x="357" y="335"/>
      <point x="290" y="335" type="curve" smooth="yes"/>
      <point x="193" y="335"/>
      <point x="147" y="374"/>
      <point x="147" y="449" type="curve" smooth="yes"/>
      <point x="147" y="460"/>
      <point x="147" y="478"/>
      <point x="147" y="485" type="curve"/>
      <point x="94" y="483"/>
      <point x="67" y="466"/>
      <point x="67" y="443" type="curve" smooth="yes"/>
      <point x="67" y="328"/>
      <point x="147" y="261"/>
    </contour>
  </outline>
</glyph>
<glyph name="colon" format="1">
  <advance width="300"/>
  <unicode hex="003A"/>
  <outline>
    <contour>
      <point x="225" y="392" type="curve"/>
      <point x="225" y="526" type="line" smooth="yes"/>
      <point x="225" y="532"/>
      <point x="220" y="537"/>
      <point x="214" y="537" type="curve" smooth="yes"/>
      <point x="173" y="537"/>
      <point x="117" y="537"/>
      <point x="77" y="537" type="curve"/>
      <point x="77" y="403" type="line" smooth="yes"/>
      <point x="77" y="397"/>
      <point x="82" y="392"/>
      <point x="88" y="392" type="curve" smooth="yes"/>
      <point x="128" y="392"/>
      <point x="184" y="392"/>
    </contour>
    <contour>
      <point x="223" y="-7" type="curve"/>
      <point x="223" y="127" type="line" smooth="yes"/>
      <point x="223" y="133"/>
      <point x="218" y="138"/>
      <point x="212" y="138" type="curve" smooth="yes"/>
      <point x="172" y="138"/>
      <point x="116" y="138"/>
      <point x="75" y="138" type="curve"/>
      <point x="75" y="4" type="line" smooth="yes"/>
      <point x="75" y="-2"/>
      <point x="80" y="-7"/>
      <point x="86" y="-7" type="curve" smooth="yes"/>
      <point x="127" y="-7"/>
      <point x="183" y="-7"/>
    </contour>
  </outline>
</glyph>
<glyph name="semicolon" format="1">
  <advance width="350"/>
  <unicode hex="003B"/>
  <outline>
    <contour>
      <point x="249" y="392" type="curve"/>
      <point x="249" y="526" type="line" smooth="yes"/>
      <point x="249" y="532"/>
      <point x="244" y="537"/>
      <point x="238" y="537" type="curve" smooth="yes"/>
      <point x="198" y="537"/>
      <point x="141" y="537"/>
      <point x="101" y="537" type="curve"/>
      <point x="101" y="403" type="line" smooth="yes"/>
      <point x="101" y="397"/>
      <point x="106" y="392"/>
      <point x="112" y="392" type="curve" smooth="yes"/>
      <point x="152" y="392"/>
      <point x="209" y="392"/>
    </contour>
    <contour>
      <point x="122" y="-206" type="curve" smooth="yes"/>
      <point x="127" y="-206"/>
      <point x="131" y="-205"/>
      <point x="133" y="-199" type="curve"/>
      <point x="174" y="-101"/>
      <point x="216" y="4"/>
      <point x="255" y="95" type="curve"/>
      <point x="258" y="103"/>
      <point x="255" y="108"/>
      <point x="247" y="108" type="curve" smooth="yes"/>
      <point x="200" y="108"/>
      <point x="173" y="108"/>
      <point x="119" y="108" type="curve"/>
      <point x="95" y="3"/>
      <point x="71" y="-101"/>
      <point x="47" y="-206" type="curve"/>
      <point x="67" y="-206"/>
      <point x="89" y="-206"/>
    </contour>
  </outline>
</glyph>
<glyph name="greater" format="1">
  <advance width="566"/>
  <unicode hex="003E"/>
  <outline>
    <contour>
      <point x="80" y="107" type="curve"/>
      <point x="80" y="34" type="line"/>
      <point x="80" y="29"/>
      <point x="82" y="26"/>
      <point x="87" y="26" type="curve" smooth="yes"/>
      <point x="91" y="26"/>
      <point x="94" y="27"/>
      <point x="108" y="33" type="curve" smooth="yes"/>
      <point x="150" y="55"/>
      <point x="381" y="172"/>
      <point x="520" y="242" type="curve"/>
      <point x="520" y="342" type="line"/>
      <point x="511" y="327"/>
      <point x="501" y="319"/>
      <point x="471" y="305" type="curve"/>
      <point x="341" y="239"/>
      <point x="210" y="173"/>
    </contour>
    <contour>
      <point x="80" y="584" type="curve"/>
      <point x="80" y="558"/>
      <point x="80" y="534"/>
      <point x="80" y="508" type="curve" smooth="yes"/>
      <point x="80" y="499"/>
      <point x="81" y="496"/>
      <point x="90" y="492" type="curve" smooth="yes"/>
      <point x="203" y="434"/>
      <point x="317" y="376"/>
      <point x="433" y="318" type="curve" smooth="yes"/>
      <point x="439" y="314"/>
      <point x="440" y="311"/>
      <point x="440" y="305" type="curve" smooth="yes"/>
      <point x="440" y="288"/>
      <point x="440" y="268"/>
      <point x="440" y="244" type="curve"/>
      <point x="499" y="247"/>
      <point x="520" y="300"/>
      <point x="520" y="336" type="curve" smooth="yes"/>
      <point x="520" y="351" type="line" smooth="yes"/>
      <point x="520" y="360"/>
      <point x="517" y="365"/>
      <point x="508" y="369" type="curve" smooth="yes"/>
      <point x="366" y="440"/>
      <point x="223" y="512"/>
    </contour>
  </outline>
</glyph>
<glyph name="at" format="1">
  <advance width="600"/>
  <unicode hex="0040"/>
  <outline>
    <contour>
      <point x="466" y="509" type="curve" smooth="yes"/>
      <point x="453" y="525"/>
      <point x="415" y="540"/>
      <point x="372" y="540" type="curve" smooth="yes"/>
      <point x="335" y="540"/>
      <point x="306" y="530"/>
      <point x="284" y="509" type="curve" smooth="yes"/>
      <point x="268" y="493"/>
      <point x="270" y="477"/>
      <point x="322" y="403" type="curve"/>
      <point x="322" y="457"/>
      <point x="349" y="474"/>
      <point x="393" y="474" type="curve" smooth="yes"/>
      <point x="420" y="474"/>
      <point x="443" y="470"/>
      <point x="471" y="459" type="curve"/>
      <point x="479" y="483"/>
      <point x="476" y="498"/>
    </contour>
    <contour>
      <point x="480" y="168" type="curve"/>
      <point x="446" y="121"/>
      <point x="402" y="96"/>
      <point x="365" y="96" type="curve" smooth="yes"/>
      <point x="339" y="96"/>
      <point x="322" y="115"/>
      <point x="322" y="143" type="curve" smooth="yes"/>
      <point x="322" y="403" type="line" smooth="yes"/>
      <point x="322" y="445"/>
      <point x="330" y="469"/>
      <point x="359" y="503" type="curve"/>
      <point x="316" y="524"/>
      <point x="302" y="526"/>
      <point x="284" y="509" type="curve" smooth="yes"/>
      <point x="259" y="483"/>
      <point x="249" y="450"/>
      <point x="249" y="404" type="curve" smooth="yes"/>
      <point x="249" y="134" type="line" smooth="yes"/>
      <point x="249" y="66"/>
      <point x="287" y="24"/>
      <point x="347" y="24" type="curve" smooth="yes"/>
      <point x="394" y="24"/>
      <point x="428" y="43"/>
      <point x="476" y="98" type="curve" smooth="yes"/>
      <point x="482" y="106"/>
      <point x="482" y="113"/>
    </contour>
    <contour>
      <point x="526" y="34" type="line"/>
      <point x="526" y="69"/>
      <point x="526" y="104"/>
      <point x="526" y="139" type="curve"/>
      <point x="526" y="544" type="line" smooth="yes"/>
      <point x="526" y="653"/>
      <point x="470" y="760"/>
      <point x="306" y="760" type="curve" smooth="yes"/>
      <point x="294" y="760"/>
      <point x="290" y="750"/>
      <point x="309" y="697" type="curve"/>
      <point x="387" y="697"/>
      <point x="453" y="666"/>
      <point x="453" y="539" type="curve" smooth="yes"/>
      <point x="453" y="110" type="line" smooth="yes"/>
      <point x="453" y="105"/>
      <point x="485" y="34"/>
      <point x="491" y="34" type="curve" smooth="yes"/>
    </contour>
    <contour>
      <point x="74" y="498" type="curve" smooth="yes"/>
      <point x="74" y="94" type="line" smooth="yes"/>
      <point x="74" y="-11"/>
      <point x="91" y="-74"/>
      <point x="143" y="-126" type="curve" smooth="yes"/>
      <point x="170" y="-153"/>
      <point x="266" y="-166"/>
      <point x="322" y="-128" type="curve"/>
      <point x="175" y="-128"/>
      <point x="139" y="-20"/>
      <point x="139" y="82" type="curve" smooth="yes"/>
      <point x="139" y="483" type="line" smooth="yes"/>
      <point x="139" y="619"/>
      <point x="196" y="697"/>
      <point x="309" y="697" type="curve" smooth="yes"/>
      <point x="373" y="697"/>
      <point x="422" y="675"/>
      <point x="451" y="641" type="curve"/>
      <point x="461" y="646"/>
      <point x="463" y="653"/>
      <point x="463" y="666" type="curve" smooth="yes"/>
      <point x="463" y="714"/>
      <point x="385" y="760"/>
      <point x="306" y="760" type="curve" smooth="yes"/>
      <point x="164" y="760"/>
      <point x="74" y="657"/>
    </contour>
    <contour>
      <point x="317" y="-190" type="curve" smooth="yes"/>
      <point x="382" y="-190"/>
      <point x="445" y="-174"/>
      <point x="461" y="-159" type="curve" smooth="yes"/>
      <point x="463" y="-157"/>
      <point x="464" y="-154"/>
      <point x="464" y="-151" type="curve" smooth="yes"/>
      <point x="464" y="-100" type="line"/>
      <point x="447" y="-100" type="line"/>
      <point x="409" y="-119"/>
      <point x="371" y="-128"/>
      <point x="322" y="-128" type="curve" smooth="yes"/>
      <point x="240" y="-128"/>
      <point x="194" y="-100"/>
      <point x="145" y="-44" type="curve"/>
      <point x="123" y="-72"/>
      <point x="121" y="-104"/>
      <point x="143" y="-126" type="curve"/>
      <point x="180" y="-164"/>
      <point x="243" y="-190"/>
    </contour>
  </outline>
</glyph>
<glyph name="C" format="1">
  <advance width="600"/>
  <unicode hex="0043"/>
  <outline>
    <contour>
      <point x="333" y="643" type="curve" smooth="yes"/>
      <point x="412" y="643"/>
      <point x="454" y="621"/>
      <point x="488" y="583" type="curve"/>
      <point x="526" y="620"/>
      <point x="530" y="628"/>
      <point x="530" y="638" type="curve" smooth="yes"/>
      <point x="530" y="649"/>
      <point x="529" y="652"/>
      <point x="524" y="657" type="curve" smooth="yes"/>
      <point x="488" y="693"/>
      <point x="427" y="720"/>
      <point x="334" y="720" type="curve" smooth="yes"/>
      <point x="160" y="720"/>
      <point x="67" y="617"/>
      <point x="67" y="439" type="curve" smooth="yes"/>
      <point x="67" y="248" type="line" smooth="yes"/>
      <point x="67" y="182"/>
      <point x="101" y="122"/>
      <point x="153" y="122" type="curve"/>
      <point x="153" y="164"/>
      <point x="153" y="196"/>
      <point x="153" y="249" type="curve" smooth="yes"/>
      <point x="153" y="440" type="line" smooth="yes"/>
      <point x="153" y="579"/>
      <point x="213" y="643"/>
    </contour>
    <contour>
      <point x="330" y="-20" type="curve" smooth="yes"/>
      <point x="419" y="-20"/>
      <point x="495" y="4"/>
      <point x="530" y="39" type="curve" smooth="yes"/>
      <point x="532" y="41"/>
      <point x="533" y="44"/>
      <point x="533" y="47" type="curve" smooth="yes"/>
      <point x="533" y="70"/>
      <point x="533" y="94"/>
      <point x="533" y="118" type="curve"/>
      <point x="518" y="118" type="line"/>
      <point x="463" y="77"/>
      <point x="407" y="59"/>
      <point x="330" y="59" type="curve" smooth="yes"/>
      <point x="219" y="59"/>
      <point x="153" y="129"/>
      <point x="153" y="256" type="curve"/>
      <point x="90" y="262"/>
      <point x="67" y="256"/>
      <point x="67" y="248" type="curve" smooth="yes"/>
      <point x="67" y="83"/>
      <point x="161" y="-20"/>
    </contour>
    <contour>
      <point x="530" y="487" type="curve"/>
      <point x="530" y="638" type="line" smooth="yes"/>
      <point x="530" y="651"/>
      <point x="512" y="656"/>
      <point x="452" y="656" type="curve"/>
      <point x="452" y="643"/>
      <point x="452" y="632"/>
      <point x="452" y="622" type="curve" smooth="yes"/>
      <point x="452" y="498" type="line"/>
      <point x="452" y="495"/>
      <point x="453" y="492"/>
      <point x="455" y="490" type="curve" smooth="yes"/>
      <point x="457" y="488"/>
      <point x="460" y="487"/>
      <point x="463" y="487" type="curve"/>
      <point x="485" y="487"/>
      <point x="508" y="487"/>
    </contour>
    <contour>
      <point x="324" y="711" type="move" name="top"/>
    </contour>
    <contour>
      <point x="330" y="-1" type="move" name="bottom"/>
    </contour>
  </outline>
</glyph>
<glyph name="D" format="1">
  <advance width="650"/>
  <unicode hex="0044"/>
  <outline>
    <contour>
      <point x="177" y="18" type="curve"/>
      <point x="177" y="660" type="line" smooth="yes"/>
      <point x="177" y="666"/>
      <point x="172" y="671"/>
      <point x="92" y="671" type="curve"/>
      <point x="92" y="27" type="line" smooth="yes"/>
      <point x="92" y="21"/>
      <point x="97" y="18"/>
    </contour>
    <contour>
      <point x="30" y="700" type="curve"/>
      <point x="30" y="678"/>
      <point x="30" y="657"/>
      <point x="30" y="634" type="curve"/>
      <point x="30" y="631"/>
      <point x="31" y="628"/>
      <point x="33" y="626" type="curve" smooth="yes"/>
      <point x="35" y="624"/>
      <point x="38" y="623"/>
      <point x="41" y="623" type="curve" smooth="yes"/>
      <point x="54" y="623"/>
      <point x="84" y="623"/>
      <point x="101" y="623" type="curve" smooth="yes"/>
      <point x="147" y="623"/>
      <point x="260" y="623"/>
      <point x="307" y="623" type="curve"/>
      <point x="358" y="623"/>
      <point x="384" y="623"/>
      <point x="422" y="623" type="curve"/>
      <point x="422" y="668"/>
      <point x="384" y="700"/>
      <point x="306" y="700" type="curve" smooth="yes"/>
      <point x="242" y="700"/>
      <point x="107" y="700"/>
    </contour>
    <contour>
      <point x="581" y="252" type="curve" smooth="yes"/>
      <point x="581" y="442" type="line" smooth="yes"/>
      <point x="581" y="623"/>
      <point x="483" y="700"/>
      <point x="306" y="700" type="curve" smooth="yes"/>
      <point x="295" y="700"/>
      <point x="286" y="688"/>
      <point x="307" y="623" type="curve"/>
      <point x="439" y="623"/>
      <point x="500" y="573"/>
      <point x="500" y="444" type="curve" smooth="yes"/>
      <point x="500" y="257" type="line" smooth="yes"/>
      <point x="500" y="138"/>
      <point x="436" y="77"/>
      <point x="305" y="77" type="curve" smooth="yes"/>
      <point x="252" y="77"/>
      <point x="144" y="77"/>
      <point x="102" y="77" type="curve"/>
      <point x="95" y="56"/>
      <point x="92" y="43"/>
      <point x="92" y="11" type="curve" smooth="yes"/>
      <point x="92" y="5"/>
      <point x="97" y="0"/>
      <point x="103" y="0" type="curve" smooth="yes"/>
      <point x="307" y="0" type="line" smooth="yes"/>
      <point x="483" y="0"/>
      <point x="581" y="94"/>
    </contour>
    <contour>
      <point x="305" y="711" type="move" name="top"/>
    </contour>
  </outline>
</glyph>
<glyph name="E" format="1">
  <advance width="550"/>
  <unicode hex="0045"/>
  <outline>
    <contour>
      <point x="23" y="700" type="line"/>
      <point x="23" y="678"/>
      <point x="23" y="657"/>
      <point x="23" y="634" type="curve" smooth="yes"/>
      <point x="23" y="631"/>
      <point x="24" y="628"/>
      <point x="26" y="626" type="curve" smooth="yes"/>
      <point x="28" y="624"/>
      <point x="31" y="623"/>
      <point x="34" y="623" type="curve" smooth="yes"/>
      <point x="493" y="623" type="line"/>
      <point x="493" y="646"/>
      <point x="493" y="667"/>
      <point x="493" y="689" type="curve" smooth="yes"/>
      <point x="493" y="692"/>
      <point x="492" y="695"/>
      <point x="490" y="697" type="curve" smooth="yes"/>
      <point x="488" y="699"/>
      <point x="485" y="700"/>
      <point x="482" y="700" type="curve" smooth="yes"/>
    </contour>
    <contour>
      <point x="170" y="50" type="curve"/>
      <point x="170" y="666" type="line" smooth="yes"/>
      <point x="170" y="672"/>
      <point x="165" y="677"/>
      <point x="85" y="677" type="curve"/>
      <point x="85" y="61" type="line"/>
      <point x="85" y="55"/>
      <point x="90" y="50"/>
    </contour>
    <contour>
      <point x="85" y="77" type="line"/>
      <point x="85" y="11" type="line" smooth="yes"/>
      <point x="85" y="5"/>
      <point x="90" y="0"/>
      <point x="96" y="0" type="curve" smooth="yes"/>
      <point x="493" y="0" type="line"/>
      <point x="493" y="22"/>
      <point x="493" y="43"/>
      <point x="493" y="66" type="curve" smooth="yes"/>
      <point x="493" y="72"/>
      <point x="488" y="77"/>
      <point x="482" y="77" type="curve" smooth="yes"/>
    </contour>
    <contour>
      <point x="121" y="393" type="line"/>
      <point x="121" y="322"/>
      <point x="126" y="317"/>
      <point x="132" y="317" type="curve" smooth="yes"/>
      <point x="440" y="317" type="line"/>
      <point x="440" y="338"/>
      <point x="440" y="358"/>
      <point x="440" y="382" type="curve" smooth="yes"/>
      <point x="440" y="385"/>
      <point x="439" y="388"/>
      <point x="437" y="390" type="curve" smooth="yes"/>
      <point x="435" y="392"/>
      <point x="432" y="393"/>
      <point x="429" y="393" type="curve" smooth="yes"/>
    </contour>
    <contour>
      <point x="257" y="711" type="move" name="top"/>
    </contour>
    <contour>
      <point x="494" y="0" type="move" name="ogonek"/>
    </contour>
    <contour>
      <point x="257" y="-1" type="move" name="bottom"/>
    </contour>
  </outline>
</glyph>
<glyph name="F" format="1">
  <advance width="550"/>
  <unicode hex="0046"/>
  <outline>
    <contour>
      <point x="190" y="0" type="curve"/>
      <point x="190" y="33"/>
      <point x="190" y="66"/>
      <point x="190" y="98" type="curve" smooth="yes"/>
      <point x="190" y="663" type="line"/>
      <point x="190" y="670"/>
      <point x="181" y="675"/>
      <point x="105" y="675" type="curve"/>
      <point x="105" y="11" type="line" smooth="yes"/>
      <point x="105" y="5"/>
      <point x="110" y="0"/>
      <point x="116" y="0" type="curve" smooth="yes"/>
      <point x="141" y="0"/>
      <point x="165" y="0"/>
    </contour>
    <contour>
      <point x="43" y="700" type="line"/>
      <point x="43" y="678"/>
      <point x="43" y="657"/>
      <point x="43" y="634" type="curve" smooth="yes"/>
      <point x="43" y="631"/>
      <point x="44" y="628"/>
      <point x="46" y="626" type="curve" smooth="yes"/>
      <point x="48" y="624"/>
      <point x="51" y="623"/>
      <point x="54" y="623" type="curve"/>
      <point x="490" y="623" type="line"/>
      <point x="490" y="646"/>
      <point x="490" y="667"/>
      <point x="490" y="689" type="curve" smooth="yes"/>
      <point x="490" y="692"/>
      <point x="489" y="695"/>
      <point x="487" y="697" type="curve" smooth="yes"/>
      <point x="485" y="699"/>
      <point x="482" y="700"/>
      <point x="479" y="700" type="curve"/>
    </contour>
    <contour>
      <point x="141" y="369" type="line"/>
      <point x="141" y="303"/>
      <point x="145" y="293"/>
      <point x="152" y="293" type="curve"/>
      <point x="446" y="293" type="line"/>
      <point x="446" y="315"/>
      <point x="446" y="336"/>
      <point x="446" y="358" type="curve"/>
      <point x="446" y="361"/>
      <point x="445" y="364"/>
      <point x="443" y="366" type="curve" smooth="yes"/>
      <point x="441" y="368"/>
      <point x="438" y="369"/>
      <point x="435" y="369" type="curve"/>
    </contour>
  </outline>
</glyph>
<glyph name="G" format="1">
  <advance width="650"/>
  <unicode hex="0047"/>
  <outline>
    <contour>
      <point x="348" y="644" type="curve" smooth="yes"/>
      <point x="437" y="644"/>
      <point x="487" y="631"/>
      <point x="538" y="584" type="curve"/>
      <point x="572" y="623"/>
      <point x="574" y="632"/>
      <point x="574" y="638" type="curve" smooth="yes"/>
      <point x="574" y="649"/>
      <point x="572" y="652"/>
      <point x="568" y="657" type="curve" smooth="yes"/>
      <point x="532" y="692"/>
      <point x="460" y="720"/>
      <point x="353" y="720" type="curve" smooth="yes"/>
      <point x="167" y="720"/>
      <point x="68" y="622"/>
      <point x="68" y="432" type="curve" smooth="yes"/>
      <point x="68" y="238" type="line" smooth="yes"/>
      <point x="68" y="176"/>
      <point x="100" y="124"/>
      <point x="151" y="123" type="curve"/>
      <point x="151" y="162"/>
      <point x="151" y="195"/>
      <point x="151" y="243" type="curve" smooth="yes"/>
      <point x="151" y="434" type="line" smooth="yes"/>
      <point x="151" y="575"/>
      <point x="215" y="644"/>
    </contour>
    <contour>
      <point x="333" y="56" type="curve" smooth="yes"/>
      <point x="221" y="56"/>
      <point x="151" y="122"/>
      <point x="151" y="243" type="curve"/>
      <point x="80" y="251"/>
      <point x="68" y="246"/>
      <point x="68" y="238" type="curve" smooth="yes"/>
      <point x="68" y="82"/>
      <point x="170" y="-20"/>
      <point x="333" y="-20" type="curve" smooth="yes"/>
      <point x="499" y="-20"/>
      <point x="574" y="64"/>
      <point x="574" y="84" type="curve" smooth="yes"/>
      <point x="574" y="300" type="line" smooth="yes"/>
      <point x="574" y="311"/>
      <point x="529" y="314"/>
      <point x="496" y="314" type="curve"/>
      <point x="496" y="248"/>
      <point x="496" y="180"/>
      <point x="496" y="114" type="curve" smooth="yes"/>
      <point x="496" y="103"/>
      <point x="443" y="56"/>
    </contour>
    <contour>
      <point x="339" y="356" type="line"/>
      <point x="339" y="334"/>
      <point x="339" y="315"/>
      <point x="339" y="294" type="curve" smooth="yes"/>
      <point x="339" y="291"/>
      <point x="340" y="288"/>
      <point x="342" y="286" type="curve" smooth="yes"/>
      <point x="344" y="284"/>
      <point x="347" y="283"/>
      <point x="350" y="283" type="curve"/>
      <point x="618" y="283" type="line"/>
      <point x="618" y="345" type="line" smooth="yes"/>
      <point x="618" y="351"/>
      <point x="613" y="356"/>
      <point x="607" y="356" type="curve" smooth="yes"/>
    </contour>
    <contour>
      <point x="574" y="497" type="curve"/>
      <point x="574" y="638" type="line" smooth="yes"/>
      <point x="574" y="649"/>
      <point x="562" y="658"/>
      <point x="496" y="658" type="curve"/>
      <point x="496" y="645"/>
      <point x="496" y="636"/>
      <point x="496" y="626" type="curve" smooth="yes"/>
      <point x="496" y="508" type="line" smooth="yes"/>
      <point x="496" y="501"/>
      <point x="500" y="497"/>
      <point x="507" y="497" type="curve" smooth="yes"/>
      <point x="529" y="497"/>
      <point x="551" y="497"/>
    </contour>
    <contour>
      <point x="342" y="711" type="move" name="top"/>
    </contour>
    <contour>
      <point x="342" y="-1" type="move" name="bottom"/>
    </contour>
  </outline>
</glyph>
<glyph name="I" format="1">
  <advance width="500"/>
  <unicode hex="0049"/>
  <outline>
    <contour>
      <point x="292" y="29" type="curve"/>
      <point x="292" y="662" type="line" smooth="yes"/>
      <point x="292" y="668"/>
      <point x="287" y="671"/>
      <point x="208" y="671" type="curve"/>
      <point x="208" y="40" type="line" smooth="yes"/>
      <point x="208" y="34"/>
      <point x="213" y="29"/>
    </contour>
    <contour>
      <point x="77" y="700" type="line"/>
      <point x="77" y="678"/>
      <point x="77" y="657"/>
      <point x="77" y="634" type="curve"/>
      <point x="77" y="631"/>
      <point x="78" y="628"/>
      <point x="80" y="626" type="curve" smooth="yes"/>
      <point x="82" y="624"/>
      <point x="85" y="623"/>
      <point x="88" y="623" type="curve" smooth="yes"/>
      <point x="423" y="623" type="line"/>
      <point x="423" y="646"/>
      <point x="423" y="667"/>
      <point x="423" y="689" type="curve" smooth="yes"/>
      <point x="423" y="695"/>
      <point x="418" y="700"/>
      <point x="412" y="700" type="curve" smooth="yes"/>
    </contour>
    <contour>
      <point x="77" y="77" type="line"/>
      <point x="77" y="54"/>
      <point x="77" y="33"/>
      <point x="77" y="11" type="curve"/>
      <point x="77" y="8"/>
      <point x="78" y="5"/>
      <point x="80" y="3" type="curve" smooth="yes"/>
      <point x="82" y="1"/>
      <point x="85" y="0"/>
      <point x="88" y="0" type="curve" smooth="yes"/>
      <point x="423" y="0" type="line"/>
      <point x="423" y="22"/>
      <point x="423" y="44"/>
      <point x="423" y="66" type="curve" smooth="yes"/>
      <point x="423" y="72"/>
      <point x="418" y="77"/>
      <point x="412" y="77" type="curve" smooth="yes"/>
    </contour>
    <contour>
      <point x="250" y="711" type="move" name="top"/>
    </contour>
    <contour>
      <point x="424" y="0" type="move" name="ogonek"/>
    </contour>
    <contour>
      <point x="250" y="-1" type="move" name="bottom"/>
    </contour>
  </outline>
</glyph>
<glyph name="J" format="1">
  <advance width="500"/>
  <unicode hex="004A"/>
  <outline>
    <contour>
      <point x="90" y="700" type="line"/>
      <point x="90" y="678"/>
      <point x="90" y="657"/>
      <point x="90" y="634" type="curve" smooth="yes"/>
      <point x="90" y="631"/>
      <point x="91" y="628"/>
      <point x="93" y="626" type="curve" smooth="yes"/>
      <point x="95" y="624"/>
      <point x="98" y="623"/>
      <point x="101" y="623" type="curve" smooth="yes"/>
      <point x="392" y="623" type="line"/>
      <point x="392" y="665"/>
      <point x="383" y="700"/>
      <point x="361" y="700" type="curve"/>
    </contour>
    <contour>
      <point x="430" y="235" type="curve" smooth="yes"/>
      <point x="430" y="689" type="line" smooth="yes"/>
      <point x="430" y="696"/>
      <point x="426" y="700"/>
      <point x="419" y="700" type="curve" smooth="yes"/>
      <point x="349" y="700" type="line"/>
      <point x="349" y="236" type="line" smooth="yes"/>
      <point x="349" y="180"/>
      <point x="349" y="154"/>
      <point x="349" y="116" type="curve"/>
      <point x="389" y="116"/>
      <point x="430" y="156"/>
    </contour>
    <contour>
      <point x="199" y="59" type="curve" smooth="yes"/>
      <point x="152" y="59"/>
      <point x="114" y="73"/>
      <point x="68" y="100" type="curve"/>
      <point x="54" y="100" type="line"/>
      <point x="54" y="76"/>
      <point x="54" y="56"/>
      <point x="54" y="32" type="curve"/>
      <point x="54" y="29"/>
      <point x="55" y="26"/>
      <point x="57" y="24" type="curve" smooth="yes"/>
      <point x="78" y="4"/>
      <point x="137" y="-17"/>
      <point x="196" y="-17" type="curve" smooth="yes"/>
      <point x="206" y="-17" type="line" smooth="yes"/>
      <point x="348" y="-17"/>
      <point x="430" y="77"/>
      <point x="430" y="235" type="curve"/>
      <point x="430" y="244"/>
      <point x="422" y="252"/>
      <point x="349" y="236" type="curve"/>
      <point x="349" y="121"/>
      <point x="303" y="59"/>
    </contour>
    <contour>
      <point x="255" y="711" type="move" name="top"/>
    </contour>
  </outline>
</glyph>
<glyph name="K" format="1">
  <advance width="600"/>
  <unicode hex="004B"/>
  <outline>
    <contour>
      <point x="84" y="700" type="curve"/>
      <point x="84" y="666"/>
      <point x="84" y="632"/>
      <point x="84" y="598" type="curve" smooth="yes"/>
      <point x="84" y="11" type="line" smooth="yes"/>
      <point x="84" y="5"/>
      <point x="89" y="0"/>
      <point x="95" y="0" type="curve" smooth="yes"/>
      <point x="119" y="0"/>
      <point x="144" y="0"/>
      <point x="168" y="0" type="curve"/>
      <point x="168" y="689" type="line" smooth="yes"/>
      <point x="168" y="692"/>
      <point x="167" y="695"/>
      <point x="165" y="697" type="curve" smooth="yes"/>
      <point x="163" y="699"/>
      <point x="160" y="700"/>
      <point x="157" y="700" type="curve" smooth="yes"/>
      <point x="133" y="700"/>
      <point x="108" y="700"/>
    </contour>
    <contour>
      <point x="534" y="700" type="curve"/>
      <point x="450" y="700" type="line"/>
      <point x="344" y="551"/>
      <point x="223" y="384"/>
      <point x="123" y="243" type="curve"/>
      <point x="115" y="232"/>
      <point x="114" y="223"/>
      <point x="146" y="159" type="curve"/>
      <point x="283" y="341"/>
      <point x="412" y="511"/>
      <point x="499" y="628" type="curve" smooth="yes"/>
      <point x="541" y="683"/>
      <point x="542" y="687"/>
      <point x="542" y="693" type="curve" smooth="yes"/>
      <point x="542" y="697"/>
      <point x="539" y="700"/>
    </contour>
    <contour>
      <point x="287" y="395" type="line"/>
      <point x="235" y="331"/>
      <point x="234" y="323"/>
      <point x="240" y="314" type="curve" smooth="yes"/>
      <point x="410" y="61" type="line" smooth="yes"/>
      <point x="443" y="11"/>
      <point x="466" y="-3"/>
      <point x="522" y="-3" type="curve" smooth="yes"/>
      <point x="552" y="-3" type="line" smooth="yes"/>
      <point x="559" y="-3"/>
      <point x="563" y="1"/>
      <point x="563" y="8" type="curve" smooth="yes"/>
      <point x="563" y="31"/>
      <point x="563" y="55"/>
      <point x="563" y="78" type="curve"/>
      <point x="555" y="78" type="line"/>
      <point x="548" y="78"/>
      <point x="543" y="78"/>
      <point x="533" y="78" type="curve" smooth="yes"/>
      <point x="506" y="78"/>
      <point x="494" y="84"/>
      <point x="476" y="111" type="curve" smooth="yes"/>
    </contour>
    <contour>
      <point x="323" y="-1" type="move" name="bottom"/>
    </contour>
  </outline>
</glyph>
<glyph name="L" format="1">
  <advance width="550"/>
  <unicode hex="004C"/>
  <outline>
    <contour>
      <point x="168" y="50" type="curve"/>
      <point x="168" y="689" type="line" smooth="yes"/>
      <point x="168" y="692"/>
      <point x="167" y="695"/>
      <point x="165" y="697" type="curve" smooth="yes"/>
      <point x="163" y="699"/>
      <point x="160" y="700"/>
      <point x="157" y="700" type="curve" smooth="yes"/>
      <point x="133" y="700"/>
      <point x="108" y="700"/>
      <point x="84" y="700" type="curve"/>
      <point x="84" y="667"/>
      <point x="84" y="634"/>
      <point x="84" y="601" type="curve" smooth="yes"/>
      <point x="84" y="61" type="line" smooth="yes"/>
      <point x="84" y="55"/>
      <point x="89" y="50"/>
    </contour>
    <contour>
      <point x="84" y="77" type="line"/>
      <point x="84" y="11" type="line" smooth="yes"/>
      <point x="84" y="4"/>
      <point x="88" y="0"/>
      <point x="95" y="0" type="curve" smooth="yes"/>
      <point x="493" y="0" type="line"/>
      <point x="493" y="22"/>
      <point x="493" y="43"/>
      <point x="493" y="66" type="curve" smooth="yes"/>
      <point x="493" y="72"/>
      <point x="488" y="77"/>
      <point x="482" y="77" type="curve" smooth="yes"/>
    </contour>
    <contour>
      <point x="391" y="550" type="move" name="caronslovak"/>
    </contour>
    <contour>
      <point x="127" y="711" type="move" name="top"/>
    </contour>
    <contour>
      <point x="438" y="400" type="move" name="dot"/>
    </contour>
    <contour>
      <point x="288" y="-1" type="move" name="bottom"/>
    </contour>
  </outline>
</glyph>
<glyph name="M" format="1">
  <advance width="800"/>
  <unicode hex="004D"/>
  <outline>
    <contour>
      <point x="164" y="0" type="curve"/>
      <point x="164" y="67"/>
      <point x="164" y="134"/>
      <point x="164" y="201" type="curve" smooth="yes"/>
      <point x="162" y="364"/>
      <point x="160" y="528"/>
      <point x="158" y="689" type="curve" smooth="yes"/>
      <point x="158" y="692"/>
      <point x="157" y="695"/>
      <point x="155" y="697" type="curve" smooth="yes"/>
      <point x="153" y="699"/>
      <point x="150" y="700"/>
      <point x="147" y="700" type="curve" smooth="yes"/>
      <point x="126" y="700"/>
      <point x="106" y="700"/>
      <point x="84" y="700" type="curve"/>
      <point x="84" y="663"/>
      <point x="84" y="625"/>
      <point x="84" y="588" type="curve" smooth="yes"/>
      <point x="84" y="396"/>
      <point x="84" y="203"/>
      <point x="84" y="11" type="curve" smooth="yes"/>
      <point x="84" y="8"/>
      <point x="85" y="5"/>
      <point x="87" y="3" type="curve" smooth="yes"/>
      <point x="89" y="1"/>
      <point x="92" y="0"/>
      <point x="95" y="0" type="curve" smooth="yes"/>
      <point x="118" y="0"/>
      <point x="141" y="0"/>
    </contour>
    <contour>
      <point x="716" y="0" type="curve"/>
      <point x="716" y="37"/>
      <point x="716" y="75"/>
      <point x="716" y="112" type="curve" smooth="yes"/>
      <point x="716" y="304"/>
      <point x="716" y="497"/>
      <point x="716" y="689" type="curve"/>
      <point x="716" y="692"/>
      <point x="715" y="695"/>
      <point x="713" y="697" type="curve" smooth="yes"/>
      <point x="711" y="699"/>
      <point x="708" y="700"/>
      <point x="705" y="700" type="curve" smooth="yes"/>
      <point x="641" y="700" type="line"/>
      <point x="641" y="693"/>
      <point x="641" y="686"/>
      <point x="641" y="679" type="curve"/>
      <point x="639" y="520"/>
      <point x="636" y="360"/>
      <point x="635" y="201" type="curve" smooth="yes"/>
      <point x="635" y="139"/>
      <point x="635" y="76"/>
      <point x="635" y="14" type="curve" smooth="yes"/>
      <point x="635" y="8"/>
      <point x="636" y="5"/>
      <point x="638" y="3" type="curve" smooth="yes"/>
      <point x="640" y="1"/>
      <point x="642" y="0"/>
      <point x="646" y="0" type="curve" smooth="yes"/>
      <point x="669" y="0"/>
      <point x="693" y="0"/>
    </contour>
    <contour>
      <point x="206" y="687" type="curve" smooth="yes"/>
      <point x="202" y="696"/>
      <point x="198" y="700"/>
      <point x="190" y="700" type="curve"/>
      <point x="119" y="700" type="line"/>
      <point x="126" y="683"/>
      <point x="136" y="667"/>
      <point x="143" y="649" type="curve" smooth="yes"/>
      <point x="216" y="477"/>
      <point x="289" y="305"/>
      <point x="361" y="133" type="curve"/>
      <point x="363" y="129"/>
      <point x="368" y="126"/>
      <point x="372" y="126" type="curve" smooth="yes"/>
      <point x="381" y="126"/>
      <point x="389" y="129"/>
      <point x="419" y="187" type="curve"/>
      <point x="348" y="354"/>
      <point x="277" y="520"/>
    </contour>
    <contour>
      <point x="599" y="700" type="curve"/>
      <point x="527" y="529"/>
      <point x="453" y="358"/>
      <point x="381" y="187" type="curve"/>
      <point x="368" y="135"/>
      <point x="367" y="128"/>
      <point x="372" y="126" type="curve"/>
      <point x="432" y="126" type="line"/>
      <point x="509" y="307"/>
      <point x="587" y="488"/>
      <point x="663" y="669" type="curve" smooth="yes"/>
      <point x="675" y="695"/>
      <point x="669" y="700"/>
      <point x="664" y="700" type="curve" smooth="yes"/>
      <point x="650" y="700"/>
      <point x="611" y="700"/>
    </contour>
  </outline>
</glyph>
<glyph name="N" format="1">
  <advance width="700"/>
  <unicode hex="004E"/>
  <outline>
    <contour>
      <point x="165" y="0" type="curve"/>
      <point x="165" y="525" type="line"/>
      <point x="159" y="643"/>
      <point x="156" y="694"/>
      <point x="153" y="697" type="curve" smooth="yes"/>
      <point x="151" y="699"/>
      <point x="148" y="700"/>
      <point x="145" y="700" type="curve"/>
      <point x="127" y="700"/>
      <point x="94" y="700"/>
      <point x="84" y="700" type="curve"/>
      <point x="84" y="653"/>
      <point x="84" y="607"/>
      <point x="84" y="560" type="curve" smooth="yes"/>
      <point x="84" y="11" type="line"/>
      <point x="84" y="5"/>
      <point x="89" y="0"/>
      <point x="95" y="0" type="curve"/>
      <point x="118" y="0"/>
      <point x="142" y="0"/>
    </contour>
    <contour>
      <point x="616" y="0" type="line"/>
      <point x="616" y="689" type="line"/>
      <point x="616" y="695"/>
      <point x="611" y="700"/>
      <point x="605" y="700" type="curve"/>
      <point x="535" y="700" type="line"/>
      <point x="535" y="161" type="line"/>
      <point x="542" y="65"/>
      <point x="548" y="5"/>
      <point x="550" y="3" type="curve" smooth="yes"/>
      <point x="552" y="1"/>
      <point x="555" y="0"/>
      <point x="558" y="0" type="curve"/>
    </contour>
    <contour>
      <point x="142" y="700" type="line"/>
      <point x="129" y="688"/>
      <point x="129" y="686"/>
      <point x="115" y="655" type="curve"/>
      <point x="250" y="439"/>
      <point x="384" y="223"/>
      <point x="519" y="7" type="curve"/>
      <point x="522" y="2"/>
      <point x="525" y="0"/>
      <point x="532" y="0" type="curve" smooth="yes"/>
      <point x="550" y="0"/>
      <point x="558" y="0"/>
      <point x="578" y="0" type="curve"/>
      <point x="578" y="8"/>
      <point x="578" y="47"/>
      <point x="571" y="75" type="curve"/>
      <point x="443" y="280"/>
      <point x="315" y="485"/>
      <point x="186" y="690" type="curve"/>
      <point x="182" y="698"/>
      <point x="179" y="700"/>
      <point x="170" y="700" type="curve"/>
    </contour>
    <contour>
      <point x="350" y="711" type="move" name="top"/>
    </contour>
    <contour>
      <point x="350" y="-1" type="move" name="bottom"/>
    </contour>
  </outline>
</glyph>
<glyph name="O" format="1">
  <advance width="650"/>
  <unicode hex="004F"/>
  <outline>
    <contour>
      <point x="325" y="720" type="curve" smooth="yes"/>
      <point x="172" y="720"/>
      <point x="69" y="609"/>
      <point x="69" y="448" type="curve" smooth="yes"/>
      <point x="69" y="249" type="line" smooth="yes"/>
      <point x="69" y="79"/>
      <point x="170" y="-20"/>
      <point x="325" y="-20" type="curve" smooth="yes"/>
      <point x="328" y="-20"/>
      <point x="341" y="-7"/>
      <point x="325" y="57" type="curve"/>
      <point x="207" y="57"/>
      <point x="150" y="136"/>
      <point x="150" y="249" type="curve" smooth="yes"/>
      <point x="150" y="448" type="line" smooth="yes"/>
      <point x="150" y="557"/>
      <point x="209" y="643"/>
      <point x="325" y="643" type="curve" smooth="yes"/>
      <point x="370" y="643"/>
      <point x="405" y="643"/>
      <point x="432" y="643" type="curve"/>
      <point x="432" y="682"/>
      <point x="400" y="720"/>
    </contour>
    <contour>
      <point x="325" y="-20" type="curve" smooth="yes"/>
      <point x="478" y="-20"/>
      <point x="581" y="91"/>
      <point x="581" y="252" type="curve" smooth="yes"/>
      <point x="581" y="451" type="line" smooth="yes"/>
      <point x="581" y="621"/>
      <point x="480" y="720"/>
      <point x="325" y="720" type="curve" smooth="yes"/>
      <point x="322" y="720"/>
      <point x="309" y="707"/>
      <point x="325" y="643" type="curve"/>
      <point x="443" y="643"/>
      <point x="500" y="564"/>
      <point x="500" y="451" type="curve" smooth="yes"/>
      <point x="500" y="252" type="line" smooth="yes"/>
      <point x="500" y="143"/>
      <point x="441" y="57"/>
      <point x="325" y="57" type="curve" smooth="yes"/>
      <point x="280" y="57"/>
      <point x="245" y="57"/>
      <point x="218" y="57" type="curve"/>
      <point x="218" y="18"/>
      <point x="250" y="-20"/>
    </contour>
    <contour>
      <point x="325" y="711" type="move" name="top"/>
    </contour>
    <contour>
      <point x="429" y="8" type="move" name="ogonek"/>
    </contour>
    <contour>
      <point x="325" y="-1" type="move" name="bottom"/>
    </contour>
  </outline>
</glyph>
<glyph name="P" format="1">
  <advance width="600"/>
  <unicode hex="0050"/>
  <outline>
    <contour>
      <point x="175" y="0" type="curve"/>
      <point x="175" y="32"/>
      <point x="175" y="66"/>
      <point x="175" y="100" type="curve" smooth="yes"/>
      <point x="175" y="660" type="line" smooth="yes"/>
      <point x="175" y="666"/>
      <point x="170" y="671"/>
      <point x="92" y="671" type="curve"/>
      <point x="92" y="11" type="line" smooth="yes"/>
      <point x="92" y="8"/>
      <point x="93" y="5"/>
      <point x="95" y="3" type="curve" smooth="yes"/>
      <point x="97" y="1"/>
      <point x="100" y="0"/>
      <point x="103" y="0" type="curve" smooth="yes"/>
      <point x="127" y="0"/>
      <point x="151" y="0"/>
    </contour>
    <contour>
      <point x="33" y="700" type="curve"/>
      <point x="33" y="677"/>
      <point x="33" y="658"/>
      <point x="33" y="634" type="curve"/>
      <point x="33" y="631"/>
      <point x="34" y="628"/>
      <point x="36" y="626" type="curve" smooth="yes"/>
      <point x="38" y="624"/>
      <point x="41" y="623"/>
      <point x="44" y="623" type="curve" smooth="yes"/>
      <point x="62" y="623"/>
      <point x="83" y="623"/>
      <point x="108" y="623" type="curve" smooth="yes"/>
      <point x="162" y="623"/>
      <point x="258" y="623"/>
      <point x="310" y="623" type="curve" smooth="yes"/>
      <point x="363" y="623"/>
      <point x="375" y="623"/>
      <point x="402" y="623" type="curve"/>
      <point x="402" y="667"/>
      <point x="376" y="700"/>
      <point x="309" y="700" type="curve" smooth="yes"/>
      <point x="235" y="700"/>
      <point x="124" y="700"/>
    </contour>
    <contour>
      <point x="538" y="440" type="curve" smooth="yes"/>
      <point x="538" y="508" type="line" smooth="yes"/>
      <point x="538" y="654"/>
      <point x="441" y="700"/>
      <point x="309" y="700" type="curve"/>
      <point x="308" y="700"/>
      <point x="291" y="685"/>
      <point x="310" y="623" type="curve"/>
      <point x="410" y="623"/>
      <point x="452" y="590"/>
      <point x="452" y="511" type="curve" smooth="yes"/>
      <point x="452" y="443" type="line" smooth="yes"/>
      <point x="452" y="368"/>
      <point x="406" y="325"/>
      <point x="318" y="325" type="curve" smooth="yes"/>
      <point x="265" y="325"/>
      <point x="204" y="325"/>
      <point x="149" y="325" type="curve"/>
      <point x="149" y="300"/>
      <point x="149" y="286"/>
      <point x="149" y="259" type="curve" smooth="yes"/>
      <point x="149" y="253"/>
      <point x="154" y="248"/>
      <point x="160" y="248" type="curve" smooth="yes"/>
      <point x="323" y="248" type="line" smooth="yes"/>
      <point x="457" y="248"/>
      <point x="538" y="320"/>
    </contour>
  </outline>
</glyph>
<glyph name="Q" format="1">
  <advance width="650"/>
  <unicode hex="0051"/>
  <outline>
    <contour>
      <point x="325" y="720" type="curve" smooth="yes"/>
      <point x="172" y="720"/>
      <point x="69" y="609"/>
      <point x="69" y="448" type="curve" smooth="yes"/>
      <point x="69" y="249" type="line" smooth="yes"/>
      <point x="69" y="79"/>
      <point x="170" y="-20"/>
      <point x="325" y="-20" type="curve" smooth="yes"/>
      <point x="328" y="-20"/>
      <point x="341" y="-7"/>
      <point x="325" y="57" type="curve"/>
      <point x="207" y="57"/>
      <point x="150" y="136"/>
      <point x="150" y="249" type="curve" smooth="yes"/>
      <point x="150" y="448" type="line" smooth="yes"/>
      <point x="150" y="557"/>
      <point x="209" y="643"/>
      <point x="325" y="643" type="curve" smooth="yes"/>
      <point x="370" y="643"/>
      <point x="405" y="643"/>
      <point x="432" y="643" type="curve"/>
      <point x="432" y="682"/>
      <point x="400" y="720"/>
    </contour>
    <contour>
      <point x="325" y="-20" type="curve" smooth="yes"/>
      <point x="478" y="-20"/>
      <point x="581" y="91"/>
      <point x="581" y="252" type="curve" smooth="yes"/>
      <point x="581" y="451" type="line" smooth="yes"/>
      <point x="581" y="621"/>
      <point x="480" y="720"/>
      <point x="325" y="720" type="curve" smooth="yes"/>
      <point x="322" y="720"/>
      <point x="309" y="707"/>
      <point x="325" y="643" type="curve"/>
      <point x="443" y="643"/>
      <point x="500" y="564"/>
      <point x="500" y="451" type="curve" smooth="yes"/>
      <point x="500" y="252" type="line" smooth="yes"/>
      <point x="500" y="143"/>
      <point x="441" y="57"/>
      <point x="325" y="57" type="curve" smooth="yes"/>
      <point x="280" y="57"/>
      <point x="245" y="57"/>
      <point x="218" y="57" type="curve"/>
      <point x="218" y="18"/>
      <point x="250" y="-20"/>
    </contour>
    <contour>
      <point x="457" y="67" type="line"/>
      <point x="394" y="37"/>
      <point x="385" y="31"/>
      <point x="393" y="19" type="curve" smooth="yes"/>
      <point x="472" y="-94" type="line" smooth="yes"/>
      <point x="500" y="-136"/>
      <point x="524" y="-153"/>
      <point x="575" y="-153" type="curve" smooth="yes"/>
      <point x="602" y="-153" type="line" smooth="yes"/>
      <point x="609" y="-153"/>
      <point x="613" y="-149"/>
      <point x="613" y="-142" type="curve" smooth="yes"/>
      <point x="613" y="-118"/>
      <point x="613" y="-93"/>
      <point x="613" y="-69" type="curve"/>
      <point x="605" y="-69" type="line"/>
      <point x="599" y="-69"/>
      <point x="594" y="-69"/>
      <point x="586" y="-69" type="curve" smooth="yes"/>
      <point x="561" y="-69"/>
      <point x="549" y="-64"/>
      <point x="532" y="-40" type="curve" smooth="yes"/>
    </contour>
  </outline>
</glyph>
<glyph name="T" format="1">
  <advance width="600"/>
  <unicode hex="0054"/>
  <outline>
    <contour>
      <point x="57" y="700" type="line"/>
      <point x="57" y="678"/>
      <point x="57" y="657"/>
      <point x="57" y="634" type="curve" smooth="yes"/>
      <point x="57" y="631"/>
      <point x="58" y="628"/>
      <point x="60" y="626" type="curve" smooth="yes"/>
      <point x="62" y="624"/>
      <point x="65" y="623"/>
      <point x="68" y="623" type="curve" smooth="yes"/>
      <point x="543" y="623" type="line"/>
      <point x="543" y="646"/>
      <point x="543" y="667"/>
      <point x="543" y="689" type="curve" smooth="yes"/>
      <point x="543" y="695"/>
      <point x="538" y="700"/>
      <point x="532" y="700" type="curve" smooth="yes"/>
    </contour>
    <contour>
      <point x="342" y="0" type="curve"/>
      <point x="342" y="32"/>
      <point x="342" y="66"/>
      <point x="342" y="100" type="curve" smooth="yes"/>
      <point x="342" y="660" type="line" smooth="yes"/>
      <point x="342" y="666"/>
      <point x="337" y="671"/>
      <point x="258" y="671" type="curve"/>
      <point x="258" y="11" type="line" smooth="yes"/>
      <point x="258" y="8"/>
      <point x="259" y="5"/>
      <point x="261" y="3" type="curve" smooth="yes"/>
      <point x="263" y="1"/>
      <point x="266" y="0"/>
      <point x="269" y="0" type="curve" smooth="yes"/>
      <point x="293" y="0"/>
      <point x="318" y="0"/>
    </contour>
    <contour>
      <point x="300" y="711" type="move" name="top"/>
    </contour>
    <contour>
      <point x="300" y="-1" type="move" name="bottom"/>
    </contour>
  </outline>
</glyph>
<glyph name="U" format="1">
  <advance width="650"/>
  <unicode hex="0055"/>
  <outline>
    <contour>
      <point x="80" y="700" type="curve"/>
      <point x="80" y="667"/>
      <point x="80" y="633"/>
      <point x="80" y="600" type="curve" smooth="yes"/>
      <point x="80" y="171" type="line"/>
      <point x="80" y="141"/>
      <point x="104" y="102"/>
      <point x="165" y="98" type="curve"/>
      <point x="165" y="136"/>
      <point x="165" y="145"/>
      <point x="165" y="184" type="curve"/>
      <point x="165" y="689" type="line"/>
      <point x="165" y="695"/>
      <point x="160" y="700"/>
      <point x="154" y="700" type="curve"/>
      <point x="129" y="700"/>
      <point x="105" y="700"/>
    </contour>
    <contour>
      <point x="260" y="-17" type="curve" smooth="yes"/>
      <point x="355" y="-17"/>
      <point x="425" y="29"/>
      <point x="490" y="111" type="curve" smooth="yes"/>
      <point x="516" y="143"/>
      <point x="519" y="182"/>
      <point x="503" y="211" type="curve"/>
      <point x="420" y="102"/>
      <point x="357" y="63"/>
      <point x="275" y="63" type="curve" smooth="yes"/>
      <point x="199" y="63"/>
      <point x="165" y="102"/>
      <point x="165" y="184" type="curve"/>
      <point x="105" y="183"/>
      <point x="80" y="177"/>
      <point x="80" y="171" type="curve" smooth="yes"/>
      <point x="80" y="58"/>
      <point x="139" y="-17"/>
    </contour>
    <contour>
      <point x="566" y="0" type="curve"/>
      <point x="566" y="33"/>
      <point x="566" y="68"/>
      <point x="566" y="103" type="curve" smooth="yes"/>
      <point x="566" y="689" type="line" smooth="yes"/>
      <point x="566" y="695"/>
      <point x="561" y="700"/>
      <point x="555" y="700" type="curve" smooth="yes"/>
      <point x="531" y="700"/>
      <point x="506" y="700"/>
      <point x="482" y="700" type="curve"/>
      <point x="482" y="11" type="line" smooth="yes"/>
      <point x="482" y="8"/>
      <point x="483" y="5"/>
      <point x="485" y="3" type="curve" smooth="yes"/>
      <point x="487" y="1"/>
      <point x="490" y="0"/>
      <point x="493" y="0" type="curve" smooth="yes"/>
      <point x="517" y="0"/>
      <point x="542" y="0"/>
    </contour>
    <contour>
      <point x="323" y="711" type="move" name="top"/>
    </contour>
    <contour>
      <point x="567" y="0" type="move" name="ogonek"/>
    </contour>
    <contour>
      <point x="323" y="711" type="move" name="ring"/>
    </contour>
    <contour>
      <point x="323" y="-1" type="move" name="bottom"/>
    </contour>
  </outline>
</glyph>
<glyph name="V" format="1">
  <advance width="650"/>
  <unicode hex="0056"/>
  <outline>
    <contour>
      <point x="111" y="700" type="curve"/>
      <point x="34" y="700" type="line"/>
      <point x="106" y="469"/>
      <point x="177" y="237"/>
      <point x="249" y="5" type="curve"/>
      <point x="252" y="-3"/>
      <point x="258" y="-7"/>
      <point x="264" y="-7" type="curve"/>
      <point x="297" y="-7"/>
      <point x="345" y="3"/>
      <point x="360" y="67" type="curve"/>
      <point x="343" y="67"/>
      <point x="334" y="67"/>
      <point x="322" y="67" type="curve" smooth="yes"/>
      <point x="315" y="67"/>
      <point x="314" y="68"/>
      <point x="310" y="79" type="curve"/>
      <point x="247" y="283"/>
      <point x="184" y="487"/>
      <point x="122" y="691" type="curve"/>
      <point x="120" y="697"/>
      <point x="116" y="700"/>
    </contour>
    <contour>
      <point x="604" y="700" type="curve"/>
      <point x="530" y="700" type="line"/>
      <point x="464" y="484"/>
      <point x="397" y="266"/>
      <point x="331" y="50" type="curve"/>
      <point x="321" y="12"/>
      <point x="290" y="0"/>
      <point x="264" y="-7" type="curve"/>
      <point x="397" y="-7" type="line"/>
      <point x="469" y="224"/>
      <point x="540" y="455"/>
      <point x="612" y="686" type="curve"/>
      <point x="614" y="694"/>
      <point x="611" y="700"/>
    </contour>
  </outline>
</glyph>
<glyph name="X" format="1">
  <advance width="650"/>
  <unicode hex="0058"/>
  <outline>
    <contour>
      <point x="541" y="0" type="curve" smooth="yes"/>
      <point x="569" y="0"/>
      <point x="600" y="0"/>
      <point x="627" y="0" type="curve"/>
      <point x="541" y="123"/>
      <point x="454" y="247"/>
      <point x="366" y="370" type="curve" smooth="yes"/>
      <point x="358" y="383"/>
      <point x="347" y="389"/>
      <point x="340" y="400" type="curve" smooth="yes"/>
      <point x="271" y="496"/>
      <point x="201" y="595"/>
      <point x="134" y="691" type="curve" smooth="yes"/>
      <point x="129" y="698"/>
      <point x="125" y="700"/>
      <point x="116" y="700" type="curve" smooth="yes"/>
      <point x="31" y="700" type="line"/>
      <point x="114" y="581"/>
      <point x="196" y="461"/>
      <point x="280" y="342" type="curve" smooth="yes"/>
      <point x="288" y="330"/>
      <point x="300" y="321"/>
      <point x="308" y="309" type="curve" smooth="yes"/>
      <point x="379" y="211"/>
      <point x="453" y="107"/>
      <point x="523" y="9" type="curve" smooth="yes"/>
      <point x="528" y="1"/>
      <point x="533" y="0"/>
    </contour>
    <contour>
      <point x="601" y="700" type="curve" smooth="yes"/>
      <point x="524" y="700" type="line"/>
      <point x="449" y="590"/>
      <point x="375" y="481"/>
      <point x="300" y="371" type="curve"/>
      <point x="287" y="353"/>
      <point x="306" y="338"/>
      <point x="359" y="322" type="curve"/>
      <point x="442" y="442"/>
      <point x="524" y="561"/>
      <point x="609" y="684" type="curve"/>
      <point x="613" y="691"/>
      <point x="612" y="694"/>
      <point x="610" y="697" type="curve" smooth="yes"/>
      <point x="608" y="699"/>
      <point x="605" y="700"/>
    </contour>
    <contour>
      <point x="40" y="0" type="curve"/>
      <point x="117" y="0" type="line"/>
      <point x="192" y="110"/>
      <point x="268" y="219"/>
      <point x="343" y="329" type="curve"/>
      <point x="355" y="347"/>
      <point x="336" y="362"/>
      <point x="284" y="378" type="curve"/>
      <point x="201" y="258"/>
      <point x="116" y="136"/>
      <point x="32" y="17" type="curve" smooth="yes"/>
      <point x="28" y="11"/>
      <point x="28" y="6"/>
      <point x="31" y="3" type="curve" smooth="yes"/>
      <point x="33" y="1"/>
      <point x="36" y="0"/>
    </contour>
  </outline>
</glyph>
<glyph name="Y" format="1">
  <advance width="600"/>
  <unicode hex="0059"/>
  <outline>
    <contour>
      <point x="33" y="700" type="line"/>
      <point x="109" y="556"/>
      <point x="186" y="412"/>
      <point x="262" y="268" type="curve"/>
      <point x="265" y="263"/>
      <point x="272" y="261"/>
      <point x="279" y="261" type="curve"/>
      <point x="306" y="261"/>
      <point x="321" y="299"/>
      <point x="316" y="327" type="curve"/>
      <point x="254" y="447"/>
      <point x="192" y="568"/>
      <point x="131" y="688" type="curve"/>
      <point x="128" y="695"/>
      <point x="124" y="700"/>
      <point x="114" y="700" type="curve" smooth="yes"/>
    </contour>
    <contour>
      <point x="477" y="700" type="line"/>
      <point x="414" y="575"/>
      <point x="351" y="450"/>
      <point x="287" y="325" type="curve"/>
      <point x="273" y="292"/>
      <point x="279" y="269"/>
      <point x="279" y="261" type="curve"/>
      <point x="335" y="261" type="line"/>
      <point x="410" y="402"/>
      <point x="486" y="544"/>
      <point x="562" y="685" type="curve"/>
      <point x="565" y="693"/>
      <point x="560" y="700"/>
      <point x="553" y="700" type="curve"/>
    </contour>
    <contour>
      <point x="342" y="0" type="curve"/>
      <point x="342" y="32"/>
      <point x="342" y="66"/>
      <point x="342" y="100" type="curve" smooth="yes"/>
      <point x="342" y="303" type="line" smooth="yes"/>
      <point x="342" y="309"/>
      <point x="337" y="314"/>
      <point x="258" y="314" type="curve"/>
      <point x="258" y="11" type="line" smooth="yes"/>
      <point x="258" y="8"/>
      <point x="259" y="5"/>
      <point x="261" y="3" type="curve" smooth="yes"/>
      <point x="263" y="1"/>
      <point x="266" y="0"/>
      <point x="269" y="0" type="curve" smooth="yes"/>
      <point x="293" y="0"/>
      <point x="318" y="0"/>
    </contour>
    <contour>
      <point x="300" y="711" type="move" name="top"/>
    </contour>
  </outline>
</glyph>
<glyph name="Z" format="1">
  <advance width="600"/>
  <unicode hex="005A"/>
  <outline>
    <contour>
      <point x="93" y="700" type="line"/>
      <point x="93" y="677"/>
      <point x="93" y="658"/>
      <point x="93" y="634" type="curve" smooth="yes"/>
      <point x="93" y="631"/>
      <point x="94" y="628"/>
      <point x="96" y="626" type="curve" smooth="yes"/>
      <point x="98" y="624"/>
      <point x="101" y="623"/>
      <point x="104" y="623" type="curve" smooth="yes"/>
      <point x="444" y="623" type="line" smooth="yes"/>
      <point x="465" y="623"/>
      <point x="501" y="624"/>
      <point x="528" y="627" type="curve" smooth="yes"/>
      <point x="535" y="628"/>
      <point x="541" y="628"/>
      <point x="543" y="628" type="curve"/>
      <point x="543" y="689" type="line" smooth="yes"/>
      <point x="543" y="695"/>
      <point x="538" y="700"/>
      <point x="532" y="700" type="curve" smooth="yes"/>
    </contour>
    <contour>
      <point x="468" y="658" type="curve"/>
      <point x="332" y="465"/>
      <point x="193" y="266"/>
      <point x="57" y="72" type="curve"/>
      <point x="126" y="44"/>
      <point x="137" y="45"/>
      <point x="142" y="52" type="curve" smooth="yes"/>
      <point x="326" y="311"/>
      <point x="543" y="627"/>
      <point x="543" y="628" type="curve"/>
      <point x="482" y="664"/>
      <point x="475" y="666"/>
    </contour>
    <contour>
      <point x="545" y="0" type="line"/>
      <point x="545" y="23"/>
      <point x="545" y="42"/>
      <point x="545" y="66" type="curve" smooth="yes"/>
      <point x="545" y="69"/>
      <point x="544" y="72"/>
      <point x="542" y="74" type="curve" smooth="yes"/>
      <point x="540" y="76"/>
      <point x="537" y="77"/>
      <point x="534" y="77" type="curve" smooth="yes"/>
      <point x="158" y="77" type="line" smooth="yes"/>
      <point x="127" y="77"/>
      <point x="89" y="76"/>
      <point x="57" y="72" type="curve"/>
      <point x="57" y="11" type="line" smooth="yes"/>
      <point x="57" y="5"/>
      <point x="62" y="0"/>
      <point x="68" y="0" type="curve" smooth="yes"/>
    </contour>
    <contour>
      <point x="152" y="534" type="curve"/>
      <point x="152" y="581"/>
      <point x="152" y="628"/>
      <point x="152" y="675" type="curve"/>
      <point x="152" y="694"/>
      <point x="144" y="700"/>
      <point x="128" y="700" type="curve" smooth="yes"/>
      <point x="71" y="700" type="line"/>
      <point x="71" y="648"/>
      <point x="71" y="597"/>
      <point x="71" y="545" type="curve"/>
      <point x="71" y="539"/>
      <point x="76" y="534"/>
      <point x="82" y="534" type="curve" smooth="yes"/>
      <point x="105" y="534"/>
      <point x="129" y="534"/>
    </contour>
    <contour>
      <point x="300" y="711" type="move" name="top"/>
    </contour>
  </outline>
</glyph>
<glyph name="bracketleft" format="1">
  <advance width="400"/>
  <unicode hex="005B"/>
  <outline>
    <contour>
      <point x="57" y="650" type="curve" smooth="yes"/>
      <point x="57" y="-74" type="line" smooth="yes"/>
      <point x="57" y="-84"/>
      <point x="76" y="-85"/>
      <point x="142" y="-85" type="curve"/>
      <point x="142" y="746" type="line" smooth="yes"/>
      <point x="142" y="752"/>
      <point x="134" y="757"/>
      <point x="107" y="757" type="curve" smooth="yes"/>
      <point x="88" y="757"/>
      <point x="77" y="757"/>
      <point x="57" y="757" type="curve"/>
      <point x="57" y="721"/>
      <point x="57" y="686"/>
    </contour>
    <contour>
      <point x="373" y="678" type="line"/>
      <point x="373" y="701"/>
      <point x="373" y="723"/>
      <point x="373" y="746" type="curve" smooth="yes"/>
      <point x="373" y="749"/>
      <point x="371" y="752"/>
      <point x="369" y="754" type="curve" smooth="yes"/>
      <point x="367" y="756"/>
      <point x="365" y="757"/>
      <point x="361" y="757" type="curve" smooth="yes"/>
      <point x="107" y="757" type="line"/>
      <point x="107" y="683"/>
      <point x="113" y="678"/>
      <point x="118" y="678" type="curve"/>
    </contour>
    <contour>
      <point x="373" y="-151" type="line"/>
      <point x="373" y="-127"/>
      <point x="373" y="-108"/>
      <point x="373" y="-84" type="curve" smooth="yes"/>
      <point x="373" y="-78"/>
      <point x="367" y="-73"/>
      <point x="361" y="-73" type="curve" smooth="yes"/>
      <point x="57" y="-73" type="line"/>
      <point x="57" y="-140" type="line" smooth="yes"/>
      <point x="57" y="-146"/>
      <point x="63" y="-151"/>
      <point x="69" y="-151" type="curve" smooth="yes"/>
    </contour>
  </outline>
</glyph>
<glyph name="backslash" format="1">
  <advance width="600"/>
  <unicode hex="005C"/>
  <outline>
    <contour>
      <point x="84" y="750" type="curve"/>
      <point x="199" y="461"/>
      <point x="314" y="170"/>
      <point x="429" y="-119" type="curve" smooth="yes"/>
      <point x="432" y="-127"/>
      <point x="438" y="-130"/>
      <point x="444" y="-130" type="curve" smooth="yes"/>
      <point x="471" y="-130"/>
      <point x="491" y="-130"/>
      <point x="519" y="-130" type="curve"/>
      <point x="505" y="-94"/>
      <point x="490" y="-57"/>
      <point x="476" y="-21" type="curve"/>
      <point x="375" y="233"/>
      <point x="273" y="489"/>
      <point x="172" y="743" type="curve"/>
      <point x="170" y="748"/>
      <point x="166" y="750"/>
      <point x="160" y="750" type="curve" smooth="yes"/>
      <point x="133" y="750"/>
      <point x="111" y="750"/>
    </contour>
  </outline>
</glyph>
<glyph name="bracketright" format="1">
  <advance width="400"/>
  <unicode hex="005D"/>
  <outline>
    <contour>
      <point x="343" y="-44" type="curve" smooth="yes"/>
      <point x="343" y="680" type="line" smooth="yes"/>
      <point x="343" y="690"/>
      <point x="324" y="691"/>
      <point x="258" y="691" type="curve"/>
      <point x="258" y="-140" type="line" smooth="yes"/>
      <point x="258" y="-146"/>
      <point x="266" y="-151"/>
      <point x="293" y="-151" type="curve" smooth="yes"/>
      <point x="312" y="-151"/>
      <point x="323" y="-151"/>
      <point x="343" y="-151" type="curve"/>
      <point x="343" y="-115"/>
      <point x="343" y="-80"/>
    </contour>
    <contour>
      <point x="27" y="-72" type="line"/>
      <point x="27" y="-95"/>
      <point x="27" y="-116"/>
      <point x="27" y="-140" type="curve" smooth="yes"/>
      <point x="27" y="-143"/>
      <point x="29" y="-146"/>
      <point x="31" y="-148" type="curve" smooth="yes"/>
      <point x="33" y="-150"/>
      <point x="35" y="-151"/>
      <point x="39" y="-151" type="curve" smooth="yes"/>
      <point x="293" y="-151" type="line"/>
      <point x="293" y="-77"/>
      <point x="287" y="-72"/>
      <point x="282" y="-72" type="curve"/>
    </contour>
    <contour>
      <point x="27" y="758" type="line"/>
      <point x="27" y="734"/>
      <point x="27" y="714"/>
      <point x="27" y="690" type="curve" smooth="yes"/>
      <point x="27" y="684"/>
      <point x="33" y="679"/>
      <point x="39" y="679" type="curve" smooth="yes"/>
      <point x="343" y="679" type="line"/>
      <point x="343" y="747" type="line" smooth="yes"/>
      <point x="343" y="753"/>
      <point x="337" y="758"/>
      <point x="331" y="758" type="curve" smooth="yes"/>
    </contour>
  </outline>
</glyph>
<glyph name="asciicircum" format="1">
  <advance width="600"/>
  <unicode hex="005E"/>
  <outline>
    <contour>
      <point x="131" y="369" type="line"/>
      <point x="197" y="500"/>
      <point x="232" y="570"/>
      <point x="298" y="701" type="curve"/>
      <point x="312" y="731"/>
      <point x="318" y="739"/>
      <point x="332" y="750" type="curve"/>
      <point x="235" y="750" type="line"/>
      <point x="165" y="611"/>
      <point x="79" y="440"/>
      <point x="57" y="397" type="curve" smooth="yes"/>
      <point x="51" y="384"/>
      <point x="50" y="380"/>
      <point x="50" y="376" type="curve" smooth="yes"/>
      <point x="50" y="372"/>
      <point x="53" y="369"/>
      <point x="58" y="369" type="curve"/>
    </contour>
    <contour>
      <point x="546" y="370" type="curve"/>
      <point x="475" y="512"/>
      <point x="433" y="596"/>
      <point x="362" y="738" type="curve" smooth="yes"/>
      <point x="358" y="747"/>
      <point x="353" y="750"/>
      <point x="344" y="750" type="curve" smooth="yes"/>
      <point x="323" y="750" type="line" smooth="yes"/>
      <point x="286" y="750"/>
      <point x="240" y="725"/>
      <point x="238" y="670" type="curve"/>
      <point x="261" y="670"/>
      <point x="281" y="670"/>
      <point x="298" y="670" type="curve" smooth="yes"/>
      <point x="304" y="670"/>
      <point x="307" y="669"/>
      <point x="311" y="662" type="curve" smooth="yes"/>
      <point x="370" y="546"/>
      <point x="397" y="492"/>
      <point x="454" y="379" type="curve" smooth="yes"/>
      <point x="459" y="371"/>
      <point x="462" y="370"/>
      <point x="470" y="370" type="curve" smooth="yes"/>
      <point x="496" y="370"/>
      <point x="520" y="370"/>
    </contour>
  </outline>
</glyph>
<glyph name="grave" format="1">
  <advance width="428"/>
  <unicode hex="0060"/>
  <outline>
    <contour>
      <point x="313" y="404" type="curve"/>
      <point x="289" y="508"/>
      <point x="265" y="613"/>
      <point x="241" y="717" type="curve"/>
      <point x="187" y="717"/>
      <point x="160" y="717"/>
      <point x="114" y="717" type="curve" smooth="yes"/>
      <point x="106" y="717"/>
      <point x="103" y="712"/>
      <point x="106" y="704" type="curve" smooth="yes"/>
      <point x="145" y="613"/>
      <point x="188" y="509"/>
      <point x="228" y="411" type="curve" smooth="yes"/>
      <point x="231" y="405"/>
      <point x="234" y="404"/>
      <point x="239" y="404" type="curve" smooth="yes"/>
      <point x="272" y="404"/>
      <point x="293" y="404"/>
    </contour>
  </outline>
</glyph>
<glyph name="b" format="1">
  <advance width="600"/>
  <unicode hex="0062"/>
  <outline>
    <contour>
      <point x="97" y="0" type="line"/>
      <point x="113" y="0"/>
      <point x="128" y="0"/>
      <point x="143" y="0" type="curve" smooth="yes"/>
      <point x="155" y="0"/>
      <point x="180" y="65"/>
      <point x="180" y="95" type="curve" smooth="yes"/>
      <point x="180" y="739" type="line"/>
      <point x="180" y="745"/>
      <point x="175" y="750"/>
      <point x="169" y="750" type="curve" smooth="yes"/>
      <point x="145" y="750"/>
      <point x="121" y="750"/>
      <point x="97" y="750" type="curve"/>
      <point x="97" y="713"/>
      <point x="97" y="674"/>
      <point x="97" y="635" type="curve" smooth="yes"/>
    </contour>
    <contour>
      <point x="360" y="541" type="curve" smooth="yes"/>
      <point x="293" y="541"/>
      <point x="232" y="515"/>
      <point x="177" y="460" type="curve" smooth="yes"/>
      <point x="149" y="432"/>
      <point x="143" y="400"/>
      <point x="151" y="366" type="curve"/>
      <point x="223" y="436"/>
      <point x="275" y="462"/>
      <point x="341" y="462" type="curve" smooth="yes"/>
      <point x="409" y="462"/>
      <point x="448" y="417"/>
      <point x="448" y="335" type="curve"/>
      <point x="491" y="333"/>
      <point x="531" y="340"/>
      <point x="531" y="348" type="curve" smooth="yes"/>
      <point x="531" y="465"/>
      <point x="463" y="541"/>
    </contour>
    <contour>
      <point x="340" y="-10" type="curve" smooth="yes"/>
      <point x="460" y="-10"/>
      <point x="531" y="67"/>
      <point x="531" y="212" type="curve" smooth="yes"/>
      <point x="531" y="348" type="line" smooth="yes"/>
      <point x="531" y="401"/>
      <point x="491" y="465"/>
      <point x="451" y="465" type="curve"/>
      <point x="435" y="465"/>
      <point x="425" y="460"/>
      <point x="424" y="450" type="curve"/>
      <point x="441" y="417"/>
      <point x="448" y="390"/>
      <point x="448" y="335" type="curve" smooth="yes"/>
      <point x="448" y="213" type="line" smooth="yes"/>
      <point x="448" y="113"/>
      <point x="409" y="68"/>
      <point x="334" y="68" type="curve" smooth="yes"/>
      <point x="267" y="68"/>
      <point x="217" y="98"/>
      <point x="163" y="163" type="curve"/>
      <point x="158" y="160"/>
      <point x="146" y="124"/>
      <point x="152" y="109" type="curve" smooth="yes"/>
      <point x="181" y="41"/>
      <point x="250" y="-10"/>
    </contour>
  </outline>
</glyph>
<glyph name="c" format="1">
  <advance width="500"/>
  <unicode hex="0063"/>
  <outline>
    <contour>
      <point x="303" y="541" type="curve" smooth="yes"/>
      <point x="169" y="541"/>
      <point x="69" y="460"/>
      <point x="69" y="307" type="curve" smooth="yes"/>
      <point x="69" y="214" type="line" smooth="yes"/>
      <point x="69" y="69"/>
      <point x="153" y="-11"/>
      <point x="302" y="-11" type="curve" smooth="yes"/>
      <point x="319" y="-11"/>
      <point x="324" y="3"/>
      <point x="303" y="66" type="curve"/>
      <point x="204" y="66"/>
      <point x="152" y="118"/>
      <point x="152" y="217" type="curve" smooth="yes"/>
      <point x="152" y="303" type="line" smooth="yes"/>
      <point x="152" y="410"/>
      <point x="205" y="464"/>
      <point x="303" y="464" type="curve" smooth="yes"/>
      <point x="362" y="464"/>
      <point x="402" y="446"/>
      <point x="431" y="430" type="curve"/>
      <point x="445" y="430" type="line"/>
      <point x="445" y="451"/>
      <point x="445" y="471"/>
      <point x="445" y="493" type="curve"/>
      <point x="445" y="498"/>
      <point x="445" y="500"/>
      <point x="441" y="504" type="curve" smooth="yes"/>
      <point x="428" y="517"/>
      <point x="380" y="541"/>
    </contour>
    <contour>
      <point x="302" y="-11" type="curve" smooth="yes"/>
      <point x="385" y="-11"/>
      <point x="427" y="10"/>
      <point x="442" y="25" type="curve" smooth="yes"/>
      <point x="444" y="27"/>
      <point x="445" y="30"/>
      <point x="445" y="33" type="curve"/>
      <point x="445" y="54"/>
      <point x="445" y="75"/>
      <point x="445" y="97" type="curve"/>
      <point x="431" y="97" type="line"/>
      <point x="401" y="79"/>
      <point x="363" y="66"/>
      <point x="303" y="66" type="curve" smooth="yes"/>
      <point x="217" y="66"/>
      <point x="174" y="91"/>
      <point x="125" y="146" type="curve"/>
      <point x="100" y="75"/>
      <point x="175" y="-11"/>
    </contour>
    <contour>
      <point x="282" y="541" type="move" name="top"/>
    </contour>
    <contour>
      <point x="282" y="-1" type="move" name="bottom"/>
    </contour>
  </outline>
</glyph>
<glyph name="d" format="1">
  <advance width="600"/>
  <unicode hex="0064"/>
  <outline>
    <contour>
      <point x="263" y="541" type="curve" smooth="yes"/>
      <point x="142" y="541"/>
      <point x="69" y="457"/>
      <point x="69" y="313" type="curve" smooth="yes"/>
      <point x="69" y="186" type="line" smooth="yes"/>
      <point x="69" y="138"/>
      <point x="110" y="75"/>
      <point x="150" y="75" type="curve" smooth="yes"/>
      <point x="166" y="75"/>
      <point x="176" y="80"/>
      <point x="177" y="91" type="curve"/>
      <point x="162" y="123"/>
      <point x="152" y="149"/>
      <point x="152" y="196" type="curve" smooth="yes"/>
      <point x="152" y="308" type="line" smooth="yes"/>
      <point x="152" y="408"/>
      <point x="188" y="463"/>
      <point x="277" y="463" type="curve" smooth="yes"/>
      <point x="344" y="463"/>
      <point x="385" y="432"/>
      <point x="431" y="382" type="curve"/>
      <point x="447" y="385"/>
      <point x="450" y="411"/>
      <point x="445" y="427" type="curve" smooth="yes"/>
      <point x="426" y="482"/>
      <point x="356" y="541"/>
    </contour>
    <contour>
      <point x="240" y="-10" type="curve" smooth="yes"/>
      <point x="314" y="-10"/>
      <point x="370" y="23"/>
      <point x="421" y="83" type="curve" smooth="yes"/>
      <point x="449" y="117"/>
      <point x="452" y="154"/>
      <point x="444" y="181" type="curve"/>
      <point x="373" y="99"/>
      <point x="325" y="67"/>
      <point x="261" y="67" type="curve" smooth="yes"/>
      <point x="193" y="67"/>
      <point x="152" y="111"/>
      <point x="152" y="196" type="curve"/>
      <point x="99" y="205"/>
      <point x="69" y="189"/>
      <point x="69" y="186" type="curve" smooth="yes"/>
      <point x="69" y="65"/>
      <point x="141" y="-10"/>
    </contour>
    <contour>
      <point x="420" y="750" type="curve"/>
      <point x="420" y="716"/>
      <point x="420" y="682"/>
      <point x="420" y="650" type="curve" smooth="yes"/>
      <point x="420" y="11" type="line"/>
      <point x="420" y="8"/>
      <point x="421" y="5"/>
      <point x="423" y="3" type="curve" smooth="yes"/>
      <point x="425" y="1"/>
      <point x="428" y="0"/>
      <point x="431" y="0" type="curve" smooth="yes"/>
      <point x="455" y="0"/>
      <point x="479" y="0"/>
      <point x="503" y="0" type="curve"/>
      <point x="503" y="30"/>
      <point x="503" y="69"/>
      <point x="503" y="115" type="curve" smooth="yes"/>
      <point x="503" y="739" type="line"/>
      <point x="503" y="742"/>
      <point x="502" y="745"/>
      <point x="500" y="747" type="curve" smooth="yes"/>
      <point x="498" y="749"/>
      <point x="495" y="750"/>
      <point x="492" y="750" type="curve" smooth="yes"/>
      <point x="468" y="750"/>
      <point x="444" y="750"/>
    </contour>
    <contour>
      <point x="538" y="711" type="move" name="caronslovak"/>
    </contour>
  </outline>
</glyph>
<glyph name="f" format="1">
  <advance width="400"/>
  <unicode hex="0066"/>
  <outline>
    <contour>
      <point x="191" y="0" type="curve"/>
      <point x="191" y="33"/>
      <point x="191" y="66"/>
      <point x="191" y="100" type="curve" smooth="yes"/>
      <point x="191" y="533" type="line" smooth="yes"/>
      <point x="191" y="546"/>
      <point x="191" y="557"/>
      <point x="191" y="570" type="curve" smooth="yes"/>
      <point x="191" y="648"/>
      <point x="216" y="690"/>
      <point x="285" y="690" type="curve"/>
      <point x="295" y="754"/>
      <point x="293" y="763"/>
      <point x="281" y="763" type="curve" smooth="yes"/>
      <point x="181" y="763"/>
      <point x="109" y="702"/>
      <point x="109" y="579" type="curve" smooth="yes"/>
      <point x="109" y="11" type="line" smooth="yes"/>
      <point x="109" y="5"/>
      <point x="114" y="0"/>
      <point x="120" y="0" type="curve" smooth="yes"/>
      <point x="144" y="0"/>
      <point x="168" y="0"/>
    </contour>
    <contour>
      <point x="187" y="664" type="curve"/>
      <point x="221" y="682"/>
      <point x="243" y="690"/>
      <point x="285" y="690" type="curve" smooth="yes"/>
      <point x="321" y="690"/>
      <point x="349" y="681"/>
      <point x="375" y="668" type="curve"/>
      <point x="390" y="668" type="line"/>
      <point x="390" y="689"/>
      <point x="390" y="709"/>
      <point x="390" y="730" type="curve"/>
      <point x="390" y="734"/>
      <point x="389" y="736"/>
      <point x="387" y="738" type="curve" smooth="yes"/>
      <point x="377" y="748"/>
      <point x="333" y="763"/>
      <point x="281" y="763" type="curve" smooth="yes"/>
      <point x="223" y="763"/>
      <point x="172" y="707"/>
    </contour>
    <contour>
      <point x="37" y="530" type="curve"/>
      <point x="37" y="507"/>
      <point x="37" y="488"/>
      <point x="37" y="465" type="curve" smooth="yes"/>
      <point x="37" y="462"/>
      <point x="38" y="459"/>
      <point x="40" y="457" type="curve" smooth="yes"/>
      <point x="42" y="455"/>
      <point x="45" y="454"/>
      <point x="48" y="454" type="curve" smooth="yes"/>
      <point x="126" y="454"/>
      <point x="259" y="454"/>
      <point x="347" y="454" type="curve"/>
      <point x="347" y="477"/>
      <point x="347" y="496"/>
      <point x="347" y="519" type="curve" smooth="yes"/>
      <point x="347" y="525"/>
      <point x="342" y="530"/>
      <point x="336" y="530" type="curve" smooth="yes"/>
      <point x="264" y="530"/>
      <point x="108" y="530"/>
    </contour>
  </outline>
</glyph>
<glyph name="g" format="1">
  <advance width="600"/>
  <unicode hex="0067"/>
  <outline>
    <contour>
      <point x="296" y="466" type="curve" smooth="yes"/>
      <point x="384" y="466"/>
      <point x="495" y="466"/>
      <point x="560" y="466" type="curve" smooth="yes"/>
      <point x="566" y="466"/>
      <point x="571" y="471"/>
      <point x="571" y="477" type="curve" smooth="yes"/>
      <point x="571" y="497"/>
      <point x="571" y="517"/>
      <point x="571" y="537" type="curve"/>
      <point x="479" y="537"/>
      <point x="386" y="537"/>
      <point x="293" y="537" type="curve" smooth="yes"/>
      <point x="171" y="537"/>
      <point x="77" y="473"/>
      <point x="77" y="370" type="curve" smooth="yes"/>
      <point x="77" y="336" type="line" smooth="yes"/>
      <point x="77" y="238"/>
      <point x="158" y="175"/>
      <point x="288" y="173" type="curve"/>
      <point x="299" y="173"/>
      <point x="306" y="193"/>
      <point x="285" y="241" type="curve"/>
      <point x="211" y="241"/>
      <point x="158" y="274"/>
      <point x="158" y="332" type="curve" smooth="yes"/>
      <point x="158" y="367" type="line" smooth="yes"/>
      <point x="158" y="432"/>
      <point x="214" y="466"/>
    </contour>
    <contour>
      <point x="285" y="241" type="curve" smooth="yes"/>
      <point x="226" y="241"/>
      <point x="180" y="256"/>
      <point x="142" y="284" type="curve"/>
      <point x="120" y="236"/>
      <point x="199" y="173"/>
      <point x="288" y="173" type="curve" smooth="yes"/>
      <point x="409" y="173"/>
      <point x="501" y="233"/>
      <point x="501" y="329" type="curve" smooth="yes"/>
      <point x="501" y="358" type="line" smooth="yes"/>
      <point x="501" y="415"/>
      <point x="453" y="476"/>
      <point x="379" y="476" type="curve" smooth="yes"/>
      <point x="368" y="476"/>
      <point x="360" y="475"/>
      <point x="346" y="473" type="curve"/>
      <point x="401" y="436"/>
      <point x="420" y="400"/>
      <point x="420" y="363" type="curve" smooth="yes"/>
      <point x="420" y="338" type="line" smooth="yes"/>
      <point x="420" y="276"/>
      <point x="366" y="241"/>
    </contour>
    <contour>
      <point x="151" y="92" type="curve" smooth="yes"/>
      <point x="151" y="86" type="line" smooth="yes"/>
      <point x="151" y="29"/>
      <point x="193" y="-6"/>
      <point x="258" y="-6" type="curve" smooth="yes"/>
      <point x="375" y="-6" type="line" smooth="yes"/>
      <point x="450" y="-6"/>
      <point x="482" y="-33"/>
      <point x="482" y="-79" type="curve" smooth="yes"/>
      <point x="482" y="-100" type="line" smooth="yes"/>
      <point x="482" y="-131"/>
      <point x="459" y="-183"/>
      <point x="369" y="-183" type="curve"/>
      <point x="350" y="-237"/>
      <point x="349" y="-250"/>
      <point x="363" y="-250" type="curve" smooth="yes"/>
      <point x="495" y="-250"/>
      <point x="565" y="-187"/>
      <point x="565" y="-89" type="curve" smooth="yes"/>
      <point x="565" y="-73" type="line" smooth="yes"/>
      <point x="565" y="12"/>
      <point x="507" y="67"/>
      <point x="380" y="67" type="curve" smooth="yes"/>
      <point x="266" y="67" type="line" smooth="yes"/>
      <point x="241" y="67"/>
      <point x="231" y="77"/>
      <point x="231" y="100" type="curve" smooth="yes"/>
      <point x="231" y="109" type="line" smooth="yes"/>
      <point x="231" y="132"/>
      <point x="242" y="169"/>
      <point x="255" y="185" type="curve"/>
      <point x="255" y="190"/>
      <point x="251" y="195"/>
      <point x="236" y="196" type="curve" smooth="yes"/>
      <point x="190" y="196"/>
      <point x="151" y="137"/>
    </contour>
    <contour>
      <point x="491" y="-156" type="curve"/>
      <point x="446" y="-181"/>
      <point x="419" y="-183"/>
      <point x="369" y="-183" type="curve" smooth="yes"/>
      <point x="260" y="-183" type="line" smooth="yes"/>
      <point x="176" y="-183"/>
      <point x="135" y="-156"/>
      <point x="135" y="-100" type="curve" smooth="yes"/>
      <point x="135" y="-79" type="line" smooth="yes"/>
      <point x="135" y="-39"/>
      <point x="151" y="-8"/>
      <point x="218" y="14" type="curve"/>
      <point x="215" y="32"/>
      <point x="205" y="48"/>
      <point x="183" y="46" type="curve" smooth="yes"/>
      <point x="100" y="35"/>
      <point x="52" y="-23"/>
      <point x="52" y="-94" type="curve" smooth="yes"/>
      <point x="52" y="-113" type="line" smooth="yes"/>
      <point x="52" y="-196"/>
      <point x="122" y="-250"/>
      <point x="238" y="-250" type="curve" smooth="yes"/>
      <point x="363" y="-250" type="line" smooth="yes"/>
      <point x="421" y="-250"/>
      <point x="499" y="-217"/>
    </contour>
  </outline>
</glyph>
<glyph name="i" format="1">
  <advance width="350"/>
  <unicode hex="0069"/>
  <outline>
    <contour>
      <point x="44" y="530" type="curve"/>
      <point x="44" y="509"/>
      <point x="44" y="489"/>
      <point x="44" y="467" type="curve" smooth="yes"/>
      <point x="44" y="461"/>
      <point x="49" y="456"/>
      <point x="55" y="456" type="curve" smooth="yes"/>
      <point x="97" y="456"/>
      <point x="156" y="456"/>
      <point x="186" y="456" type="curve"/>
      <point x="186" y="518"/>
      <point x="182" y="530"/>
      <point x="174" y="530" type="curve" smooth="yes"/>
      <point x="124" y="530"/>
      <point x="94" y="530"/>
    </contour>
    <contour>
      <point x="233" y="0" type="curve"/>
      <point x="233" y="37"/>
      <point x="233" y="74"/>
      <point x="233" y="111" type="curve" smooth="yes"/>
      <point x="233" y="519" type="line" smooth="yes"/>
      <point x="233" y="525"/>
      <point x="228" y="530"/>
      <point x="222" y="530" type="curve" smooth="yes"/>
      <point x="151" y="530" type="line"/>
      <point x="151" y="11" type="line" smooth="yes"/>
      <point x="151" y="5"/>
      <point x="156" y="0"/>
      <point x="162" y="0" type="curve" smooth="yes"/>
      <point x="187" y="0"/>
      <point x="208" y="0"/>
    </contour>
    <contour>
      <point x="246" y="668" type="curve"/>
      <point x="246" y="759" type="line" smooth="yes"/>
      <point x="246" y="765"/>
      <point x="241" y="770"/>
      <point x="235" y="770" type="curve" smooth="yes"/>
      <point x="201" y="770"/>
      <point x="168" y="770"/>
      <point x="134" y="770" type="curve"/>
      <point x="134" y="679" type="line" smooth="yes"/>
      <point x="134" y="673"/>
      <point x="139" y="668"/>
      <point x="145" y="668" type="curve" smooth="yes"/>
      <point x="179" y="668"/>
      <point x="212" y="668"/>
    </contour>
    <contour>
      <point x="233" y="-1" type="move" name="ogonek"/>
    </contour>
    <contour>
      <point x="194" y="-1" type="move" name="bottom"/>
    </contour>
  </outline>
</glyph>
<glyph name="j" format="1">
  <advance width="350"/>
  <unicode hex="006A"/>
  <outline>
    <contour>
      <point x="49" y="530" type="curve"/>
      <point x="49" y="507"/>
      <point x="49" y="488"/>
      <point x="49" y="465" type="curve" smooth="yes"/>
      <point x="49" y="459"/>
      <point x="54" y="454"/>
      <point x="60" y="454" type="curve" smooth="yes"/>
      <point x="109" y="454"/>
      <point x="165" y="454"/>
      <point x="215" y="454" type="curve"/>
      <point x="215" y="494"/>
      <point x="205" y="530"/>
      <point x="184" y="530" type="curve" smooth="yes"/>
      <point x="141" y="530"/>
      <point x="92" y="530"/>
    </contour>
    <contour>
      <point x="254" y="-81" type="curve" smooth="yes"/>
      <point x="254" y="519" type="line" smooth="yes"/>
      <point x="254" y="522"/>
      <point x="253" y="525"/>
      <point x="251" y="527" type="curve" smooth="yes"/>
      <point x="249" y="529"/>
      <point x="247" y="530"/>
      <point x="243" y="530" type="curve" smooth="yes"/>
      <point x="173" y="530" type="line"/>
      <point x="173" y="-82" type="line" smooth="yes"/>
      <point x="173" y="-144"/>
      <point x="166" y="-167"/>
      <point x="124" y="-206" type="curve"/>
      <point x="175" y="-223"/>
      <point x="254" y="-172"/>
    </contour>
    <contour>
      <point x="95" y="-173" type="curve" smooth="yes"/>
      <point x="64" y="-173"/>
      <point x="45" y="-168"/>
      <point x="20" y="-156" type="curve"/>
      <point x="5" y="-156" type="line"/>
      <point x="5" y="-178"/>
      <point x="5" y="-198"/>
      <point x="5" y="-221" type="curve" smooth="yes"/>
      <point x="5" y="-224"/>
      <point x="6" y="-227"/>
      <point x="8" y="-229" type="curve" smooth="yes"/>
      <point x="17" y="-238"/>
      <point x="51" y="-250"/>
      <point x="98" y="-250" type="curve" smooth="yes"/>
      <point x="198" y="-250"/>
      <point x="254" y="-189"/>
      <point x="254" y="-81" type="curve" smooth="yes"/>
      <point x="254" y="-76"/>
      <point x="246" y="-68"/>
      <point x="173" y="-82" type="curve"/>
      <point x="173" y="-147"/>
      <point x="146" y="-173"/>
    </contour>
    <contour>
      <point x="269" y="668" type="curve"/>
      <point x="269" y="759" type="line" smooth="yes"/>
      <point x="269" y="765"/>
      <point x="264" y="770"/>
      <point x="258" y="770" type="curve" smooth="yes"/>
      <point x="225" y="770"/>
      <point x="191" y="770"/>
      <point x="158" y="770" type="curve"/>
      <point x="158" y="679" type="line" smooth="yes"/>
      <point x="158" y="673"/>
      <point x="163" y="668"/>
      <point x="169" y="668" type="curve" smooth="yes"/>
      <point x="202" y="668"/>
      <point x="236" y="668"/>
    </contour>
  </outline>
</glyph>
<glyph name="k" format="1">
  <advance width="600"/>
  <unicode hex="006B"/>
  <outline>
    <contour>
      <point x="179" y="0" type="curve"/>
      <point x="179" y="739" type="line" smooth="yes"/>
      <point x="179" y="742"/>
      <point x="178" y="745"/>
      <point x="176" y="747" type="curve" smooth="yes"/>
      <point x="174" y="749"/>
      <point x="171" y="750"/>
      <point x="168" y="750" type="curve" smooth="yes"/>
      <point x="145" y="750"/>
      <point x="124" y="750"/>
      <point x="97" y="750" type="curve"/>
      <point x="97" y="730"/>
      <point x="97" y="695"/>
      <point x="97" y="651" type="curve" smooth="yes"/>
      <point x="97" y="11" type="line" smooth="yes"/>
      <point x="97" y="5"/>
      <point x="102" y="0"/>
      <point x="108" y="0" type="curve" smooth="yes"/>
      <point x="133" y="0"/>
      <point x="154" y="0"/>
    </contour>
    <contour>
      <point x="436" y="530" type="line"/>
      <point x="327" y="422"/>
      <point x="217" y="314"/>
      <point x="108" y="205" type="curve"/>
      <point x="110" y="160"/>
      <point x="138" y="136"/>
      <point x="156" y="154" type="curve" smooth="yes"/>
      <point x="275" y="270"/>
      <point x="394" y="384"/>
      <point x="524" y="509" type="curve" smooth="yes"/>
      <point x="532" y="517"/>
      <point x="533" y="520"/>
      <point x="533" y="522" type="curve" smooth="yes"/>
      <point x="533" y="526"/>
      <point x="529" y="530"/>
      <point x="524" y="530" type="curve"/>
    </contour>
    <contour>
      <point x="468" y="0" type="curve" smooth="yes"/>
      <point x="508" y="0"/>
      <point x="527" y="0"/>
      <point x="559" y="0" type="curve"/>
      <point x="466" y="111"/>
      <point x="379" y="215"/>
      <point x="289" y="324" type="curve"/>
      <point x="241" y="273"/>
      <point x="238" y="266"/>
      <point x="248" y="252" type="curve" smooth="yes"/>
      <point x="270" y="222"/>
      <point x="431" y="30"/>
      <point x="448" y="9" type="curve" smooth="yes"/>
      <point x="453" y="3"/>
      <point x="458" y="0"/>
    </contour>
    <contour>
      <point x="328" y="-1" type="move" name="bottom"/>
    </contour>
  </outline>
</glyph>
<glyph name="l" format="1">
  <advance width="300"/>
  <unicode hex="006C"/>
  <outline>
    <contour>
      <point x="87" y="640" type="curve"/>
      <point x="87" y="140" type="line" smooth="yes"/>
      <point x="87" y="75"/>
      <point x="130" y="32"/>
      <point x="180" y="47" type="curve"/>
      <point x="171" y="79"/>
      <point x="169" y="111"/>
      <point x="169" y="143" type="curve" smooth="yes"/>
      <point x="169" y="739" type="line" smooth="yes"/>
      <point x="169" y="742"/>
      <point x="168" y="745"/>
      <point x="166" y="747" type="curve" smooth="yes"/>
      <point x="164" y="749"/>
      <point x="161" y="750"/>
      <point x="158" y="750" type="curve" smooth="yes"/>
      <point x="134" y="750"/>
      <point x="111" y="750"/>
      <point x="87" y="750" type="curve"/>
      <point x="87" y="713"/>
      <point x="87" y="677"/>
    </contour>
    <contour>
      <point x="275" y="77" type="curve"/>
      <point x="262" y="77" type="line"/>
      <point x="252" y="77"/>
      <point x="242" y="77"/>
      <point x="232" y="77" type="curve" smooth="yes"/>
      <point x="185" y="77"/>
      <point x="169" y="92"/>
      <point x="169" y="143" type="curve"/>
      <point x="116" y="154"/>
      <point x="87" y="164"/>
      <point x="87" y="140" type="curve" smooth="yes"/>
      <point x="87" y="40"/>
      <point x="133" y="0"/>
      <point x="223" y="0" type="curve" smooth="yes"/>
      <point x="264" y="0" type="line" smooth="yes"/>
      <point x="267" y="0"/>
      <point x="270" y="1"/>
      <point x="272" y="3" type="curve" smooth="yes"/>
      <point x="274" y="5"/>
      <point x="275" y="7"/>
      <point x="275" y="11" type="curve" smooth="yes"/>
      <point x="275" y="34"/>
      <point x="275" y="53"/>
    </contour>
    <contour>
      <point x="331" y="711" type="move" name="caronslovak"/>
    </contour>
    <contour>
      <point x="129" y="730" type="move" name="top"/>
    </contour>
    <contour>
      <point x="331" y="400" type="move" name="dot"/>
    </contour>
    <contour>
      <point x="181" y="-1" type="move" name="bottom"/>
    </contour>
  </outline>
</glyph>
<glyph name="m" format="1">
  <advance width="850"/>
  <unicode hex="006D"/>
  <outline>
    <contour>
      <point x="182" y="0" type="curve"/>
      <point x="182" y="519" type="line" smooth="yes"/>
      <point x="182" y="522"/>
      <point x="181" y="525"/>
      <point x="179" y="527" type="curve" smooth="yes"/>
      <point x="177" y="529"/>
      <point x="174" y="530"/>
      <point x="171" y="530" type="curve" smooth="yes"/>
      <point x="148" y="530"/>
      <point x="124" y="530"/>
      <point x="97" y="530" type="curve"/>
      <point x="97" y="511"/>
      <point x="97" y="475"/>
      <point x="97" y="431" type="curve" smooth="yes"/>
      <point x="97" y="11" type="line" smooth="yes"/>
      <point x="97" y="5"/>
      <point x="102" y="0"/>
      <point x="108" y="0" type="curve" smooth="yes"/>
      <point x="133" y="0"/>
      <point x="157" y="0"/>
    </contour>
    <contour>
      <point x="342" y="541" type="curve" smooth="yes"/>
      <point x="278" y="541"/>
      <point x="226" y="500"/>
      <point x="177" y="445" type="curve" smooth="yes"/>
      <point x="156" y="423"/>
      <point x="153" y="393"/>
      <point x="161" y="342" type="curve"/>
      <point x="228" y="433"/>
      <point x="271" y="462"/>
      <point x="321" y="462" type="curve" smooth="yes"/>
      <point x="357" y="462"/>
      <point x="383" y="438"/>
      <point x="383" y="392" type="curve"/>
      <point x="429" y="393"/>
      <point x="467" y="398"/>
      <point x="467" y="412" type="curve" smooth="yes"/>
      <point x="467" y="486"/>
      <point x="419" y="541"/>
    </contour>
    <contour>
      <point x="467" y="0" type="curve"/>
      <point x="467" y="412" type="line"/>
      <point x="467" y="431"/>
      <point x="452" y="451"/>
      <point x="383" y="451" type="curve"/>
      <point x="383" y="431"/>
      <point x="383" y="411"/>
      <point x="383" y="392" type="curve" smooth="yes"/>
      <point x="383" y="11" type="line" smooth="yes"/>
      <point x="383" y="5"/>
      <point x="388" y="0"/>
      <point x="394" y="0" type="curve" smooth="yes"/>
      <point x="418" y="0"/>
      <point x="443" y="0"/>
    </contour>
    <contour>
      <point x="623" y="541" type="curve" smooth="yes"/>
      <point x="559" y="541"/>
      <point x="505" y="505"/>
      <point x="456" y="451" type="curve" smooth="yes"/>
      <point x="436" y="429"/>
      <point x="431" y="400"/>
      <point x="439" y="348" type="curve"/>
      <point x="506" y="434"/>
      <point x="554" y="462"/>
      <point x="602" y="462" type="curve" smooth="yes"/>
      <point x="640" y="462"/>
      <point x="668" y="438"/>
      <point x="668" y="392" type="curve"/>
      <point x="714" y="393"/>
      <point x="753" y="400"/>
      <point x="753" y="412" type="curve" smooth="yes"/>
      <point x="753" y="486"/>
      <point x="701" y="541"/>
    </contour>
    <contour>
      <point x="753" y="0" type="curve"/>
      <point x="753" y="33"/>
      <point x="753" y="66"/>
      <point x="753" y="98" type="curve" smooth="yes"/>
      <point x="753" y="412" type="line"/>
      <point x="753" y="431"/>
      <point x="736" y="451"/>
      <point x="668" y="451" type="curve"/>
      <point x="668" y="431"/>
      <point x="668" y="411"/>
      <point x="668" y="392" type="curve" smooth="yes"/>
      <point x="668" y="11" type="line" smooth="yes"/>
      <point x="668" y="5"/>
      <point x="673" y="0"/>
      <point x="679" y="0" type="curve" smooth="yes"/>
      <point x="704" y="0"/>
      <point x="728" y="0"/>
    </contour>
  </outline>
</glyph>
<glyph name="n" format="1">
  <advance width="600"/>
  <unicode hex="006E"/>
  <outline>
    <contour>
      <point x="182" y="0" type="curve"/>
      <point x="182" y="519" type="line" smooth="yes"/>
      <point x="182" y="522"/>
      <point x="181" y="525"/>
      <point x="179" y="527" type="curve" smooth="yes"/>
      <point x="177" y="529"/>
      <point x="174" y="530"/>
      <point x="171" y="530" type="curve" smooth="yes"/>
      <point x="148" y="530"/>
      <point x="124" y="530"/>
      <point x="97" y="530" type="curve"/>
      <point x="97" y="511"/>
      <point x="97" y="475"/>
      <point x="97" y="431" type="curve" smooth="yes"/>
      <point x="97" y="11" type="line" smooth="yes"/>
      <point x="97" y="5"/>
      <point x="102" y="0"/>
      <point x="108" y="0" type="curve" smooth="yes"/>
      <point x="133" y="0"/>
      <point x="157" y="0"/>
    </contour>
    <contour>
      <point x="368" y="541" type="curve" smooth="yes"/>
      <point x="296" y="541"/>
      <point x="239" y="506"/>
      <point x="180" y="441" type="curve" smooth="yes"/>
      <point x="159" y="418"/>
      <point x="144" y="382"/>
      <point x="153" y="336" type="curve"/>
      <point x="233" y="425"/>
      <point x="286" y="459"/>
      <point x="347" y="459" type="curve" smooth="yes"/>
      <point x="392" y="459"/>
      <point x="422" y="429"/>
      <point x="422" y="371" type="curve"/>
      <point x="496" y="372"/>
      <point x="506" y="384"/>
      <point x="506" y="396" type="curve" smooth="yes"/>
      <point x="506" y="475"/>
      <point x="454" y="541"/>
    </contour>
    <contour>
      <point x="506" y="0" type="curve"/>
      <point x="506" y="33"/>
      <point x="506" y="66"/>
      <point x="506" y="98" type="curve" smooth="yes"/>
      <point x="506" y="396" type="line"/>
      <point x="506" y="428"/>
      <point x="464" y="458"/>
      <point x="414" y="443" type="curve"/>
      <point x="420" y="421"/>
      <point x="422" y="409"/>
      <point x="422" y="371" type="curve" smooth="yes"/>
      <point x="422" y="11" type="line" smooth="yes"/>
      <point x="422" y="5"/>
      <point x="427" y="0"/>
      <point x="433" y="0" type="curve" smooth="yes"/>
      <point x="457" y="0"/>
      <point x="481" y="0"/>
    </contour>
    <contour>
      <point x="76" y="698" type="move" name="caronslovak"/>
    </contour>
    <contour>
      <point x="300" y="541" type="move" name="top"/>
    </contour>
    <contour>
      <point x="301" y="-1" type="move" name="bottom"/>
    </contour>
  </outline>
</glyph>
<glyph name="p" format="1">
  <advance width="600"/>
  <unicode hex="0070"/>
  <outline>
    <contour>
      <point x="180" y="-214" type="curve"/>
      <point x="180" y="519" type="line" smooth="yes"/>
      <point x="180" y="522"/>
      <point x="179" y="525"/>
      <point x="177" y="527" type="curve" smooth="yes"/>
      <point x="175" y="529"/>
      <point x="172" y="530"/>
      <point x="169" y="530" type="curve"/>
      <point x="145" y="530"/>
      <point x="121" y="530"/>
      <point x="97" y="530" type="curve"/>
      <point x="97" y="497"/>
      <point x="97" y="464"/>
      <point x="97" y="430" type="curve" smooth="yes"/>
      <point x="97" y="-203" type="line" smooth="yes"/>
      <point x="97" y="-209"/>
      <point x="102" y="-214"/>
      <point x="108" y="-214" type="curve"/>
      <point x="132" y="-214"/>
      <point x="156" y="-214"/>
    </contour>
    <contour>
      <point x="358" y="541" type="curve" smooth="yes"/>
      <point x="295" y="541"/>
      <point x="235" y="514"/>
      <point x="180" y="458" type="curve" smooth="yes"/>
      <point x="153" y="430"/>
      <point x="146" y="396"/>
      <point x="154" y="365" type="curve"/>
      <point x="229" y="436"/>
      <point x="279" y="463"/>
      <point x="340" y="463" type="curve" smooth="yes"/>
      <point x="410" y="463"/>
      <point x="448" y="412"/>
      <point x="448" y="320" type="curve"/>
      <point x="488" y="322"/>
      <point x="531" y="325"/>
      <point x="531" y="340" type="curve" smooth="yes"/>
      <point x="531" y="461"/>
      <point x="467" y="541"/>
    </contour>
    <contour>
      <point x="337" y="-10" type="curve" smooth="yes"/>
      <point x="460" y="-10"/>
      <point x="531" y="71"/>
      <point x="531" y="213" type="curve" smooth="yes"/>
      <point x="531" y="340" type="line" smooth="yes"/>
      <point x="531" y="395"/>
      <point x="488" y="465"/>
      <point x="447" y="465" type="curve" smooth="yes"/>
      <point x="430" y="465"/>
      <point x="421" y="460"/>
      <point x="420" y="450" type="curve"/>
      <point x="439" y="411"/>
      <point x="448" y="373"/>
      <point x="448" y="320" type="curve" smooth="yes"/>
      <point x="448" y="218" type="line" smooth="yes"/>
      <point x="448" y="116"/>
      <point x="408" y="67"/>
      <point x="323" y="67" type="curve" smooth="yes"/>
      <point x="263" y="67"/>
      <point x="220" y="85"/>
      <point x="166" y="143" type="curve"/>
      <point x="155" y="137"/>
      <point x="148" y="113"/>
      <point x="153" y="100" type="curve" smooth="yes"/>
      <point x="174" y="39"/>
      <point x="249" y="-10"/>
    </contour>
  </outline>
</glyph>
<glyph name="q" format="1">
  <advance width="600"/>
  <unicode hex="0071"/>
  <outline>
    <contour>
      <point x="260" y="541" type="curve" smooth="yes"/>
      <point x="141" y="541"/>
      <point x="69" y="457"/>
      <point x="69" y="313" type="curve" smooth="yes"/>
      <point x="69" y="189" type="line" smooth="yes"/>
      <point x="69" y="137"/>
      <point x="110" y="69"/>
      <point x="150" y="69" type="curve" smooth="yes"/>
      <point x="166" y="69"/>
      <point x="176" y="74"/>
      <point x="177" y="84" type="curve"/>
      <point x="159" y="121"/>
      <point x="152" y="152"/>
      <point x="152" y="209" type="curve" smooth="yes"/>
      <point x="152" y="296" type="line" smooth="yes"/>
      <point x="152" y="402"/>
      <point x="188" y="460"/>
      <point x="277" y="460" type="curve" smooth="yes"/>
      <point x="348" y="460"/>
      <point x="388" y="417"/>
      <point x="428" y="356" type="curve"/>
      <point x="445" y="357"/>
      <point x="453" y="377"/>
      <point x="448" y="397" type="curve" smooth="yes"/>
      <point x="432" y="461"/>
      <point x="362" y="541"/>
    </contour>
    <contour>
      <point x="240" y="-10" type="curve" smooth="yes"/>
      <point x="316" y="-10"/>
      <point x="370" y="22"/>
      <point x="425" y="81" type="curve" smooth="yes"/>
      <point x="453" y="111"/>
      <point x="456" y="149"/>
      <point x="449" y="178" type="curve"/>
      <point x="371" y="101"/>
      <point x="324" y="69"/>
      <point x="260" y="69" type="curve" smooth="yes"/>
      <point x="190" y="69"/>
      <point x="152" y="120"/>
      <point x="152" y="209" type="curve"/>
      <point x="95" y="216"/>
      <point x="69" y="197"/>
      <point x="69" y="189" type="curve" smooth="yes"/>
      <point x="69" y="66"/>
      <point x="141" y="-10"/>
    </contour>
    <contour>
      <point x="503" y="-214" type="curve"/>
      <point x="503" y="430" type="line" smooth="yes"/>
      <point x="503" y="463"/>
      <point x="503" y="497"/>
      <point x="503" y="530" type="curve"/>
      <point x="479" y="530"/>
      <point x="455" y="530"/>
      <point x="431" y="530" type="curve" smooth="yes"/>
      <point x="428" y="530"/>
      <point x="425" y="529"/>
      <point x="423" y="527" type="curve" smooth="yes"/>
      <point x="421" y="525"/>
      <point x="420" y="522"/>
      <point x="420" y="519" type="curve" smooth="yes"/>
      <point x="420" y="-203" type="line" smooth="yes"/>
      <point x="420" y="-209"/>
      <point x="425" y="-214"/>
      <point x="431" y="-214" type="curve" smooth="yes"/>
      <point x="455" y="-214"/>
      <point x="479" y="-214"/>
    </contour>
  </outline>
</glyph>
<glyph name="r" format="1">
  <advance width="450"/>
  <unicode hex="0072"/>
  <outline>
    <contour>
      <point x="182" y="0" type="curve"/>
      <point x="182" y="519" type="line" smooth="yes"/>
      <point x="182" y="522"/>
      <point x="181" y="525"/>
      <point x="179" y="527" type="curve" smooth="yes"/>
      <point x="177" y="529"/>
      <point x="174" y="530"/>
      <point x="171" y="530" type="curve" smooth="yes"/>
      <point x="148" y="530"/>
      <point x="124" y="530"/>
      <point x="97" y="530" type="curve"/>
      <point x="97" y="511"/>
      <point x="97" y="475"/>
      <point x="97" y="431" type="curve" smooth="yes"/>
      <point x="97" y="11" type="line" smooth="yes"/>
      <point x="97" y="5"/>
      <point x="102" y="0"/>
      <point x="108" y="0" type="curve" smooth="yes"/>
      <point x="133" y="0"/>
      <point x="157" y="0"/>
    </contour>
    <contour>
      <point x="160" y="331" type="curve"/>
      <point x="246" y="432"/>
      <point x="294" y="450"/>
      <point x="363" y="450" type="curve" smooth="yes"/>
      <point x="380" y="450"/>
      <point x="397" y="450"/>
      <point x="413" y="450" type="curve"/>
      <point x="423" y="450" type="line"/>
      <point x="423" y="476"/>
      <point x="423" y="500"/>
      <point x="423" y="527" type="curve"/>
      <point x="423" y="534"/>
      <point x="419" y="538"/>
      <point x="412" y="538" type="curve" smooth="yes"/>
      <point x="373" y="538" type="line" smooth="yes"/>
      <point x="290" y="538"/>
      <point x="232" y="501"/>
      <point x="177" y="426" type="curve" smooth="yes"/>
      <point x="157" y="395"/>
      <point x="153" y="364"/>
    </contour>
    <contour>
      <point x="260" y="541" type="move" name="top"/>
    </contour>
    <contour>
      <point x="141" y="-1" type="move" name="bottom"/>
    </contour>
  </outline>
</glyph>
<glyph name="t" format="1">
  <advance width="500"/>
  <unicode hex="0074"/>
  <outline>
    <contour>
      <point x="153" y="700" type="curve"/>
      <point x="153" y="199" type="line" smooth="yes"/>
      <point x="153" y="109"/>
      <point x="200" y="34"/>
      <point x="285" y="48" type="curve"/>
      <point x="247" y="101"/>
      <point x="234" y="124"/>
      <point x="234" y="207" type="curve" smooth="yes"/>
      <point x="234" y="689" type="line" smooth="yes"/>
      <point x="234" y="695"/>
      <point x="229" y="700"/>
      <point x="223" y="700" type="curve" smooth="yes"/>
      <point x="200" y="700"/>
      <point x="177" y="700"/>
    </contour>
    <contour>
      <point x="433" y="77" type="curve"/>
      <point x="420" y="77" type="line"/>
      <point x="398" y="77"/>
      <point x="388" y="77"/>
      <point x="352" y="77" type="curve" smooth="yes"/>
      <point x="268" y="77"/>
      <point x="234" y="111"/>
      <point x="234" y="207" type="curve"/>
      <point x="167" y="223"/>
      <point x="153" y="214"/>
      <point x="153" y="199" type="curve" smooth="yes"/>
      <point x="153" y="58"/>
      <point x="222" y="0"/>
      <point x="348" y="0" type="curve" smooth="yes"/>
      <point x="422" y="0" type="line" smooth="yes"/>
      <point x="426" y="0"/>
      <point x="428" y="1"/>
      <point x="430" y="3" type="curve" smooth="yes"/>
      <point x="432" y="5"/>
      <point x="433" y="7"/>
      <point x="433" y="11" type="curve" smooth="yes"/>
      <point x="433" y="34"/>
      <point x="433" y="54"/>
    </contour>
    <contour>
      <point x="47" y="530" type="line"/>
      <point x="47" y="507"/>
      <point x="47" y="489"/>
      <point x="47" y="465" type="curve" smooth="yes"/>
      <point x="47" y="462"/>
      <point x="48" y="459"/>
      <point x="50" y="457" type="curve" smooth="yes"/>
      <point x="52" y="455"/>
      <point x="55" y="454"/>
      <point x="58" y="454" type="curve"/>
      <point x="433" y="454" type="line"/>
      <point x="433" y="478"/>
      <point x="433" y="496"/>
      <point x="433" y="519" type="curve" smooth="yes"/>
      <point x="433" y="525"/>
      <point x="428" y="530"/>
      <point x="422" y="530" type="curve"/>
    </contour>
    <contour>
      <point x="392" y="711" type="move" name="caronslovak"/>
    </contour>
    <contour>
      <point x="292" y="-1" type="move" name="bottom"/>
    </contour>
  </outline>
</glyph>
<glyph name="u" format="1">
  <advance width="600"/>
  <unicode hex="0075"/>
  <outline>
    <contour>
      <point x="421" y="530" type="curve"/>
      <point x="421" y="11" type="line" smooth="yes"/>
      <point x="421" y="8"/>
      <point x="422" y="5"/>
      <point x="424" y="3" type="curve" smooth="yes"/>
      <point x="426" y="1"/>
      <point x="429" y="0"/>
      <point x="432" y="0" type="curve" smooth="yes"/>
      <point x="455" y="0"/>
      <point x="479" y="0"/>
      <point x="505" y="0" type="curve"/>
      <point x="505" y="20"/>
      <point x="505" y="55"/>
      <point x="505" y="99" type="curve" smooth="yes"/>
      <point x="505" y="519" type="line" smooth="yes"/>
      <point x="505" y="525"/>
      <point x="500" y="530"/>
      <point x="494" y="530" type="curve" smooth="yes"/>
      <point x="470" y="530"/>
      <point x="445" y="530"/>
    </contour>
    <contour>
      <point x="235" y="-11" type="curve" smooth="yes"/>
      <point x="305" y="-11"/>
      <point x="367" y="27"/>
      <point x="425" y="93" type="curve" smooth="yes"/>
      <point x="446" y="117"/>
      <point x="458" y="149"/>
      <point x="449" y="195" type="curve"/>
      <point x="370" y="106"/>
      <point x="317" y="72"/>
      <point x="254" y="72" type="curve" smooth="yes"/>
      <point x="208" y="72"/>
      <point x="181" y="99"/>
      <point x="181" y="166" type="curve"/>
      <point x="107" y="166"/>
      <point x="97" y="156"/>
      <point x="97" y="145" type="curve" smooth="yes"/>
      <point x="97" y="52"/>
      <point x="146" y="-11"/>
    </contour>
    <contour>
      <point x="97" y="530" type="curve"/>
      <point x="97" y="497"/>
      <point x="97" y="464"/>
      <point x="97" y="432" type="curve" smooth="yes"/>
      <point x="97" y="145" type="line"/>
      <point x="97" y="110"/>
      <point x="139" y="73"/>
      <point x="189" y="87" type="curve"/>
      <point x="183" y="111"/>
      <point x="181" y="124"/>
      <point x="181" y="166" type="curve" smooth="yes"/>
      <point x="181" y="519" type="line" smooth="yes"/>
      <point x="181" y="525"/>
      <point x="176" y="530"/>
      <point x="170" y="530" type="curve" smooth="yes"/>
      <point x="146" y="530"/>
      <point x="121" y="530"/>
    </contour>
    <contour>
      <point x="300" y="541" type="move" name="top"/>
    </contour>
    <contour>
      <point x="506" y="0" type="move" name="ogonek"/>
    </contour>
    <contour>
      <point x="273" y="-1" type="move" name="bottom"/>
    </contour>
  </outline>
</glyph>
<glyph name="v" format="1">
  <advance width="600"/>
  <unicode hex="0076"/>
  <outline>
    <contour>
      <point x="539" y="530" type="curve" smooth="yes"/>
      <point x="465" y="530" type="line"/>
      <point x="410" y="370"/>
      <point x="355" y="210"/>
      <point x="298" y="49" type="curve"/>
      <point x="289" y="18"/>
      <point x="282" y="9"/>
      <point x="266" y="0" type="curve"/>
      <point x="362" y="0" type="line"/>
      <point x="425" y="173"/>
      <point x="486" y="344"/>
      <point x="548" y="517" type="curve"/>
      <point x="551" y="525"/>
      <point x="546" y="530"/>
    </contour>
    <contour>
      <point x="127" y="530" type="curve" smooth="yes"/>
      <point x="48" y="530" type="line"/>
      <point x="110" y="357"/>
      <point x="171" y="185"/>
      <point x="233" y="12" type="curve"/>
      <point x="236" y="4"/>
      <point x="242" y="0"/>
      <point x="249" y="0" type="curve" smooth="yes"/>
      <point x="274" y="0" type="line" smooth="yes"/>
      <point x="303" y="0"/>
      <point x="362" y="20"/>
      <point x="365" y="78" type="curve"/>
      <point x="341" y="78"/>
      <point x="322" y="78"/>
      <point x="302" y="78" type="curve" smooth="yes"/>
      <point x="296" y="78"/>
      <point x="293" y="81"/>
      <point x="291" y="87" type="curve"/>
      <point x="240" y="232"/>
      <point x="189" y="376"/>
      <point x="138" y="521" type="curve"/>
      <point x="136" y="528"/>
      <point x="133" y="530"/>
    </contour>
  </outline>
</glyph>
<glyph name="w" format="1">
  <advance width="800"/>
  <unicode hex="0077"/>
  <outline>
    <contour>
      <point x="44" y="530" type="curve"/>
      <point x="89" y="358"/>
      <point x="134" y="185"/>
      <point x="178" y="12" type="curve"/>
      <point x="181" y="3"/>
      <point x="187" y="0"/>
      <point x="194" y="0" type="curve"/>
      <point x="225" y="0" type="line" smooth="yes"/>
      <point x="247" y="10"/>
      <point x="249" y="27"/>
      <point x="248" y="38" type="curve"/>
      <point x="209" y="198"/>
      <point x="170" y="359"/>
      <point x="131" y="520" type="curve"/>
      <point x="130" y="525"/>
      <point x="129" y="526"/>
      <point x="127" y="528" type="curve" smooth="yes"/>
      <point x="125" y="529"/>
      <point x="123" y="530"/>
      <point x="119" y="530" type="curve"/>
      <point x="94" y="530"/>
      <point x="69" y="530"/>
    </contour>
    <contour>
      <point x="358" y="530" type="curve"/>
      <point x="314" y="371"/>
      <point x="270" y="209"/>
      <point x="225" y="49" type="curve"/>
      <point x="216" y="21"/>
      <point x="213" y="14"/>
      <point x="206" y="0" type="curve"/>
      <point x="284" y="0" type="line"/>
      <point x="332" y="165"/>
      <point x="378" y="330"/>
      <point x="426" y="495" type="curve"/>
      <point x="428" y="522"/>
      <point x="431" y="529"/>
      <point x="430" y="530" type="curve" smooth="yes"/>
      <point x="411" y="530"/>
      <point x="377" y="530"/>
    </contour>
    <contour>
      <point x="377" y="488" type="curve"/>
      <point x="422" y="330"/>
      <point x="467" y="170"/>
      <point x="512" y="12" type="curve"/>
      <point x="514" y="4"/>
      <point x="520" y="0"/>
      <point x="527" y="0" type="curve"/>
      <point x="562" y="0" type="line" smooth="yes"/>
      <point x="576" y="13"/>
      <point x="579" y="27"/>
      <point x="579" y="34" type="curve"/>
      <point x="534" y="196"/>
      <point x="490" y="356"/>
      <point x="445" y="518" type="curve"/>
      <point x="443" y="526"/>
      <point x="437" y="530"/>
      <point x="430" y="530" type="curve" smooth="yes"/>
      <point x="422" y="530"/>
      <point x="413" y="526"/>
    </contour>
    <contour>
      <point x="673" y="530" type="curve"/>
      <point x="634" y="372"/>
      <point x="594" y="211"/>
      <point x="554" y="53" type="curve"/>
      <point x="548" y="26"/>
      <point x="544" y="17"/>
      <point x="539" y="0" type="curve"/>
      <point x="618" y="0" type="line"/>
      <point x="663" y="170"/>
      <point x="708" y="341"/>
      <point x="753" y="512" type="curve"/>
      <point x="756" y="521"/>
      <point x="755" y="526"/>
      <point x="753" y="528" type="curve" smooth="yes"/>
      <point x="751" y="529"/>
      <point x="749" y="530"/>
      <point x="745" y="530" type="curve"/>
      <point x="720" y="530"/>
      <point x="698" y="530"/>
    </contour>
    <contour>
      <point x="399" y="541" type="move" name="top"/>
    </contour>
  </outline>
</glyph>
<glyph name="x" format="1">
  <advance width="600"/>
  <unicode hex="0078"/>
  <outline>
    <contour>
      <point x="448" y="0" type="curve" smooth="yes"/>
      <point x="476" y="0"/>
      <point x="505" y="0"/>
      <point x="533" y="0" type="curve"/>
      <point x="469" y="95"/>
      <point x="404" y="189"/>
      <point x="340" y="284" type="curve" smooth="yes"/>
      <point x="334" y="293"/>
      <point x="325" y="299"/>
      <point x="319" y="308" type="curve" smooth="yes"/>
      <point x="272" y="378"/>
      <point x="224" y="448"/>
      <point x="176" y="518" type="curve" smooth="yes"/>
      <point x="171" y="525"/>
      <point x="164" y="530"/>
      <point x="155" y="530" type="curve" smooth="yes"/>
      <point x="127" y="530"/>
      <point x="98" y="530"/>
      <point x="70" y="530" type="curve"/>
      <point x="133" y="438"/>
      <point x="195" y="346"/>
      <point x="258" y="254" type="curve" smooth="yes"/>
      <point x="265" y="244"/>
      <point x="273" y="239"/>
      <point x="280" y="230" type="curve" smooth="yes"/>
      <point x="329" y="157"/>
      <point x="378" y="85"/>
      <point x="427" y="12" type="curve" smooth="yes"/>
      <point x="432" y="5"/>
      <point x="439" y="0"/>
    </contour>
    <contour>
      <point x="509" y="530" type="curve" smooth="yes"/>
      <point x="434" y="530" type="line"/>
      <point x="386" y="455"/>
      <point x="338" y="380"/>
      <point x="290" y="304" type="curve" smooth="yes"/>
      <point x="284" y="293"/>
      <point x="267" y="303"/>
      <point x="260" y="292" type="curve" smooth="yes"/>
      <point x="200" y="204"/>
      <point x="140" y="116"/>
      <point x="80" y="27" type="curve" smooth="yes"/>
      <point x="75" y="19"/>
      <point x="72" y="14"/>
      <point x="72" y="10" type="curve" smooth="yes"/>
      <point x="72" y="3"/>
      <point x="76" y="0"/>
      <point x="84" y="0" type="curve" smooth="yes"/>
      <point x="159" y="0" type="line"/>
      <point x="210" y="78"/>
      <point x="259" y="154"/>
      <point x="310" y="232" type="curve" smooth="yes"/>
      <point x="317" y="245"/>
      <point x="331" y="235"/>
      <point x="339" y="247" type="curve" smooth="yes"/>
      <point x="399" y="334"/>
      <point x="458" y="423"/>
      <point x="517" y="510" type="curve" smooth="yes"/>
      <point x="520" y="515"/>
      <point x="521" y="518"/>
      <point x="521" y="521" type="curve" smooth="yes"/>
      <point x="521" y="528"/>
      <point x="516" y="530"/>
    </contour>
  </outline>
</glyph>
<glyph name="y" format="1">
  <advance width="600"/>
  <unicode hex="0079"/>
  <outline>
    <contour>
      <point x="539" y="530" type="curve" smooth="yes"/>
      <point x="514" y="530"/>
      <point x="491" y="530"/>
      <point x="470" y="530" type="curve"/>
      <point x="404" y="318"/>
      <point x="294" y="-30"/>
      <point x="270" y="-107" type="curve" smooth="yes"/>
      <point x="256" y="-153"/>
      <point x="226" y="-173"/>
      <point x="181" y="-173" type="curve" smooth="yes"/>
      <point x="88" y="-173" type="line"/>
      <point x="88" y="-239" type="line" smooth="yes"/>
      <point x="88" y="-247"/>
      <point x="92" y="-250"/>
      <point x="99" y="-250" type="curve" smooth="yes"/>
      <point x="186" y="-250" type="line" smooth="yes"/>
      <point x="271" y="-250"/>
      <point x="316" y="-212"/>
      <point x="344" y="-121" type="curve" smooth="yes"/>
      <point x="399" y="56"/>
      <point x="483" y="308"/>
      <point x="551" y="514" type="curve" smooth="yes"/>
      <point x="554" y="524"/>
      <point x="546" y="530"/>
    </contour>
    <contour>
      <point x="121" y="530" type="curve" smooth="yes"/>
      <point x="94" y="530"/>
      <point x="70" y="530"/>
      <point x="46" y="530" type="curve"/>
      <point x="111" y="361"/>
      <point x="244" y="17"/>
      <point x="247" y="8" type="curve" smooth="yes"/>
      <point x="249" y="3"/>
      <point x="252" y="0"/>
      <point x="258" y="0" type="curve" smooth="yes"/>
      <point x="330" y="0" type="line" smooth="yes"/>
      <point x="350" y="0"/>
      <point x="365" y="16"/>
      <point x="366" y="71" type="curve"/>
      <point x="314" y="71" type="line"/>
      <point x="310" y="71"/>
      <point x="307" y="74"/>
      <point x="305" y="80" type="curve" smooth="yes"/>
      <point x="299" y="96"/>
      <point x="162" y="450"/>
      <point x="140" y="518" type="curve" smooth="yes"/>
      <point x="136" y="528"/>
      <point x="132" y="530"/>
    </contour>
    <contour>
      <point x="314" y="541" type="move" name="top"/>
    </contour>
  </outline>
</glyph>
<glyph name="z" format="1">
  <advance width="550"/>
  <unicode hex="007A"/>
  <outline>
    <contour>
      <point x="75" y="530" type="line"/>
      <point x="75" y="508"/>
      <point x="75" y="486"/>
      <point x="75" y="464" type="curve" smooth="yes"/>
      <point x="75" y="461"/>
      <point x="76" y="458"/>
      <point x="78" y="456" type="curve" smooth="yes"/>
      <point x="80" y="454"/>
      <point x="83" y="453"/>
      <point x="86" y="453" type="curve" smooth="yes"/>
      <point x="389" y="453" type="line" smooth="yes"/>
      <point x="415" y="453"/>
      <point x="453" y="454"/>
      <point x="475" y="457" type="curve"/>
      <point x="475" y="519" type="line" smooth="yes"/>
      <point x="475" y="522"/>
      <point x="474" y="525"/>
      <point x="472" y="527" type="curve" smooth="yes"/>
      <point x="470" y="529"/>
      <point x="467" y="530"/>
      <point x="464" y="530" type="curve" smooth="yes"/>
    </contour>
    <contour>
      <point x="405" y="489" type="curve"/>
      <point x="294" y="350"/>
      <point x="185" y="212"/>
      <point x="75" y="73" type="curve"/>
      <point x="75" y="17"/>
      <point x="131" y="28"/>
      <point x="156" y="52" type="curve" smooth="yes"/>
      <point x="267" y="193"/>
      <point x="475" y="456"/>
      <point x="475" y="457" type="curve"/>
      <point x="475" y="479"/>
      <point x="454" y="489"/>
    </contour>
    <contour>
      <point x="475" y="0" type="line"/>
      <point x="475" y="23"/>
      <point x="475" y="44"/>
      <point x="475" y="67" type="curve"/>
      <point x="475" y="73"/>
      <point x="470" y="78"/>
      <point x="464" y="78" type="curve" smooth="yes"/>
      <point x="163" y="78" type="line" smooth="yes"/>
      <point x="132" y="78"/>
      <point x="107" y="78"/>
      <point x="75" y="73" type="curve"/>
      <point x="75" y="11" type="line" smooth="yes"/>
      <point x="75" y="8"/>
      <point x="76" y="5"/>
      <point x="78" y="3" type="curve" smooth="yes"/>
      <point x="80" y="1"/>
      <point x="83" y="0"/>
      <point x="86" y="0" type="curve" smooth="yes"/>
    </contour>
    <contour>
      <point x="275" y="541" type="move" name="top"/>
    </contour>
  </outline>
</glyph>
<glyph name="braceleft" format="1">
  <advance width="500"/>
  <unicode hex="007B"/>
  <outline>
    <contour>
      <point x="319" y="681" type="curve" smooth="yes"/>
      <point x="378" y="681"/>
      <point x="404" y="681"/>
      <point x="458" y="681" type="curve"/>
      <point x="478" y="681" type="line"/>
      <point x="478" y="704"/>
      <point x="478" y="726"/>
      <point x="478" y="749" type="curve"/>
      <point x="478" y="756"/>
      <point x="474" y="760"/>
      <point x="467" y="760" type="curve" smooth="yes"/>
      <point x="296" y="760" type="line" smooth="yes"/>
      <point x="217" y="760"/>
      <point x="190" y="700"/>
      <point x="190" y="664" type="curve" smooth="yes"/>
      <point x="190" y="660" type="line" smooth="yes"/>
      <point x="190" y="650"/>
      <point x="199" y="648"/>
      <point x="269" y="633" type="curve"/>
      <point x="274" y="667"/>
      <point x="287" y="681"/>
    </contour>
    <contour>
      <point x="343" y="447" type="curve" smooth="yes"/>
      <point x="343" y="533"/>
      <point x="272" y="564"/>
      <point x="272" y="614" type="curve" smooth="yes"/>
      <point x="272" y="629"/>
      <point x="272" y="662"/>
      <point x="272" y="683" type="curve"/>
      <point x="194" y="674"/>
      <point x="190" y="670"/>
      <point x="190" y="664" type="curve" smooth="yes"/>
      <point x="190" y="614" type="line" smooth="yes"/>
      <point x="190" y="536"/>
      <point x="262" y="513"/>
      <point x="262" y="445" type="curve" smooth="yes"/>
      <point x="262" y="379"/>
      <point x="188" y="339"/>
      <point x="67" y="339" type="curve" smooth="yes"/>
      <point x="35" y="339" type="line"/>
      <point x="35" y="288" type="line" smooth="yes"/>
      <point x="35" y="280"/>
      <point x="42" y="274"/>
      <point x="51" y="274" type="curve" smooth="yes"/>
      <point x="67" y="274" type="line" smooth="yes"/>
      <point x="244" y="274"/>
      <point x="343" y="347"/>
    </contour>
    <contour>
      <point x="343" y="152" type="curve" smooth="yes"/>
      <point x="343" y="253"/>
      <point x="248" y="326"/>
      <point x="67" y="326" type="curve" smooth="yes"/>
      <point x="56" y="326"/>
      <point x="46" y="326"/>
      <point x="35" y="326" type="curve"/>
      <point x="35" y="272" type="line" smooth="yes"/>
      <point x="35" y="265"/>
      <point x="39" y="261"/>
      <point x="46" y="261" type="curve" smooth="yes"/>
      <point x="67" y="261" type="line" smooth="yes"/>
      <point x="188" y="261"/>
      <point x="262" y="218"/>
      <point x="262" y="153" type="curve" smooth="yes"/>
      <point x="262" y="85"/>
      <point x="190" y="63"/>
      <point x="190" y="-15" type="curve" smooth="yes"/>
      <point x="190" y="-65" type="line" smooth="yes"/>
      <point x="190" y="-70"/>
      <point x="196" y="-75"/>
      <point x="272" y="-81" type="curve"/>
      <point x="272" y="-59"/>
      <point x="272" y="-37"/>
      <point x="272" y="-15" type="curve" smooth="yes"/>
      <point x="272" y="35"/>
      <point x="343" y="66"/>
    </contour>
    <contour>
      <point x="319" y="-82" type="curve" smooth="yes"/>
      <point x="287" y="-82"/>
      <point x="274" y="-68"/>
      <point x="269" y="-34" type="curve"/>
      <point x="199" y="-49"/>
      <point x="190" y="-51"/>
      <point x="190" y="-61" type="curve" smooth="yes"/>
      <point x="190" y="-65" type="line" smooth="yes"/>
      <point x="190" y="-101"/>
      <point x="217" y="-161"/>
      <point x="296" y="-161" type="curve" smooth="yes"/>
      <point x="467" y="-161" type="line" smooth="yes"/>
      <point x="474" y="-161"/>
      <point x="478" y="-157"/>
      <point x="478" y="-150" type="curve"/>
      <point x="478" y="-82" type="line"/>
      <point x="458" y="-82" type="line"/>
      <point x="404" y="-82"/>
      <point x="378" y="-82"/>
    </contour>
  </outline>
</glyph>
<glyph name="bar" format="1">
  <advance width="300"/>
  <unicode hex="007C"/>
  <outline>
    <contour>
      <point x="108" y="760" type="curve"/>
      <point x="108" y="726"/>
      <point x="108" y="692"/>
      <point x="108" y="658" type="curve" smooth="yes"/>
      <point x="108" y="-150" type="line" smooth="yes"/>
      <point x="108" y="-156"/>
      <point x="113" y="-161"/>
      <point x="119" y="-161" type="curve" smooth="yes"/>
      <point x="143" y="-161"/>
      <point x="168" y="-161"/>
      <point x="192" y="-161" type="curve"/>
      <point x="192" y="749" type="line" smooth="yes"/>
      <point x="192" y="752"/>
      <point x="191" y="755"/>
      <point x="189" y="757" type="curve" smooth="yes"/>
      <point x="187" y="759"/>
      <point x="184" y="760"/>
      <point x="181" y="760" type="curve" smooth="yes"/>
      <point x="157" y="760"/>
      <point x="132" y="760"/>
    </contour>
  </outline>
</glyph>
<glyph name="braceright" format="1">
  <advance width="500"/>
  <unicode hex="007D"/>
  <outline>
    <contour>
      <point x="181" y="-70" type="curve" smooth="yes"/>
      <point x="122" y="-70"/>
      <point x="96" y="-70"/>
      <point x="42" y="-70" type="curve"/>
      <point x="22" y="-70" type="line"/>
      <point x="22" y="-92"/>
      <point x="22" y="-115"/>
      <point x="22" y="-137" type="curve"/>
      <point x="22" y="-144"/>
      <point x="26" y="-148"/>
      <point x="33" y="-148" type="curve" smooth="yes"/>
      <point x="204" y="-148" type="line" smooth="yes"/>
      <point x="283" y="-148"/>
      <point x="310" y="-89"/>
      <point x="310" y="-52" type="curve" smooth="yes"/>
      <point x="310" y="-48" type="line" smooth="yes"/>
      <point x="310" y="-39"/>
      <point x="301" y="-36"/>
      <point x="231" y="-21" type="curve"/>
      <point x="226" y="-56"/>
      <point x="213" y="-70"/>
    </contour>
    <contour>
      <point x="157" y="165" type="curve" smooth="yes"/>
      <point x="157" y="79"/>
      <point x="228" y="48"/>
      <point x="228" y="-3" type="curve" smooth="yes"/>
      <point x="228" y="-17"/>
      <point x="228" y="-51"/>
      <point x="228" y="-71" type="curve"/>
      <point x="306" y="-62"/>
      <point x="310" y="-58"/>
      <point x="310" y="-52" type="curve" smooth="yes"/>
      <point x="310" y="-2" type="line" smooth="yes"/>
      <point x="310" y="75"/>
      <point x="238" y="99"/>
      <point x="238" y="166" type="curve" smooth="yes"/>
      <point x="238" y="232"/>
      <point x="312" y="272"/>
      <point x="433" y="272" type="curve" smooth="yes"/>
      <point x="465" y="272" type="line"/>
      <point x="465" y="323" type="line" smooth="yes"/>
      <point x="465" y="332"/>
      <point x="458" y="338"/>
      <point x="449" y="338" type="curve" smooth="yes"/>
      <point x="433" y="338" type="line" smooth="yes"/>
      <point x="256" y="338"/>
      <point x="157" y="265"/>
    </contour>
    <contour>
      <point x="157" y="460" type="curve" smooth="yes"/>
      <point x="157" y="358"/>
      <point x="252" y="285"/>
      <point x="433" y="285" type="curve" smooth="yes"/>
      <point x="444" y="285"/>
      <point x="454" y="285"/>
      <point x="465" y="285" type="curve"/>
      <point x="465" y="340" type="line" smooth="yes"/>
      <point x="465" y="347"/>
      <point x="461" y="351"/>
      <point x="454" y="351" type="curve" smooth="yes"/>
      <point x="433" y="351" type="line" smooth="yes"/>
      <point x="312" y="351"/>
      <point x="238" y="393"/>
      <point x="238" y="459" type="curve" smooth="yes"/>
      <point x="238" y="526"/>
      <point x="310" y="549"/>
      <point x="310" y="626" type="curve" smooth="yes"/>
      <point x="310" y="676" type="line" smooth="yes"/>
      <point x="310" y="682"/>
      <point x="304" y="686"/>
      <point x="228" y="693" type="curve"/>
      <point x="228" y="671"/>
      <point x="228" y="648"/>
      <point x="228" y="627" type="curve" smooth="yes"/>
      <point x="228" y="577"/>
      <point x="157" y="546"/>
    </contour>
    <contour>
      <point x="181" y="694" type="curve" smooth="yes"/>
      <point x="213" y="694"/>
      <point x="226" y="680"/>
      <point x="231" y="645" type="curve"/>
      <point x="301" y="660"/>
      <point x="310" y="663"/>
      <point x="310" y="672" type="curve" smooth="yes"/>
      <point x="310" y="676" type="line" smooth="yes"/>
      <point x="310" y="713"/>
      <point x="283" y="773"/>
      <point x="204" y="773" type="curve" smooth="yes"/>
      <point x="33" y="773" type="line" smooth="yes"/>
      <point x="26" y="773"/>
      <point x="22" y="769"/>
      <point x="22" y="762" type="curve"/>
      <point x="22" y="694" type="line"/>
      <point x="42" y="694" type="line"/>
      <point x="96" y="694"/>
      <point x="122" y="694"/>
    </contour>
  </outline>
</glyph>
<glyph name="asciitilde" format="1">
  <advance width="600"/>
  <unicode hex="007E"/>
  <outline>
    <contour>
      <point x="426" y="289" type="curve" smooth="yes"/>
      <point x="343" y="289"/>
      <point x="276" y="389"/>
      <point x="176" y="389" type="curve" smooth="yes"/>
      <point x="123" y="389"/>
      <point x="90" y="372"/>
      <point x="65" y="346" type="curve" smooth="yes"/>
      <point x="57" y="337"/>
      <point x="57" y="332"/>
      <point x="57" y="326" type="curve" smooth="yes"/>
      <point x="57" y="305"/>
      <point x="57" y="282"/>
      <point x="57" y="261" type="curve"/>
      <point x="72" y="261" type="line"/>
      <point x="104" y="298"/>
      <point x="131" y="312"/>
      <point x="174" y="312" type="curve" smooth="yes"/>
      <point x="257" y="312"/>
      <point x="324" y="212"/>
      <point x="424" y="212" type="curve" smooth="yes"/>
      <point x="477" y="212"/>
      <point x="510" y="230"/>
      <point x="535" y="256" type="curve" smooth="yes"/>
      <point x="543" y="264"/>
      <point x="543" y="269"/>
      <point x="543" y="276" type="curve" smooth="yes"/>
      <point x="543" y="296"/>
      <point x="543" y="320"/>
      <point x="543" y="341" type="curve"/>
      <point x="528" y="341" type="line"/>
      <point x="496" y="304"/>
      <point x="469" y="289"/>
    </contour>
  </outline>
</glyph>
<glyph name="exclamdown" format="1">
  <advance width="400"/>
  <unicode hex="00A1"/>
  <outline>
    <contour>
      <point x="167" y="275" type="line"/>
      <point x="161" y="193"/>
      <point x="154" y="110"/>
      <point x="148" y="28" type="curve"/>
      <point x="148" y="-159" type="line" smooth="yes"/>
      <point x="148" y="-166"/>
      <point x="152" y="-170"/>
      <point x="158" y="-170" type="curve" smooth="yes"/>
      <point x="194" y="-170"/>
      <point x="226" y="-170"/>
      <point x="252" y="-170" type="curve"/>
      <point x="252" y="-132"/>
      <point x="252" y="-97"/>
      <point x="252" y="-60" type="curve" smooth="yes"/>
      <point x="252" y="28" type="line"/>
      <point x="235" y="262"/>
      <point x="233" y="268"/>
      <point x="229" y="272" type="curve" smooth="yes"/>
      <point x="227" y="274"/>
      <point x="225" y="275"/>
      <point x="221" y="275" type="curve"/>
    </contour>
    <contour>
      <point x="126" y="537" type="curve"/>
      <point x="126" y="403" type="line" smooth="yes"/>
      <point x="126" y="397"/>
      <point x="131" y="392"/>
      <point x="137" y="392" type="curve" smooth="yes"/>
      <point x="177" y="392"/>
      <point x="234" y="392"/>
      <point x="274" y="392" type="curve"/>
      <point x="274" y="526" type="line" smooth="yes"/>
      <point x="274" y="532"/>
      <point x="269" y="537"/>
      <point x="263" y="537" type="curve" smooth="yes"/>
      <point x="223" y="537"/>
      <point x="166" y="537"/>
    </contour>
  </outline>
</glyph>
<glyph name="cent" format="1">
  <advance width="600"/>
  <unicode hex="00A2"/>
  <outline>
    <contour>
      <point x="364" y="397" type="line"/>
      <point x="401" y="757" type="line" smooth="yes"/>
      <point x="402" y="766"/>
      <point x="397" y="770"/>
      <point x="391" y="770" type="curve" smooth="yes"/>
      <point x="359" y="770"/>
      <point x="345" y="770"/>
      <point x="313" y="770" type="curve"/>
      <point x="313" y="741"/>
      <point x="313" y="711"/>
      <point x="313" y="681" type="curve"/>
      <point x="313" y="420" type="line" smooth="yes"/>
      <point x="313" y="412"/>
      <point x="317" y="408"/>
      <point x="324" y="407" type="curve" smooth="yes"/>
    </contour>
    <contour>
      <point x="314" y="303" type="line"/>
      <point x="277" y="-57" type="line" smooth="yes"/>
      <point x="276" y="-66"/>
      <point x="281" y="-70"/>
      <point x="287" y="-70" type="curve" smooth="yes"/>
      <point x="319" y="-70"/>
      <point x="332" y="-70"/>
      <point x="364" y="-70" type="curve"/>
      <point x="364" y="-40"/>
      <point x="364" y="-11"/>
      <point x="364" y="19" type="curve"/>
      <point x="364" y="280" type="line" smooth="yes"/>
      <point x="364" y="288"/>
      <point x="361" y="292"/>
      <point x="354" y="294" type="curve" smooth="yes"/>
    </contour>
    <contour>
      <point x="340" y="627" type="curve" smooth="yes"/>
      <point x="194" y="627"/>
      <point x="89" y="543"/>
      <point x="89" y="391" type="curve" smooth="yes"/>
      <point x="89" y="307" type="line" smooth="yes"/>
      <point x="89" y="158"/>
      <point x="176" y="76"/>
      <point x="337" y="76" type="curve" smooth="yes"/>
      <point x="346" y="76"/>
      <point x="355" y="95"/>
      <point x="335" y="155" type="curve"/>
      <point x="225" y="155"/>
      <point x="172" y="208"/>
      <point x="172" y="314" type="curve" smooth="yes"/>
      <point x="172" y="384" type="line" smooth="yes"/>
      <point x="172" y="495"/>
      <point x="229" y="548"/>
      <point x="339" y="548" type="curve" smooth="yes"/>
      <point x="402" y="548"/>
      <point x="445" y="532"/>
      <point x="490" y="506" type="curve"/>
      <point x="505" y="506" type="line"/>
      <point x="505" y="526"/>
      <point x="505" y="548"/>
      <point x="505" y="573" type="curve" smooth="yes"/>
      <point x="505" y="577"/>
      <point x="504" y="580"/>
      <point x="500" y="584" type="curve" smooth="yes"/>
      <point x="485" y="600"/>
      <point x="428" y="627"/>
    </contour>
    <contour>
      <point x="148" y="236" type="curve"/>
      <point x="128" y="146"/>
      <point x="205" y="76"/>
      <point x="337" y="76" type="curve" smooth="yes"/>
      <point x="417" y="76"/>
      <point x="481" y="98"/>
      <point x="502" y="119" type="curve" smooth="yes"/>
      <point x="504" y="121"/>
      <point x="505" y="124"/>
      <point x="505" y="127" type="curve"/>
      <point x="505" y="150"/>
      <point x="505" y="173"/>
      <point x="505" y="196" type="curve"/>
      <point x="490" y="196" type="line"/>
      <point x="442" y="170"/>
      <point x="400" y="155"/>
      <point x="335" y="155" type="curve" smooth="yes"/>
      <point x="246" y="155"/>
      <point x="200" y="182"/>
    </contour>
  </outline>
</glyph>
<glyph name="sterling" format="1">
  <advance width="600"/>
  <unicode hex="00A3"/>
  <outline>
    <contour>
      <point x="364" y="641" type="curve" smooth="yes"/>
      <point x="423" y="641"/>
      <point x="458" y="625"/>
      <point x="505" y="592" type="curve"/>
      <point x="519" y="592" type="line"/>
      <point x="519" y="609"/>
      <point x="519" y="634"/>
      <point x="519" y="665" type="curve" smooth="yes"/>
      <point x="519" y="669"/>
      <point x="518" y="671"/>
      <point x="516" y="673" type="curve" smooth="yes"/>
      <point x="493" y="696"/>
      <point x="438" y="720"/>
      <point x="363" y="720" type="curve" smooth="yes"/>
      <point x="230" y="720"/>
      <point x="159" y="639"/>
      <point x="159" y="544" type="curve" smooth="yes"/>
      <point x="159" y="525" type="line" smooth="yes"/>
      <point x="159" y="509"/>
      <point x="171" y="509"/>
      <point x="240" y="531" type="curve"/>
      <point x="240" y="603"/>
      <point x="282" y="641"/>
    </contour>
    <contour>
      <point x="159" y="525" type="curve" smooth="yes"/>
      <point x="159" y="404"/>
      <point x="159" y="306"/>
      <point x="159" y="178" type="curve" smooth="yes"/>
      <point x="159" y="111"/>
      <point x="119" y="74"/>
      <point x="64" y="74" type="curve" smooth="yes"/>
      <point x="59" y="74"/>
      <point x="55" y="74"/>
      <point x="51" y="74" type="curve"/>
      <point x="47" y="74" type="line"/>
      <point x="47" y="53"/>
      <point x="47" y="36"/>
      <point x="47" y="11" type="curve" smooth="yes"/>
      <point x="47" y="3"/>
      <point x="51" y="0"/>
      <point x="58" y="0" type="curve" smooth="yes"/>
      <point x="63" y="0" type="line" smooth="yes"/>
      <point x="161" y="0"/>
      <point x="240" y="56"/>
      <point x="240" y="191" type="curve" smooth="yes"/>
      <point x="240" y="311"/>
      <point x="240" y="419"/>
      <point x="240" y="531" type="curve" smooth="yes"/>
      <point x="240" y="556"/>
      <point x="240" y="580"/>
      <point x="240" y="604" type="curve"/>
      <point x="195" y="604"/>
      <point x="159" y="575"/>
    </contour>
    <contour>
      <point x="63" y="0" type="curve"/>
      <point x="235" y="0"/>
      <point x="337" y="0"/>
      <point x="467" y="0" type="curve" smooth="yes"/>
      <point x="532" y="0" type="line" smooth="yes"/>
      <point x="540" y="0"/>
      <point x="543" y="3"/>
      <point x="543" y="11" type="curve"/>
      <point x="543" y="32"/>
      <point x="543" y="53"/>
      <point x="543" y="74" type="curve"/>
      <point x="523" y="74" type="line"/>
      <point x="499" y="74"/>
      <point x="481" y="74"/>
      <point x="451" y="74" type="curve" smooth="yes"/>
      <point x="352" y="74"/>
      <point x="281" y="74"/>
      <point x="130" y="74" type="curve"/>
      <point x="58" y="6"/>
      <point x="59" y="0"/>
    </contour>
    <contour>
      <point x="67" y="383" type="line"/>
      <point x="67" y="361"/>
      <point x="67" y="352"/>
      <point x="67" y="330" type="curve" smooth="yes"/>
      <point x="67" y="327"/>
      <point x="68" y="324"/>
      <point x="70" y="322" type="curve" smooth="yes"/>
      <point x="72" y="320"/>
      <point x="75" y="319"/>
      <point x="78" y="319" type="curve" smooth="yes"/>
      <point x="450" y="319" type="line"/>
      <point x="450" y="341"/>
      <point x="450" y="350"/>
      <point x="450" y="372" type="curve" smooth="yes"/>
      <point x="450" y="378"/>
      <point x="445" y="383"/>
      <point x="439" y="383" type="curve" smooth="yes"/>
    </contour>
  </outline>
</glyph>
<glyph name="currency" format="1">
  <advance width="600"/>
  <unicode hex="00A4"/>
  <outline>
    <contour>
      <point x="228" y="421" type="curve"/>
      <point x="202" y="447"/>
      <point x="170" y="479"/>
      <point x="143" y="507" type="curve" smooth="yes"/>
      <point x="141" y="509"/>
      <point x="139" y="510"/>
      <point x="137" y="510" type="curve" smooth="yes"/>
      <point x="135" y="510"/>
      <point x="133" y="509"/>
      <point x="131" y="507" type="curve" smooth="yes"/>
      <point x="115" y="491"/>
      <point x="99" y="475"/>
      <point x="86" y="462" type="curve"/>
      <point x="113" y="436"/>
      <point x="146" y="403"/>
      <point x="172" y="377" type="curve" smooth="yes"/>
      <point x="176" y="373"/>
      <point x="180" y="373"/>
      <point x="184" y="377" type="curve" smooth="yes"/>
      <point x="198" y="392"/>
      <point x="215" y="408"/>
    </contour>
    <contour>
      <point x="370" y="421" type="curve"/>
      <point x="379" y="413"/>
      <point x="405" y="387"/>
      <point x="414" y="377" type="curve" smooth="yes"/>
      <point x="418" y="373"/>
      <point x="422" y="373"/>
      <point x="426" y="377" type="curve" smooth="yes"/>
      <point x="452" y="403"/>
      <point x="485" y="436"/>
      <point x="512" y="462" type="curve"/>
      <point x="497" y="477"/>
      <point x="483" y="491"/>
      <point x="467" y="507" type="curve" smooth="yes"/>
      <point x="465" y="509"/>
      <point x="463" y="510"/>
      <point x="461" y="510" type="curve" smooth="yes"/>
      <point x="459" y="510"/>
      <point x="457" y="509"/>
      <point x="455" y="507" type="curve" smooth="yes"/>
      <point x="428" y="479"/>
      <point x="396" y="447"/>
    </contour>
    <contour>
      <point x="370" y="178" type="curve"/>
      <point x="396" y="152"/>
      <point x="428" y="120"/>
      <point x="455" y="93" type="curve" smooth="yes"/>
      <point x="457" y="91"/>
      <point x="459" y="90"/>
      <point x="461" y="90" type="curve" smooth="yes"/>
      <point x="463" y="90"/>
      <point x="465" y="91"/>
      <point x="467" y="93" type="curve" smooth="yes"/>
      <point x="483" y="109"/>
      <point x="499" y="124"/>
      <point x="512" y="137" type="curve"/>
      <point x="485" y="163"/>
      <point x="452" y="196"/>
      <point x="426" y="222" type="curve" smooth="yes"/>
      <point x="422" y="226"/>
      <point x="418" y="226"/>
      <point x="414" y="222" type="curve" smooth="yes"/>
      <point x="400" y="208"/>
      <point x="383" y="191"/>
    </contour>
    <contour>
      <point x="228" y="178" type="curve"/>
      <point x="219" y="186"/>
      <point x="193" y="213"/>
      <point x="184" y="222" type="curve" smooth="yes"/>
      <point x="180" y="226"/>
      <point x="176" y="226"/>
      <point x="172" y="222" type="curve" smooth="yes"/>
      <point x="146" y="196"/>
      <point x="113" y="163"/>
      <point x="86" y="137" type="curve"/>
      <point x="101" y="123"/>
      <point x="115" y="109"/>
      <point x="131" y="93" type="curve" smooth="yes"/>
      <point x="133" y="91"/>
      <point x="135" y="90"/>
      <point x="137" y="90" type="curve" smooth="yes"/>
      <point x="139" y="90"/>
      <point x="141" y="91"/>
      <point x="143" y="93" type="curve" smooth="yes"/>
      <point x="170" y="120"/>
      <point x="202" y="152"/>
    </contour>
    <contour>
      <point x="300" y="195" type="curve"/>
      <point x="235" y="195"/>
      <point x="199" y="227"/>
      <point x="199" y="280" type="curve" smooth="yes"/>
      <point x="199" y="321" type="line" smooth="yes"/>
      <point x="199" y="375"/>
      <point x="237" y="407"/>
      <point x="300" y="407" type="curve" smooth="yes"/>
      <point x="342" y="407"/>
      <point x="361" y="403"/>
      <point x="390" y="389" type="curve"/>
      <point x="402" y="429"/>
      <point x="362" y="471"/>
      <point x="300" y="471" type="curve"/>
      <point x="198" y="471"/>
      <point x="133" y="414"/>
      <point x="133" y="324" type="curve" smooth="yes"/>
      <point x="133" y="278" type="line" smooth="yes"/>
      <point x="133" y="188"/>
      <point x="198" y="131"/>
      <point x="300" y="131" type="curve"/>
      <point x="309" y="131"/>
      <point x="309" y="159"/>
    </contour>
    <contour>
      <point x="300" y="407" type="curve"/>
      <point x="365" y="407"/>
      <point x="401" y="375"/>
      <point x="401" y="321" type="curve" smooth="yes"/>
      <point x="401" y="280" type="line" smooth="yes"/>
      <point x="401" y="227"/>
      <point x="363" y="195"/>
      <point x="300" y="195" type="curve" smooth="yes"/>
      <point x="258" y="195"/>
      <point x="239" y="199"/>
      <point x="210" y="212" type="curve"/>
      <point x="198" y="173"/>
      <point x="238" y="131"/>
      <point x="300" y="131" type="curve"/>
      <point x="402" y="131"/>
      <point x="467" y="188"/>
      <point x="467" y="278" type="curve" smooth="yes"/>
      <point x="467" y="324" type="line" smooth="yes"/>
      <point x="467" y="414"/>
      <point x="402" y="471"/>
      <point x="300" y="471" type="curve"/>
      <point x="288" y="471"/>
      <point x="288" y="445"/>
    </contour>
  </outline>
</glyph>
<glyph name="yen" format="1">
  <advance width="600"/>
  <unicode hex="00A5"/>
  <outline>
    <contour>
      <point x="42" y="456" type="line"/>
      <point x="42" y="434"/>
      <point x="42" y="424"/>
      <point x="42" y="403" type="curve" smooth="yes"/>
      <point x="42" y="400"/>
      <point x="43" y="397"/>
      <point x="45" y="395" type="curve" smooth="yes"/>
      <point x="47" y="393"/>
      <point x="50" y="392"/>
      <point x="53" y="392" type="curve"/>
      <point x="220" y="392" type="line"/>
      <point x="220" y="413"/>
      <point x="220" y="423"/>
      <point x="220" y="445" type="curve" smooth="yes"/>
      <point x="220" y="451"/>
      <point x="215" y="456"/>
      <point x="209" y="456" type="curve"/>
    </contour>
    <contour>
      <point x="380" y="456" type="line"/>
      <point x="380" y="434"/>
      <point x="380" y="424"/>
      <point x="380" y="403" type="curve" smooth="yes"/>
      <point x="380" y="397"/>
      <point x="385" y="392"/>
      <point x="391" y="392" type="curve"/>
      <point x="558" y="392" type="line"/>
      <point x="558" y="413"/>
      <point x="558" y="423"/>
      <point x="558" y="445" type="curve" smooth="yes"/>
      <point x="558" y="451"/>
      <point x="553" y="456"/>
      <point x="547" y="456" type="curve"/>
    </contour>
    <contour>
      <point x="558" y="149" type="line"/>
      <point x="558" y="170"/>
      <point x="558" y="180"/>
      <point x="558" y="202" type="curve" smooth="yes"/>
      <point x="558" y="205"/>
      <point x="557" y="208"/>
      <point x="555" y="210" type="curve" smooth="yes"/>
      <point x="553" y="212"/>
      <point x="550" y="213"/>
      <point x="547" y="213" type="curve"/>
      <point x="42" y="213" type="line"/>
      <point x="42" y="191"/>
      <point x="42" y="181"/>
      <point x="42" y="160" type="curve" smooth="yes"/>
      <point x="42" y="154"/>
      <point x="47" y="149"/>
      <point x="53" y="149" type="curve"/>
    </contour>
    <contour>
      <point x="33" y="700" type="line"/>
      <point x="109" y="556"/>
      <point x="186" y="412"/>
      <point x="262" y="268" type="curve"/>
      <point x="265" y="263"/>
      <point x="272" y="261"/>
      <point x="279" y="261" type="curve"/>
      <point x="306" y="261"/>
      <point x="321" y="299"/>
      <point x="316" y="327" type="curve"/>
      <point x="254" y="447"/>
      <point x="192" y="568"/>
      <point x="131" y="688" type="curve"/>
      <point x="128" y="695"/>
      <point x="124" y="700"/>
      <point x="114" y="700" type="curve" smooth="yes"/>
    </contour>
    <contour>
      <point x="477" y="700" type="line"/>
      <point x="414" y="575"/>
      <point x="351" y="450"/>
      <point x="287" y="325" type="curve"/>
      <point x="273" y="292"/>
      <point x="279" y="269"/>
      <point x="279" y="261" type="curve"/>
      <point x="335" y="261" type="line"/>
      <point x="410" y="402"/>
      <point x="486" y="544"/>
      <point x="562" y="685" type="curve"/>
      <point x="565" y="693"/>
      <point x="560" y="700"/>
      <point x="553" y="700" type="curve"/>
    </contour>
    <contour>
      <point x="342" y="0" type="curve"/>
      <point x="342" y="32"/>
      <point x="342" y="66"/>
      <point x="342" y="100" type="curve" smooth="yes"/>
      <point x="342" y="303" type="line" smooth="yes"/>
      <point x="342" y="309"/>
      <point x="337" y="314"/>
      <point x="258" y="314" type="curve"/>
      <point x="258" y="11" type="line" smooth="yes"/>
      <point x="258" y="8"/>
      <point x="259" y="5"/>
      <point x="261" y="3" type="curve" smooth="yes"/>
      <point x="263" y="1"/>
      <point x="266" y="0"/>
      <point x="269" y="0" type="curve" smooth="yes"/>
      <point x="293" y="0"/>
      <point x="318" y="0"/>
    </contour>
  </outline>
</glyph>
<glyph name="brokenbar" format="1">
  <advance width="300"/>
  <unicode hex="00A6"/>
  <outline>
    <contour>
      <point x="108" y="760" type="curve"/>
      <point x="108" y="727"/>
      <point x="108" y="694"/>
      <point x="108" y="661" type="curve" smooth="yes"/>
      <point x="108" y="380" type="line" smooth="yes"/>
      <point x="108" y="374"/>
      <point x="113" y="369"/>
      <point x="119" y="369" type="curve" smooth="yes"/>
      <point x="143" y="369"/>
      <point x="167" y="369"/>
      <point x="192" y="369" type="curve"/>
      <point x="192" y="749" type="line" smooth="yes"/>
      <point x="192" y="752"/>
      <point x="191" y="755"/>
      <point x="189" y="757" type="curve" smooth="yes"/>
      <point x="187" y="759"/>
      <point x="184" y="760"/>
      <point x="181" y="760" type="curve" smooth="yes"/>
      <point x="156" y="760"/>
      <point x="132" y="760"/>
    </contour>
    <contour>
      <point x="108" y="231" type="curve"/>
      <point x="108" y="-149" type="line"/>
      <point x="108" y="-155"/>
      <point x="113" y="-160"/>
      <point x="119" y="-160" type="curve" smooth="yes"/>
      <point x="143" y="-160"/>
      <point x="167" y="-160"/>
      <point x="192" y="-160" type="curve"/>
      <point x="192" y="220" type="line" smooth="yes"/>
      <point x="192" y="227"/>
      <point x="188" y="231"/>
      <point x="181" y="231" type="curve" smooth="yes"/>
      <point x="156" y="231"/>
      <point x="132" y="231"/>
    </contour>
  </outline>
</glyph>
